{

glyphs = (
{
glyphname = .notdef;
layers = (
{
layerId = "101ED48A-DA64-4145-AD97-87CDC2521746";
name = "Bold Italic";
paths = (
{
closed = 1;
nodes = (
"372.938 -320 OFFCURVE",
"535.911 -310 OFFCURVE",
"696.884 -310 CURVE SMOOTH",
"860.857 -310 OFFCURVE",
"1027.83 -321 OFFCURVE",
"1202.8 -346 CURVE",
"1207.8 250.958 OFFCURVE",
"1262.79 842.86 OFFCURVE",
"1358.77 1438.76 CURVE",
"1171.8 1411.77 OFFCURVE",
"997.834 1398.77 OFFCURVE",
"832.861 1398.77 CURVE SMOOTH",
"673.888 1398.77 OFFCURVE",
"512.915 1411.77 OFFCURVE",
"337.944 1438.76 CURVE",
"326.946 843.86 OFFCURVE",
"277.954 255.957 OFFCURVE",
"185.969 -320 CURVE",
"208.965 -343 LINE"
);
},
{
closed = 1;
nodes = (
"332.945 -28 LINE",
"340.943 -27 OFFCURVE",
"348.942 -26 OFFCURVE",
"356.941 -26 CURVE",
"353.941 -51 LINE"
);
},
{
closed = 1;
nodes = (
"583.903 1276.79 OFFCURVE",
"703.883 1270.79 OFFCURVE",
"824.863 1270.79 CURVE SMOOTH",
"953.841 1270.79 OFFCURVE",
"1076.82 1277.79 OFFCURVE",
"1205.8 1288.79 CURVE",
"1141.81 848.859 OFFCURVE",
"1103.82 416.931 OFFCURVE",
"1080.82 -26 CURVE",
"1017.83 -22 OFFCURVE",
"960.84 -18 OFFCURVE",
"902.85 -16 CURVE SMOOTH",
"844.859 -14 OFFCURVE",
"785.869 -14 OFFCURVE",
"722.88 -14 CURVE SMOOTH",
"601.9 -14 OFFCURVE",
"477.92 -18 OFFCURVE",
"356.941 -26 CURVE",
"411.931 413.931 OFFCURVE",
"446.926 846.859 OFFCURVE",
"463.923 1287.79 CURVE"
);
}
);
width = 1543;
}
);
},
{
glyphname = exclam;
layers = (
{
layerId = "101ED48A-DA64-4145-AD97-87CDC2521746";
name = "Bold Italic";
paths = (
{
closed = 1;
nodes = (
"225.962 250.958 OFFCURVE",
"221.963 230.962 OFFCURVE",
"218.964 210.965 CURVE SMOOTH",
"215.964 190.968 OFFCURVE",
"211.965 170.972 OFFCURVE",
"208.965 151.975 CURVE",
"208.965 152.975 LINE",
"180.97 0.999834 LINE",
"238.96 24.9958 OFFCURVE",
"286.952 36.9938 OFFCURVE",
"323.946 36.9938 CURVE SMOOTH",
"359.94 36.9938 OFFCURVE",
"403.933 25.9957 OFFCURVE",
"454.924 2.9995 CURVE",
"454.924 7.99867 OFFCURVE",
"454.924 15.9973 OFFCURVE",
"454.924 24.9958 CURVE SMOOTH",
"454.924 33.9943 OFFCURVE",
"454.924 42.9928 OFFCURVE",
"454.924 51.9913 CURVE",
"453.924 60.9898 OFFCURVE",
"453.924 70.9882 OFFCURVE",
"453.924 79.9867 CURVE SMOOTH",
"453.924 88.9852 OFFCURVE",
"453.924 95.984 OFFCURVE",
"453.924 100.983 CURVE",
"452.925 144.976 OFFCURVE",
"451.925 188.969 OFFCURVE",
"451.925 232.961 CURVE SMOOTH",
"451.925 279.953 LINE",
"408.932 290.952 OFFCURVE",
"371.938 295.951 OFFCURVE",
"342.943 295.951 CURVE SMOOTH",
"307.949 295.951 OFFCURVE",
"276.954 291.951 OFFCURVE",
"245.959 284.953 CURVE",
"229.962 269.955 LINE"
);
},
{
closed = 1;
nodes = (
"306.949 1129.81 OFFCURVE",
"269.955 791.868 OFFCURVE",
"222.963 474.921 CURVE",
"231.961 474.921 OFFCURVE",
"277.954 478.92 OFFCURVE",
"314.948 478.92 CURVE SMOOTH",
"350.942 478.92 OFFCURVE",
"392.935 474.921 OFFCURVE",
"447.925 474.921 CURVE",
"447.925 474.921 LINE SMOOTH",
"447.925 474.921 OFFCURVE",
"447.925 474.921 OFFCURVE",
"506.916 474.921 CURVE",
"506.916 545.909 LINE SMOOTH",
"506.916 554.908 OFFCURVE",
"506.916 564.906 OFFCURVE",
"506.916 577.904 CURVE SMOOTH",
"506.916 590.902 OFFCURVE",
"506.916 603.899 OFFCURVE",
"507.915 617.897 CURVE",
"507.915 630.895 OFFCURVE",
"507.915 643.893 OFFCURVE",
"507.915 656.891 CURVE SMOOTH",
"507.915 668.889 OFFCURVE",
"507.915 679.887 OFFCURVE",
"507.915 688.885 CURVE",
"508.915 712.881 OFFCURVE",
"508.915 736.877 OFFCURVE",
"508.915 760.873 CURVE SMOOTH",
"508.915 784.869 OFFCURVE",
"508.915 808.865 OFFCURVE",
"508.915 833.861 CURVE",
"509.915 848.859 OFFCURVE",
"511.915 864.856 OFFCURVE",
"512.915 881.853 CURVE SMOOTH",
"513.914 898.85 OFFCURVE",
"515.914 914.848 OFFCURVE",
"516.914 929.845 CURVE SMOOTH",
"528.912 1102.82 OFFCURVE",
"544.909 1301.78 OFFCURVE",
"560.907 1476.75 CURVE",
"514.914 1461.76 OFFCURVE",
"476.921 1454.76 OFFCURVE",
"447.925 1454.76 CURVE SMOOTH",
"422.93 1454.76 OFFCURVE",
"397.934 1457.76 OFFCURVE",
"373.938 1464.76 CURVE",
"339.943 1448.76 LINE"
);
}
);
width = 721;
}
);
unicode = 0021;
},
{
glyphname = quotedbl;
layers = (
{
layerId = "101ED48A-DA64-4145-AD97-87CDC2521746";
name = "Bold Italic";
paths = (
{
closed = 1;
nodes = (
"508.915 1474.75 OFFCURVE",
"495.917 1474.75 OFFCURVE",
"480.92 1475.75 CURVE SMOOTH",
"465.922 1476.75 OFFCURVE",
"449.925 1477.75 OFFCURVE",
"434.928 1478.75 CURVE SMOOTH",
"403.933 1480.75 OFFCURVE",
"372.938 1481.75 OFFCURVE",
"347.942 1484.75 CURVE",
"347.942 1426.76 LINE SMOOTH",
"347.942 1251.79 OFFCURVE",
"327.945 1073.82 OFFCURVE",
"284.953 889.852 CURVE",
"313.948 892.851 OFFCURVE",
"353.941 895.851 OFFCURVE",
"393.934 897.851 CURVE SMOOTH",
"413.931 898.85 OFFCURVE",
"433.928 899.85 OFFCURVE",
"452.925 900.85 CURVE SMOOTH",
"471.921 901.85 OFFCURVE",
"488.919 901.85 OFFCURVE",
"503.916 902.85 CURVE",
"526.912 1093.82 OFFCURVE",
"536.911 1275.79 OFFCURVE",
"539.91 1454.76 CURVE",
"521.913 1473.75 LINE"
);
},
{
closed = 1;
nodes = (
"829.862 1476.75 OFFCURVE",
"777.871 1474.75 OFFCURVE",
"740.877 1474.75 CURVE",
"709.882 1283.79 OFFCURVE",
"688.885 1094.82 OFFCURVE",
"680.887 902.85 CURVE",
"694.884 901.85 OFFCURVE",
"711.882 901.85 OFFCURVE",
"730.878 900.85 CURVE SMOOTH",
"749.875 899.85 OFFCURVE",
"768.872 898.85 OFFCURVE",
"788.869 897.851 CURVE SMOOTH",
"828.862 895.851 OFFCURVE",
"868.855 892.851 OFFCURVE",
"897.851 889.852 CURVE",
"890.852 953.841 OFFCURVE",
"890.852 1002.83 OFFCURVE",
"890.852 1047.83 CURVE SMOOTH",
"890.852 1184.8 OFFCURVE",
"904.849 1321.78 OFFCURVE",
"932.845 1459.76 CURVE",
"911.848 1482.75 LINE",
"866.856 1479.75 LINE SMOOTH"
);
}
);
width = 976;
}
);
unicode = 0022;
},
{
glyphname = numbersign;
layers = (
{
layerId = "101ED48A-DA64-4145-AD97-87CDC2521746";
name = "Bold Italic";
paths = (
{
closed = 1;
nodes = (
"1018.83 878.854 LINE",
"991.835 878.854 LINE",
"999.834 904.849 LINE"
);
},
{
closed = 1;
nodes = (
"832.861 586.902 OFFCURVE",
"813.865 586.902 OFFCURVE",
"794.868 586.902 CURVE",
"775.871 585.902 OFFCURVE",
"755.874 585.902 OFFCURVE",
"736.877 585.902 CURVE SMOOTH",
"648.892 585.902 LINE",
"656.891 609.898 OFFCURVE",
"664.889 632.895 OFFCURVE",
"671.888 654.891 CURVE SMOOTH",
"686.886 697.884 OFFCURVE",
"700.883 738.877 OFFCURVE",
"714.881 782.87 CURVE SMOOTH",
"721.88 803.866 OFFCURVE",
"728.879 826.862 OFFCURVE",
"736.877 850.858 CURVE",
"737.877 855.858 OFFCURVE",
"739.877 860.857 OFFCURVE",
"741.877 864.856 CURVE",
"742.876 868.855 OFFCURVE",
"744.876 872.855 OFFCURVE",
"745.876 877.854 CURVE",
"789.869 878.854 OFFCURVE",
"831.862 878.854 OFFCURVE",
"870.855 878.854 CURVE SMOOTH",
"909.849 878.854 OFFCURVE",
"949.842 878.854 OFFCURVE",
"991.835 878.854 CURVE",
"959.84 780.87 LINE SMOOTH",
"948.842 748.875 OFFCURVE",
"937.844 716.881 OFFCURVE",
"926.846 683.886 CURVE SMOOTH",
"915.848 650.892 OFFCURVE",
"905.849 618.897 OFFCURVE",
"894.851 586.902 CURVE",
"851.858 586.902 LINE SMOOTH"
);
},
{
closed = 1;
nodes = (
"712.881 1306.78 OFFCURVE",
"667.889 1170.81 OFFCURVE",
"628.895 1043.83 CURVE",
"517.914 1044.83 OFFCURVE",
"405.932 1046.83 OFFCURVE",
"293.951 1051.82 CURVE",
"293.951 1024.83 OFFCURVE",
"292.951 982.836 OFFCURVE",
"289.952 955.841 CURVE",
"285.952 884.853 LINE",
"374.938 881.853 OFFCURVE",
"483.919 879.854 OFFCURVE",
"576.904 879.854 CURVE",
"541.91 774.871 OFFCURVE",
"513.914 687.885 OFFCURVE",
"478.92 584.903 CURVE",
"423.929 583.903 OFFCURVE",
"386.936 582.903 OFFCURVE",
"331.945 582.903 CURVE SMOOTH",
"155.974 580.903 LINE",
"154.974 576.904 OFFCURVE",
"154.974 571.905 OFFCURVE",
"153.974 565.906 CURVE SMOOTH",
"151.975 552.908 OFFCURVE",
"148.975 537.91 OFFCURVE",
"147.975 524.913 CURVE",
"146.976 517.914 OFFCURVE",
"146.976 512.915 OFFCURVE",
"145.976 507.915 CURVE SMOOTH",
"144.976 501.916 OFFCURVE",
"144.976 494.918 OFFCURVE",
"143.976 486.919 CURVE SMOOTH",
"142.976 477.92 OFFCURVE",
"141.976 469.922 OFFCURVE",
"140.977 460.923 CURVE SMOOTH",
"139.977 451.925 OFFCURVE",
"137.977 442.926 OFFCURVE",
"136.977 434.928 CURVE SMOOTH",
"135.977 425.929 OFFCURVE",
"134.978 418.93 OFFCURVE",
"133.978 412.931 CURVE",
"178.97 413.931 OFFCURVE",
"225.962 415.931 OFFCURVE",
"276.954 417.93 CURVE SMOOTH",
"326.946 418.93 OFFCURVE",
"374.938 420.93 OFFCURVE",
"420.93 421.93 CURVE",
"373.938 286.952 OFFCURVE",
"321.946 153.974 OFFCURVE",
"265.956 22.9962 CURVE",
"364.939 26.9955 LINE",
"445.926 30.9948 LINE",
"457.924 64.9892 LINE",
"457.924 62.9895 LINE",
"504.916 182.97 OFFCURVE",
"550.908 301.95 OFFCURVE",
"591.901 422.93 CURVE",
"636.894 423.929 OFFCURVE",
"678.887 424.929 OFFCURVE",
"717.88 424.929 CURVE SMOOTH",
"756.874 424.929 OFFCURVE",
"797.867 424.929 OFFCURVE",
"840.86 424.929 CURVE",
"835.861 408.932 OFFCURVE",
"830.862 393.934 OFFCURVE",
"825.863 380.937 CURVE SMOOTH",
"820.863 366.939 OFFCURVE",
"816.864 352.941 OFFCURVE",
"812.865 339.943 CURVE SMOOTH",
"808.865 326.946 OFFCURVE",
"804.866 312.948 OFFCURVE",
"799.867 299.95 CURVE SMOOTH",
"794.868 285.952 OFFCURVE",
"789.869 270.955 OFFCURVE",
"784.869 254.958 CURVE SMOOTH",
"713.881 35.994 LINE",
"807.866 35.994 LINE SMOOTH",
"830.862 35.994 OFFCURVE",
"866.856 34.9942 OFFCURVE",
"889.852 33.9943 CURVE",
"894.851 51.9913 OFFCURVE",
"900.85 70.9882 OFFCURVE",
"907.849 91.9847 CURVE",
"919.847 132.978 OFFCURVE",
"932.845 175.971 OFFCURVE",
"945.843 217.964 CURVE SMOOTH",
"951.842 238.96 OFFCURVE",
"957.841 257.957 OFFCURVE",
"963.84 275.954 CURVE SMOOTH",
"979.837 322.946 OFFCURVE",
"996.834 374.938 OFFCURVE",
"1011.83 423.929 CURVE",
"1029.83 423.929 OFFCURVE",
"1045.83 423.929 OFFCURVE",
"1059.82 422.93 CURVE SMOOTH",
"1072.82 421.93 OFFCURVE",
"1088.82 421.93 OFFCURVE",
"1106.82 421.93 CURVE SMOOTH",
"1142.81 420.93 OFFCURVE",
"1181.8 420.93 OFFCURVE",
"1223.8 419.93 CURVE SMOOTH",
"1265.79 418.93 OFFCURVE",
"1304.78 417.93 OFFCURVE",
"1340.78 416.931 CURVE",
"1345.78 499.917 LINE SMOOTH",
"1346.78 510.915 OFFCURVE",
"1347.78 524.913 OFFCURVE",
"1348.78 541.91 CURVE SMOOTH",
"1349.78 558.907 OFFCURVE",
"1350.78 571.905 OFFCURVE",
"1351.78 582.903 CURVE",
"1326.78 582.903 OFFCURVE",
"1298.78 582.903 OFFCURVE",
"1267.79 583.903 CURVE SMOOTH",
"1204.8 583.903 OFFCURVE",
"1164.81 584.903 OFFCURVE",
"1124.81 585.902 CURVE SMOOTH",
"1104.82 586.902 OFFCURVE",
"1084.82 586.902 OFFCURVE",
"1064.82 586.902 CURVE",
"1072.82 613.898 OFFCURVE",
"1080.82 638.894 OFFCURVE",
"1088.82 662.89 CURVE SMOOTH",
"1103.82 710.882 OFFCURVE",
"1118.81 757.874 OFFCURVE",
"1134.81 805.866 CURVE SMOOTH",
"1142.81 829.862 OFFCURVE",
"1150.81 854.858 OFFCURVE",
"1159.81 880.853 CURVE",
"1212.8 881.853 OFFCURVE",
"1266.79 881.853 OFFCURVE",
"1321.78 882.853 CURVE SMOOTH",
"1375.77 883.853 OFFCURVE",
"1429.76 884.853 OFFCURVE",
"1482.75 885.853 CURVE",
"1490.75 946.842 LINE SMOOTH",
"1494.75 975.838 OFFCURVE",
"1501.75 1026.83 OFFCURVE",
"1506.75 1055.82 CURVE",
"1418.76 1051.82 OFFCURVE",
"1310.78 1048.83 OFFCURVE",
"1219.8 1045.83 CURVE",
"1266.79 1180.8 OFFCURVE",
"1320.78 1312.78 OFFCURVE",
"1376.77 1444.76 CURVE",
"1336.78 1444.76 LINE",
"1315.78 1443.76 OFFCURVE",
"1292.78 1441.76 OFFCURVE",
"1267.79 1440.76 CURVE SMOOTH",
"1242.79 1439.76 OFFCURVE",
"1218.8 1437.76 OFFCURVE",
"1197.8 1436.76 CURVE",
"1146.81 1311.78 OFFCURVE",
"1093.82 1172.8 OFFCURVE",
"1046.83 1043.83 CURVE",
"1023.83 1043.83 OFFCURVE",
"1002.83 1043.83 OFFCURVE",
"982.836 1043.83 CURVE",
"961.84 1042.83 OFFCURVE",
"941.843 1042.83 OFFCURVE",
"922.846 1042.83 CURVE SMOOTH",
"902.85 1042.83 OFFCURVE",
"882.853 1042.83 OFFCURVE",
"862.856 1042.83 CURVE SMOOTH",
"842.86 1042.83 OFFCURVE",
"821.863 1042.83 OFFCURVE",
"798.867 1042.83 CURVE",
"819.864 1107.82 OFFCURVE",
"841.86 1172.8 OFFCURVE",
"864.856 1237.79 CURVE SMOOTH",
"887.852 1302.78 OFFCURVE",
"909.849 1366.77 OFFCURVE",
"932.845 1431.76 CURVE",
"753.875 1431.76 LINE"
);
}
);
width = 1561;
}
);
unicode = 0023;
},
{
glyphname = dollar;
layers = (
{
layerId = "101ED48A-DA64-4145-AD97-87CDC2521746";
name = "Bold Italic";
paths = (
{
closed = 1;
nodes = (
"668.889 -195 OFFCURVE",
"668.889 -167 OFFCURVE",
"669.888 -139 CURVE",
"669.888 -111 OFFCURVE",
"670.888 -83 OFFCURVE",
"671.888 -54 CURVE SMOOTH",
"673.888 41.993 LINE",
"770.872 49.9917 OFFCURVE",
"870.855 73.9877 OFFCURVE",
"955.841 133.978 CURVE",
"995.834 165.972 OFFCURVE",
"1027.83 208.965 OFFCURVE",
"1050.83 255.957 CURVE SMOOTH",
"1073.82 302.95 OFFCURVE",
"1085.82 353.941 OFFCURVE",
"1085.82 401.933 CURVE SMOOTH",
"1085.82 484.919 OFFCURVE",
"1061.82 572.905 OFFCURVE",
"1001.83 628.895 CURVE SMOOTH",
"962.84 663.89 OFFCURVE",
"916.847 686.886 OFFCURVE",
"867.856 703.883 CURVE SMOOTH",
"818.864 720.88 OFFCURVE",
"767.872 732.878 OFFCURVE",
"718.88 741.877 CURVE",
"720.88 761.873 LINE SMOOTH",
"733.878 894.851 OFFCURVE",
"746.876 1025.83 OFFCURVE",
"761.873 1158.81 CURVE",
"864.856 1151.81 OFFCURVE",
"969.839 1131.81 OFFCURVE",
"1076.82 1075.82 CURVE",
"1089.82 1167.81 LINE",
"1100.82 1247.79 LINE",
"987.836 1278.79 OFFCURVE",
"877.854 1290.79 OFFCURVE",
"777.871 1295.78 CURVE",
"801.867 1515.75 LINE",
"794.868 1515.75 OFFCURVE",
"785.869 1515.75 OFFCURVE",
"772.871 1515.75 CURVE SMOOTH",
"759.874 1515.75 OFFCURVE",
"749.875 1515.75 OFFCURVE",
"742.876 1516.75 CURVE",
"735.878 1516.75 OFFCURVE",
"726.879 1516.75 OFFCURVE",
"713.881 1517.75 CURVE",
"700.883 1517.75 OFFCURVE",
"691.885 1517.75 OFFCURVE",
"684.886 1517.75 CURVE",
"681.886 1492.75 OFFCURVE",
"679.887 1461.76 OFFCURVE",
"676.887 1432.76 CURVE",
"675.888 1417.76 OFFCURVE",
"673.888 1403.77 OFFCURVE",
"672.888 1389.77 CURVE",
"670.888 1374.77 OFFCURVE",
"668.889 1361.77 OFFCURVE",
"667.889 1348.78 CURVE",
"660.89 1293.78 LINE",
"584.903 1288.79 OFFCURVE",
"500.917 1273.79 OFFCURVE",
"415.931 1234.79 CURVE",
"364.939 1207.8 OFFCURVE",
"323.946 1166.81 OFFCURVE",
"292.951 1118.81 CURVE SMOOTH",
"261.956 1070.82 OFFCURVE",
"242.96 1015.83 OFFCURVE",
"239.96 963.84 CURVE",
"239.96 876.854 OFFCURVE",
"257.957 787.869 OFFCURVE",
"317.947 723.88 CURVE SMOOTH",
"388.935 650.892 OFFCURVE",
"484.919 620.897 OFFCURVE",
"580.903 600.9 CURVE",
"562.906 426.929 LINE",
"543.909 250.958 LINE",
"419.93 255.957 OFFCURVE",
"296.951 296.951 OFFCURVE",
"179.97 375.937 CURVE",
"178.97 364.939 OFFCURVE",
"176.971 351.941 OFFCURVE",
"175.971 336.944 CURVE",
"173.971 321.946 OFFCURVE",
"171.971 305.949 OFFCURVE",
"169.972 290.952 CURVE SMOOTH",
"167.972 274.954 OFFCURVE",
"165.972 259.957 OFFCURVE",
"164.973 244.959 CURVE",
"162.973 229.962 OFFCURVE",
"160.973 215.964 OFFCURVE",
"159.973 204.966 CURVE",
"147.975 120.98 LINE",
"271.955 69.9883 OFFCURVE",
"395.934 49.9917 OFFCURVE",
"519.913 42.9928 CURVE",
"516.914 21.9963 OFFCURVE",
"512.915 2.9995 OFFCURVE",
"509.915 -15 CURVE SMOOTH",
"502.916 -51 OFFCURVE",
"497.917 -87 OFFCURVE",
"491.918 -123 CURVE SMOOTH",
"488.919 -141 OFFCURVE",
"484.919 -160 OFFCURVE",
"480.92 -181 CURVE SMOOTH",
"469.922 -241 LINE",
"482.92 -241 OFFCURVE",
"496.917 -241 OFFCURVE",
"511.915 -241 CURVE SMOOTH",
"526.912 -241 OFFCURVE",
"542.91 -241 OFFCURVE",
"558.907 -241 CURVE SMOOTH",
"589.902 -241 OFFCURVE",
"621.896 -242 OFFCURVE",
"646.892 -243 CURVE",
"667.889 -224 LINE"
);
},
{
closed = 1;
nodes = (
"590.902 753.875 LINE",
"590.902 754.874 LINE",
"592.901 754.874 LINE"
);
},
{
closed = 1;
nodes = (
"388.935 994.834 OFFCURVE",
"413.931 1048.83 OFFCURVE",
"461.923 1087.82 CURVE SMOOTH",
"512.915 1128.81 OFFCURVE",
"568.905 1142.81 OFFCURVE",
"631.895 1150.81 CURVE",
"628.895 1123.81 OFFCURVE",
"625.896 1098.82 OFFCURVE",
"623.896 1077.82 CURVE SMOOTH",
"621.896 1056.82 OFFCURVE",
"619.897 1032.83 OFFCURVE",
"616.897 1006.83 CURVE SMOOTH",
"611.898 963.84 OFFCURVE",
"607.899 921.847 OFFCURVE",
"603.899 880.853 CURVE SMOOTH",
"599.9 838.86 OFFCURVE",
"595.901 796.867 OFFCURVE",
"590.902 754.874 CURVE",
"541.91 759.874 OFFCURVE",
"491.918 778.87 OFFCURVE",
"453.924 809.865 CURVE SMOOTH",
"415.931 840.86 OFFCURVE",
"388.935 882.853 OFFCURVE",
"388.935 935.844 CURVE SMOOTH"
);
},
{
closed = 1;
nodes = (
"695.884 581.903 LINE",
"694.884 578.904 OFFCURVE",
"694.884 575.904 OFFCURVE",
"694.884 570.905 CURVE",
"693.885 571.905 OFFCURVE",
"692.885 571.905 OFFCURVE",
"692.885 571.905 CURVE",
"687.885 567.905 LINE"
);
},
{
closed = 1;
nodes = (
"884.853 379.937 OFFCURVE",
"882.853 354.941 OFFCURVE",
"872.855 331.945 CURVE SMOOTH",
"862.856 308.949 OFFCURVE",
"845.859 289.952 OFFCURVE",
"820.863 281.953 CURVE",
"773.871 264.956 OFFCURVE",
"724.879 253.958 OFFCURVE",
"676.887 245.959 CURVE",
"683.886 376.937 LINE SMOOTH",
"686.886 440.927 OFFCURVE",
"689.885 505.916 OFFCURVE",
"694.884 570.905 CURVE",
"739.877 562.906 OFFCURVE",
"787.869 543.909 OFFCURVE",
"823.863 515.914 CURVE SMOOTH",
"859.857 487.919 OFFCURVE",
"884.853 450.925 OFFCURVE",
"884.853 402.933 CURVE SMOOTH"
);
}
);
width = 1274;
}
);
unicode = 0024;
},
{
glyphname = percent;
layers = (
{
layerId = "101ED48A-DA64-4145-AD97-87CDC2521746";
name = "Bold Italic";
paths = (
{
closed = 1;
nodes = (
"1569.74 650.892 OFFCURVE",
"1604.73 622.896 OFFCURVE",
"1627.73 582.903 CURVE SMOOTH",
"1650.73 542.91 OFFCURVE",
"1659.72 490.918 OFFCURVE",
"1659.72 442.926 CURVE SMOOTH",
"1659.72 395.934 OFFCURVE",
"1653.72 329.945 OFFCURVE",
"1630.73 274.954 CURVE SMOOTH",
"1607.73 219.963 OFFCURVE",
"1568.74 177.97 OFFCURVE",
"1503.75 177.97 CURVE SMOOTH",
"1447.76 177.97 OFFCURVE",
"1405.77 202.966 OFFCURVE",
"1377.77 240.96 CURVE SMOOTH",
"1349.78 278.954 OFFCURVE",
"1336.78 329.945 OFFCURVE",
"1336.78 381.936 CURVE SMOOTH",
"1336.78 436.927 OFFCURVE",
"1346.78 503.916 OFFCURVE",
"1374.77 557.907 CURVE SMOOTH",
"1402.77 611.898 OFFCURVE",
"1447.76 650.892 OFFCURVE",
"1516.75 650.892 CURVE SMOOTH"
);
},
{
closed = 1;
nodes = (
"1434.76 792.868 OFFCURVE",
"1343.78 757.874 OFFCURVE",
"1279.79 684.886 CURVE",
"1279.79 685.886 LINE",
"1236.79 640.893 OFFCURVE",
"1210.8 586.902 OFFCURVE",
"1192.8 530.912 CURVE SMOOTH",
"1174.8 473.921 OFFCURVE",
"1167.81 413.931 OFFCURVE",
"1167.81 357.94 CURVE SMOOTH",
"1167.81 269.955 OFFCURVE",
"1187.8 180.97 OFFCURVE",
"1244.79 113.981 CURVE",
"1243.79 114.981 LINE",
"1307.78 31.9947 OFFCURVE",
"1410.77 -1 OFFCURVE",
"1511.75 -1 CURVE SMOOTH",
"1551.74 -1 OFFCURVE",
"1594.73 4.99917 OFFCURVE",
"1634.73 20.9965 CURVE SMOOTH",
"1674.72 36.9938 OFFCURVE",
"1710.72 61.9897 OFFCURVE",
"1737.71 97.9837 CURVE",
"1736.71 96.9839 LINE",
"1773.7 140.977 OFFCURVE",
"1795.7 193.968 OFFCURVE",
"1808.7 246.959 CURVE SMOOTH",
"1821.7 299.95 OFFCURVE",
"1825.7 355.941 OFFCURVE",
"1825.7 406.932 CURVE SMOOTH",
"1825.7 505.916 OFFCURVE",
"1810.7 604.899 OFFCURVE",
"1753.71 683.886 CURVE",
"1754.71 682.886 LINE",
"1703.72 758.874 OFFCURVE",
"1617.73 792.868 OFFCURVE",
"1525.75 792.868 CURVE SMOOTH"
);
},
{
closed = 1;
nodes = (
"663.89 1344.78 OFFCURVE",
"702.883 1314.78 OFFCURVE",
"728.879 1274.79 CURVE SMOOTH",
"754.874 1233.79 OFFCURVE",
"767.872 1181.8 OFFCURVE",
"767.872 1132.81 CURVE SMOOTH",
"767.872 1083.82 OFFCURVE",
"758.874 1012.83 OFFCURVE",
"731.878 954.841 CURVE SMOOTH",
"704.883 896.851 OFFCURVE",
"660.89 849.859 OFFCURVE",
"591.901 849.859 CURVE SMOOTH",
"532.911 849.859 OFFCURVE",
"496.917 880.853 OFFCURVE",
"473.921 924.846 CURVE SMOOTH",
"450.925 968.839 OFFCURVE",
"442.926 1024.83 OFFCURVE",
"442.926 1076.82 CURVE SMOOTH",
"442.926 1080.82 OFFCURVE",
"442.926 1084.82 OFFCURVE",
"442.926 1088.82 CURVE SMOOTH",
"442.926 1092.82 OFFCURVE",
"442.926 1096.82 OFFCURVE",
"443.926 1100.82 CURVE",
"443.926 1113.81 LINE SMOOTH",
"443.926 1162.81 OFFCURVE",
"455.924 1220.8 OFFCURVE",
"480.92 1267.79 CURVE SMOOTH",
"505.916 1314.78 OFFCURVE",
"546.909 1348.78 OFFCURVE",
"602.9 1348.78 CURVE SMOOTH",
"612.898 1348.78 LINE"
);
},
{
closed = 1;
nodes = (
"1319.78 1253.79 OFFCURVE",
"1151.81 1006.83 OFFCURVE",
"984.836 762.873 CURVE SMOOTH",
"899.85 638.894 OFFCURVE",
"807.866 507.915 OFFCURVE",
"714.881 377.937 CURVE SMOOTH",
"621.896 247.959 OFFCURVE",
"526.912 117.98 OFFCURVE",
"433.928 -1 CURVE",
"483.919 -1 LINE",
"504.916 0 OFFCURVE",
"527.912 0.999834 OFFCURVE",
"550.908 1.99967 CURVE SMOOTH",
"573.904 2.9995 OFFCURVE",
"596.901 2.9995 OFFCURVE",
"617.897 3.99933 CURVE",
"789.869 227.962 OFFCURVE",
"952.841 465.922 OFFCURVE",
"1112.81 698.884 CURVE SMOOTH",
"1200.8 827.862 OFFCURVE",
"1295.78 965.839 OFFCURVE",
"1392.77 1101.82 CURVE SMOOTH",
"1489.75 1237.79 OFFCURVE",
"1589.74 1371.77 OFFCURVE",
"1686.72 1495.75 CURVE",
"1674.72 1494.75 OFFCURVE",
"1653.72 1492.75 OFFCURVE",
"1631.73 1491.75 CURVE",
"1620.73 1490.75 OFFCURVE",
"1609.73 1490.75 OFFCURVE",
"1599.73 1489.75 CURVE SMOOTH",
"1588.74 1488.75 OFFCURVE",
"1580.74 1488.75 OFFCURVE",
"1575.74 1488.75 CURVE",
"1500.75 1485.75 LINE"
);
},
{
closed = 1;
nodes = (
"599.9 1489.75 OFFCURVE",
"597.901 1489.75 OFFCURVE",
"596.901 1490.75 CURVE",
"594.901 1490.75 OFFCURVE",
"592.901 1490.75 OFFCURVE",
"590.902 1490.75 CURVE SMOOTH",
"507.915 1489.75 OFFCURVE",
"422.93 1460.76 OFFCURVE",
"366.939 1392.77 CURVE SMOOTH",
"330.945 1348.78 OFFCURVE",
"308.949 1297.78 OFFCURVE",
"296.951 1244.79 CURVE SMOOTH",
"283.953 1191.8 OFFCURVE",
"279.953 1136.81 OFFCURVE",
"279.953 1085.82 CURVE SMOOTH",
"279.953 986.836 OFFCURVE",
"293.951 887.852 OFFCURVE",
"348.942 807.866 CURVE",
"373.938 767.872 OFFCURVE",
"411.931 739.877 OFFCURVE",
"452.925 722.88 CURVE SMOOTH",
"493.918 705.883 OFFCURVE",
"540.91 697.884 OFFCURVE",
"587.902 697.884 CURVE SMOOTH",
"675.888 697.884 OFFCURVE",
"761.873 733.878 OFFCURVE",
"824.863 801.867 CURVE SMOOTH",
"865.856 846.859 OFFCURVE",
"894.851 900.85 OFFCURVE",
"911.848 957.841 CURVE SMOOTH",
"928.845 1013.83 OFFCURVE",
"936.844 1072.82 OFFCURVE",
"936.844 1128.81 CURVE SMOOTH",
"936.844 1217.8 OFFCURVE",
"916.847 1305.78 OFFCURVE",
"860.857 1373.77 CURVE SMOOTH",
"800.867 1446.76 OFFCURVE",
"711.882 1486.75 OFFCURVE",
"614.898 1489.75 CURVE SMOOTH",
"601.9 1489.75 LINE SMOOTH"
);
}
);
width = 2023;
}
);
unicode = 0025;
},
{
glyphname = ampersand;
layers = (
{
layerId = "101ED48A-DA64-4145-AD97-87CDC2521746";
name = "Bold Italic";
paths = (
{
closed = 1;
nodes = (
"485.919 834.861 LINE",
"471.921 821.863 LINE",
"458.924 835.861 LINE"
);
},
{
closed = 1;
nodes = (
"658.89 605.899 OFFCURVE",
"707.882 549.908 OFFCURVE",
"756.874 493.918 CURVE SMOOTH",
"805.866 436.927 OFFCURVE",
"854.858 380.937 OFFCURVE",
"904.849 323.946 CURVE",
"813.865 252.958 OFFCURVE",
"699.883 211.965 OFFCURVE",
"590.902 211.965 CURVE SMOOTH",
"510.915 211.965 OFFCURVE",
"435.927 232.961 OFFCURVE",
"379.937 275.954 CURVE SMOOTH",
"323.946 318.947 OFFCURVE",
"288.952 384.936 OFFCURVE",
"288.952 472.921 CURVE SMOOTH",
"288.952 541.91 OFFCURVE",
"307.949 605.899 OFFCURVE",
"340.943 664.889 CURVE SMOOTH",
"372.938 723.88 OFFCURVE",
"418.93 774.871 OFFCURVE",
"471.921 821.863 CURVE",
"608.899 662.89 LINE SMOOTH"
);
},
{
closed = 1;
nodes = (
"569.905 977.837 OFFCURVE",
"539.91 1011.83 OFFCURVE",
"516.914 1047.83 CURVE SMOOTH",
"492.918 1083.82 OFFCURVE",
"475.921 1123.81 OFFCURVE",
"475.921 1164.81 CURVE SMOOTH",
"475.921 1223.8 OFFCURVE",
"500.917 1269.79 OFFCURVE",
"540.91 1301.78 CURVE SMOOTH",
"579.904 1332.78 OFFCURVE",
"632.895 1349.78 OFFCURVE",
"688.885 1349.78 CURVE SMOOTH",
"795.868 1349.78 OFFCURVE",
"896.851 1306.78 OFFCURVE",
"993.835 1255.79 CURVE",
"999.834 1265.79 OFFCURVE",
"1006.83 1277.79 OFFCURVE",
"1014.83 1290.79 CURVE SMOOTH",
"1022.83 1303.78 OFFCURVE",
"1031.83 1317.78 OFFCURVE",
"1040.83 1331.78 CURVE SMOOTH",
"1058.82 1359.77 OFFCURVE",
"1075.82 1387.77 OFFCURVE",
"1087.82 1407.77 CURVE",
"978.837 1450.76 OFFCURVE",
"865.856 1480.75 OFFCURVE",
"754.874 1480.75 CURVE SMOOTH",
"703.883 1480.75 OFFCURVE",
"651.891 1476.75 OFFCURVE",
"600.9 1462.76 CURVE SMOOTH",
"549.908 1448.76 OFFCURVE",
"501.916 1426.76 OFFCURVE",
"458.924 1390.77 CURVE",
"459.923 1391.77 LINE",
"419.93 1360.77 OFFCURVE",
"390.935 1318.78 OFFCURVE",
"370.938 1272.79 CURVE SMOOTH",
"350.942 1226.8 OFFCURVE",
"341.943 1175.8 OFFCURVE",
"341.943 1130.81 CURVE SMOOTH",
"341.943 1046.83 OFFCURVE",
"373.938 973.838 OFFCURVE",
"414.931 905.849 CURVE",
"331.945 845.859 OFFCURVE",
"260.957 771.872 OFFCURVE",
"209.965 686.886 CURVE SMOOTH",
"158.974 601.9 OFFCURVE",
"129.978 504.916 OFFCURVE",
"129.978 400.933 CURVE SMOOTH",
"129.978 300.95 OFFCURVE",
"159.973 200.967 OFFCURVE",
"230.962 128.979 CURVE SMOOTH",
"274.954 81.9864 OFFCURVE",
"330.945 52.9912 OFFCURVE",
"391.935 34.9942 CURVE SMOOTH",
"451.925 16.9972 OFFCURVE",
"516.914 8.9985 OFFCURVE",
"580.903 8.9985 CURVE SMOOTH",
"751.875 8.9985 OFFCURVE",
"914.848 58.9902 OFFCURVE",
"1054.82 167.972 CURVE",
"1184.8 24.9958 LINE",
"1202.8 23.996 OFFCURVE",
"1223.8 21.9963 OFFCURVE",
"1247.79 20.9965 CURVE SMOOTH",
"1271.79 19.9967 OFFCURVE",
"1296.78 17.997 OFFCURVE",
"1321.78 15.9973 CURVE SMOOTH",
"1346.78 13.9977 OFFCURVE",
"1371.77 11.998 OFFCURVE",
"1395.77 10.9982 CURVE",
"1418.76 8.9985 OFFCURVE",
"1439.76 6.99884 OFFCURVE",
"1457.76 4.99917 CURVE",
"1298.78 181.97 LINE",
"1184.8 308.949 LINE",
"1235.79 380.937 OFFCURVE",
"1275.79 460.923 OFFCURVE",
"1298.78 545.909 CURVE SMOOTH",
"1303.78 565.906 OFFCURVE",
"1308.78 586.902 OFFCURVE",
"1313.78 609.898 CURVE SMOOTH",
"1323.78 653.891 OFFCURVE",
"1332.78 700.883 OFFCURVE",
"1341.78 745.876 CURVE SMOOTH",
"1345.78 767.872 OFFCURVE",
"1349.78 788.869 OFFCURVE",
"1353.77 808.865 CURVE",
"1340.78 808.865 OFFCURVE",
"1326.78 808.865 OFFCURVE",
"1309.78 808.865 CURVE",
"1292.78 807.866 OFFCURVE",
"1274.79 807.866 OFFCURVE",
"1257.79 807.866 CURVE SMOOTH",
"1239.79 807.866 OFFCURVE",
"1222.8 807.866 OFFCURVE",
"1205.8 807.866 CURVE SMOOTH",
"1188.8 807.866 OFFCURVE",
"1174.8 807.866 OFFCURVE",
"1161.81 807.866 CURVE",
"1142.81 676.887 OFFCURVE",
"1116.81 553.908 OFFCURVE",
"1047.83 449.925 CURVE",
"854.858 664.889 LINE SMOOTH",
"769.872 760.873 OFFCURVE",
"684.886 853.858 OFFCURVE",
"597.901 946.842 CURVE",
"597.901 945.843 LINE"
);
}
);
width = 1724;
}
);
unicode = 0026;
},
{
glyphname = parenleft;
layers = (
{
layerId = "101ED48A-DA64-4145-AD97-87CDC2521746";
name = "Bold Italic";
paths = (
{
closed = 1;
nodes = (
"703.883 1528.75 OFFCURVE",
"659.89 1520.75 OFFCURVE",
"608.899 1520.75 CURVE",
"504.916 1397.77 OFFCURVE",
"409.932 1264.79 OFFCURVE",
"334.944 1124.81 CURVE SMOOTH",
"258.957 984.836 OFFCURVE",
"202.966 836.861 OFFCURVE",
"178.97 681.886 CURVE",
"172.971 606.899 OFFCURVE",
"169.972 530.912 OFFCURVE",
"169.972 455.924 CURVE SMOOTH",
"169.972 231.961 OFFCURVE",
"197.967 8.9985 OFFCURVE",
"272.955 -208 CURVE",
"343.943 -209 OFFCURVE",
"415.931 -216 OFFCURVE",
"498.917 -231 CURVE",
"441.926 -76 OFFCURVE",
"398.934 85.9857 OFFCURVE",
"386.936 230.962 CURVE SMOOTH",
"381.936 306.949 OFFCURVE",
"377.937 380.937 OFFCURVE",
"377.937 457.924 CURVE SMOOTH",
"377.937 525.912 OFFCURVE",
"379.937 592.901 OFFCURVE",
"382.936 660.89 CURVE",
"382.936 659.89 LINE",
"398.934 812.865 OFFCURVE",
"449.925 960.84 OFFCURVE",
"519.913 1101.82 CURVE SMOOTH",
"589.902 1242.79 OFFCURVE",
"675.888 1376.77 OFFCURVE",
"766.872 1504.75 CURVE",
"747.876 1536.74 LINE"
);
}
);
width = 815;
}
);
unicode = 0028;
},
{
glyphname = parenright;
layers = (
{
layerId = "101ED48A-DA64-4145-AD97-87CDC2521746";
name = "Bold Italic";
paths = (
{
closed = 1;
nodes = (
"466.922 827.862 OFFCURVE",
"463.923 743.876 OFFCURVE",
"455.924 658.89 CURVE",
"455.924 659.89 LINE",
"431.928 507.915 OFFCURVE",
"376.937 355.941 OFFCURVE",
"301.95 207.965 CURVE SMOOTH",
"226.962 59.99 OFFCURVE",
"133.978 -85 OFFCURVE",
"33.9943 -226 CURVE",
"137.977 -203 OFFCURVE",
"218.964 -196 OFFCURVE",
"290.952 -196 CURVE",
"379.937 -61 OFFCURVE",
"462.923 79.9867 OFFCURVE",
"531.911 216.964 CURVE SMOOTH",
"630.895 416.931 OFFCURVE",
"660.89 631.895 OFFCURVE",
"660.89 851.858 CURVE SMOOTH",
"660.89 972.838 OFFCURVE",
"651.891 1087.82 OFFCURVE",
"630.895 1199.8 CURVE SMOOTH",
"609.898 1310.78 OFFCURVE",
"575.904 1418.76 OFFCURVE",
"527.912 1525.75 CURVE",
"474.921 1528.75 OFFCURVE",
"421.93 1535.74 OFFCURVE",
"368.939 1544.74 CURVE",
"372.938 1529.75 LINE",
"357.94 1531.74 LINE",
"434.928 1332.78 OFFCURVE",
"466.922 1136.81 OFFCURVE",
"466.922 911.848 CURVE SMOOTH"
);
}
);
width = 789;
}
);
unicode = 0029;
},
{
glyphname = asterisk;
layers = (
{
layerId = "101ED48A-DA64-4145-AD97-87CDC2521746";
name = "Bold Italic";
paths = (
{
closed = 1;
nodes = (
"1137.81 1256.79 OFFCURVE",
"1130.81 1273.79 OFFCURVE",
"1123.81 1293.78 CURVE",
"1115.81 1312.78 OFFCURVE",
"1108.82 1328.78 OFFCURVE",
"1103.82 1341.78 CURVE",
"1052.82 1310.78 OFFCURVE",
"998.834 1277.79 OFFCURVE",
"942.843 1243.79 CURVE SMOOTH",
"886.852 1208.8 OFFCURVE",
"831.862 1176.8 OFFCURVE",
"778.87 1145.81 CURVE",
"787.869 1265.79 OFFCURVE",
"799.867 1371.77 OFFCURVE",
"812.865 1491.75 CURVE",
"680.887 1491.75 LINE",
"665.889 1293.78 LINE",
"653.891 1145.81 LINE",
"641.893 1153.81 OFFCURVE",
"635.894 1157.81 OFFCURVE",
"630.895 1161.81 CURVE SMOOTH",
"625.896 1165.81 OFFCURVE",
"619.897 1168.81 OFFCURVE",
"607.899 1175.8 CURVE",
"530.912 1226.8 OFFCURVE",
"439.927 1285.79 OFFCURVE",
"363.939 1338.78 CURVE",
"352.941 1325.78 OFFCURVE",
"345.942 1315.78 OFFCURVE",
"341.943 1308.78 CURVE",
"336.944 1301.78 OFFCURVE",
"333.944 1297.78 OFFCURVE",
"332.945 1294.78 CURVE",
"330.945 1291.79 OFFCURVE",
"329.945 1288.79 OFFCURVE",
"329.945 1287.79 CURVE SMOOTH",
"329.945 1286.79 OFFCURVE",
"328.945 1283.79 OFFCURVE",
"326.946 1280.79 CURVE SMOOTH",
"324.946 1277.79 OFFCURVE",
"322.946 1274.79 OFFCURVE",
"319.947 1270.79 CURVE",
"316.947 1265.79 OFFCURVE",
"313.948 1261.79 OFFCURVE",
"310.948 1256.79 CURVE SMOOTH",
"307.949 1251.79 OFFCURVE",
"304.949 1246.79 OFFCURVE",
"301.95 1241.79 CURVE SMOOTH",
"298.95 1236.79 OFFCURVE",
"295.951 1233.79 OFFCURVE",
"293.951 1230.8 CURVE",
"389.935 1167.81 OFFCURVE",
"499.917 1101.82 OFFCURVE",
"602.9 1044.83 CURVE",
"547.909 1014.83 OFFCURVE",
"490.918 983.836 OFFCURVE",
"431.928 952.841 CURVE SMOOTH",
"372.938 920.847 OFFCURVE",
"316.947 889.852 OFFCURVE",
"263.956 858.857 CURVE",
"266.956 851.858 OFFCURVE",
"271.955 841.86 OFFCURVE",
"276.954 828.862 CURVE SMOOTH",
"281.953 815.864 OFFCURVE",
"285.952 805.866 OFFCURVE",
"288.952 797.867 CURVE",
"309.948 747.876 LINE",
"470.922 843.86 LINE SMOOTH",
"498.917 860.857 OFFCURVE",
"526.912 876.854 OFFCURVE",
"553.908 892.851 CURVE SMOOTH",
"580.903 908.849 OFFCURVE",
"607.899 924.846 OFFCURVE",
"635.894 941.843 CURVE",
"632.895 906.849 OFFCURVE",
"630.895 878.854 OFFCURVE",
"627.896 850.858 CURVE",
"626.896 836.861 OFFCURVE",
"624.896 822.863 OFFCURVE",
"623.896 808.865 CURVE SMOOTH",
"622.896 793.868 OFFCURVE",
"620.897 777.871 OFFCURVE",
"618.897 760.873 CURVE SMOOTH",
"613.898 712.881 OFFCURVE",
"606.899 644.893 OFFCURVE",
"603.899 596.901 CURVE",
"734.878 596.901 LINE",
"739.877 684.886 OFFCURVE",
"747.876 785.869 OFFCURVE",
"754.874 872.855 CURVE SMOOTH",
"760.873 942.843 LINE",
"811.865 909.849 OFFCURVE",
"859.857 876.854 OFFCURVE",
"906.849 845.859 CURVE SMOOTH",
"952.841 814.864 OFFCURVE",
"1000.83 781.87 OFFCURVE",
"1049.83 748.875 CURVE",
"1053.82 754.874 OFFCURVE",
"1058.82 762.873 OFFCURVE",
"1065.82 772.871 CURVE",
"1077.82 791.868 OFFCURVE",
"1091.82 813.865 OFFCURVE",
"1103.82 833.861 CURVE SMOOTH",
"1109.82 843.86 OFFCURVE",
"1114.81 851.858 OFFCURVE",
"1118.81 857.857 CURVE",
"1070.82 888.852 OFFCURVE",
"1019.83 919.847 OFFCURVE",
"966.839 951.842 CURVE SMOOTH",
"912.848 982.836 OFFCURVE",
"860.857 1013.83 OFFCURVE",
"811.865 1042.83 CURVE",
"826.862 1051.82 LINE",
"930.845 1106.82 OFFCURVE",
"1032.83 1162.81 OFFCURVE",
"1135.81 1219.8 CURVE",
"1143.81 1243.79 LINE"
);
}
);
width = 1203;
}
);
unicode = 002A;
},
{
glyphname = plus;
layers = (
{
layerId = "101ED48A-DA64-4145-AD97-87CDC2521746";
name = "Bold Italic";
paths = (
{
closed = 1;
nodes = (
"696.884 732.878 LINE",
"525.912 732.878 OFFCURVE",
"359.94 732.878 OFFCURVE",
"188.969 736.877 CURVE",
"172.971 551.908 LINE",
"191.968 551.908 OFFCURVE",
"212.965 551.908 OFFCURVE",
"236.961 551.908 CURVE SMOOTH",
"259.957 551.908 OFFCURVE",
"283.953 551.908 OFFCURVE",
"308.949 551.908 CURVE SMOOTH",
"333.944 551.908 OFFCURVE",
"357.94 551.908 OFFCURVE",
"381.936 552.908 CURVE",
"405.932 552.908 OFFCURVE",
"427.929 552.908 OFFCURVE",
"447.925 552.908 CURVE SMOOTH",
"486.919 552.908 OFFCURVE",
"525.912 552.908 OFFCURVE",
"564.906 553.908 CURVE SMOOTH",
"602.9 553.908 OFFCURVE",
"641.893 553.908 OFFCURVE",
"680.887 553.908 CURVE",
"676.887 497.917 OFFCURVE",
"670.888 430.928 OFFCURVE",
"663.89 363.939 CURVE SMOOTH",
"660.89 330.945 OFFCURVE",
"657.891 297.95 OFFCURVE",
"654.891 265.956 CURVE SMOOTH",
"651.891 233.961 OFFCURVE",
"648.892 204.966 OFFCURVE",
"645.893 177.97 CURVE SMOOTH",
"631.895 32.9945 LINE",
"815.864 32.9945 LINE",
"826.862 201.966 OFFCURVE",
"839.86 384.936 OFFCURVE",
"854.858 553.908 CURVE",
"939.844 553.908 OFFCURVE",
"1024.83 553.908 OFFCURVE",
"1108.82 553.908 CURVE SMOOTH",
"1192.8 553.908 OFFCURVE",
"1277.79 552.908 OFFCURVE",
"1362.77 551.908 CURVE",
"1378.77 735.878 LINE",
"1214.8 732.878 OFFCURVE",
"1036.83 731.878 OFFCURVE",
"871.855 731.878 CURVE",
"886.852 907.849 OFFCURVE",
"903.85 1078.82 OFFCURVE",
"923.846 1253.79 CURVE",
"738.877 1253.79 LINE",
"720.88 1024.83 LINE"
);
}
);
width = 1512;
}
);
unicode = 002B;
},
{
glyphname = comma;
layers = (
{
layerId = "101ED48A-DA64-4145-AD97-87CDC2521746";
name = "Bold Italic";
paths = (
{
closed = 1;
nodes = (
"118.98 175.971 OFFCURVE",
"114.981 114.981 OFFCURVE",
"109.982 50.9915 CURVE",
"86.9855 -9 LINE SMOOTH",
"70.9882 -49 OFFCURVE",
"51.9913 -96 OFFCURVE",
"31.9947 -143 CURVE SMOOTH",
"11.998 -191 OFFCURVE",
"-9 -237 OFFCURVE",
"-26 -276 CURVE",
"-17 -275 OFFCURVE",
"-6 -273 OFFCURVE",
"6.99884 -272 CURVE SMOOTH",
"33.9943 -269 OFFCURVE",
"62.9895 -266 OFFCURVE",
"88.9852 -264 CURVE SMOOTH",
"101.983 -263 OFFCURVE",
"111.981 -263 OFFCURVE",
"120.98 -262 CURVE",
"153.974 -223 OFFCURVE",
"187.969 -181 OFFCURVE",
"220.963 -138 CURVE SMOOTH",
"253.958 -95 OFFCURVE",
"286.952 -53 OFFCURVE",
"317.947 -12 CURVE SMOOTH",
"359.94 46.9922 LINE",
"363.939 78.9869 OFFCURVE",
"369.938 117.98 OFFCURVE",
"375.937 157.974 CURVE SMOOTH",
"381.936 197.967 OFFCURVE",
"386.936 237.96 OFFCURVE",
"393.934 269.955 CURVE",
"320.947 260.957 OFFCURVE",
"257.957 256.957 OFFCURVE",
"201.966 256.957 CURVE SMOOTH",
"190.968 256.957 OFFCURVE",
"180.97 256.957 OFFCURVE",
"171.971 256.957 CURVE SMOOTH",
"162.973 256.957 OFFCURVE",
"152.975 256.957 OFFCURVE",
"142.976 257.957 CURVE",
"122.98 239.96 LINE"
);
}
);
width = 617;
}
);
unicode = 002C;
},
{
glyphname = hyphen;
layers = (
{
layerId = "101ED48A-DA64-4145-AD97-87CDC2521746";
name = "Bold Italic";
paths = (
{
closed = 1;
nodes = (
"174.971 621.896 OFFCURVE",
"175.971 609.898 OFFCURVE",
"175.971 595.901 CURVE SMOOTH",
"175.971 564.906 OFFCURVE",
"161.973 523.913 OFFCURVE",
"132.978 474.921 CURVE",
"216.964 478.92 OFFCURVE",
"315.947 480.92 OFFCURVE",
"414.931 482.92 CURVE SMOOTH",
"513.914 484.919 OFFCURVE",
"611.898 484.919 OFFCURVE",
"695.884 484.919 CURVE",
"687.885 511.915 OFFCURVE",
"683.886 531.911 OFFCURVE",
"683.886 545.909 CURVE SMOOTH",
"683.886 576.904 OFFCURVE",
"700.883 619.897 OFFCURVE",
"727.879 664.889 CURVE",
"626.896 662.89 LINE SMOOTH",
"563.906 660.89 OFFCURVE",
"502.916 658.89 OFFCURVE",
"442.926 656.891 CURVE SMOOTH",
"381.936 654.891 OFFCURVE",
"320.947 653.891 OFFCURVE",
"258.957 653.891 CURVE SMOOTH",
"224.963 653.891 LINE SMOOTH",
"218.964 653.891 OFFCURVE",
"212.965 653.891 OFFCURVE",
"207.965 654.891 CURVE",
"201.966 654.891 OFFCURVE",
"195.967 654.891 OFFCURVE",
"190.968 654.891 CURVE",
"172.971 631.895 LINE"
);
}
);
width = 860;
}
);
unicode = 002D;
},
{
glyphname = period;
layers = (
{
layerId = "101ED48A-DA64-4145-AD97-87CDC2521746";
name = "Bold Italic";
paths = (
{
closed = 1;
nodes = (
"100.983 202.966 OFFCURVE",
"90.9849 108.982 OFFCURVE",
"69.9883 7.99867 CURVE",
"74.9875 7.99867 OFFCURVE",
"128.979 10.9982 OFFCURVE",
"175.971 10.9982 CURVE SMOOTH",
"219.963 10.9982 OFFCURVE",
"271.955 7.99867 OFFCURVE",
"331.945 7.99867 CURVE",
"331.945 7.99867 LINE SMOOTH",
"331.945 7.99867 OFFCURVE",
"331.945 7.99867 OFFCURVE",
"392.935 7.99867 CURVE",
"392.935 10.9982 OFFCURVE",
"392.935 14.9975 OFFCURVE",
"392.935 20.9965 CURVE",
"391.935 25.9957 OFFCURVE",
"391.935 31.9947 OFFCURVE",
"391.935 37.9937 CURVE SMOOTH",
"391.935 43.9927 OFFCURVE",
"391.935 49.9917 OFFCURVE",
"391.935 55.9907 CURVE",
"390.935 60.9898 OFFCURVE",
"390.935 65.989 OFFCURVE",
"390.935 68.9885 CURVE SMOOTH",
"390.935 151.975 OFFCURVE",
"400.933 242.96 OFFCURVE",
"423.929 346.942 CURVE",
"411.931 345.942 OFFCURVE",
"398.934 344.943 OFFCURVE",
"383.936 343.943 CURVE SMOOTH",
"368.939 342.943 OFFCURVE",
"352.941 342.943 OFFCURVE",
"337.944 341.943 CURVE SMOOTH",
"306.949 339.943 OFFCURVE",
"275.954 338.944 OFFCURVE",
"251.958 338.944 CURVE SMOOTH",
"210.965 338.944 OFFCURVE",
"169.972 340.943 OFFCURVE",
"127.979 344.943 CURVE",
"105.982 324.946 LINE",
"100.983 287.952 LINE"
);
}
);
width = 653;
}
);
unicode = 002E;
},
{
glyphname = slash;
layers = (
{
layerId = "101ED48A-DA64-4145-AD97-87CDC2521746";
name = "Bold Italic";
paths = (
{
closed = 1;
nodes = (
"674.888 1368.77 OFFCURVE",
"644.893 1303.78 OFFCURVE",
"614.898 1236.79 CURVE SMOOTH",
"553.908 1100.82 OFFCURVE",
"493.918 963.84 OFFCURVE",
"435.927 827.862 CURVE SMOOTH",
"406.932 759.874 OFFCURVE",
"377.937 693.885 OFFCURVE",
"350.942 629.895 CURVE SMOOTH",
"294.951 498.917 OFFCURVE",
"234.961 361.94 OFFCURVE",
"174.971 223.963 CURVE SMOOTH",
"114.981 85.9857 OFFCURVE",
"53.991 -52 OFFCURVE",
"-6 -181 CURVE",
"100.983 -165 OFFCURVE",
"172.971 -160 OFFCURVE",
"241.96 -157 CURVE",
"341.943 87.9854 OFFCURVE",
"439.927 342.943 OFFCURVE",
"534.911 590.902 CURVE SMOOTH",
"642.893 874.854 OFFCURVE",
"760.873 1184.8 OFFCURVE",
"879.854 1464.76 CURVE",
"868.855 1463.76 OFFCURVE",
"856.857 1461.76 OFFCURVE",
"842.86 1459.76 CURVE SMOOTH",
"828.862 1457.76 OFFCURVE",
"814.864 1455.76 OFFCURVE",
"799.867 1453.76 CURVE SMOOTH",
"784.869 1451.76 OFFCURVE",
"770.872 1449.76 OFFCURVE",
"756.874 1447.76 CURVE SMOOTH",
"742.876 1445.76 OFFCURVE",
"730.878 1444.76 OFFCURVE",
"719.88 1443.76 CURVE",
"703.883 1431.76 LINE"
);
}
);
width = 835;
}
);
unicode = 002F;
},
{
glyphname = zero;
layers = (
{
layerId = "101ED48A-DA64-4145-AD97-87CDC2521746";
name = "Bold Italic";
paths = (
{
closed = 1;
nodes = (
"757.874 1383.77 OFFCURVE",
"759.874 1383.77 OFFCURVE",
"761.873 1384.77 CURVE",
"762.873 1384.77 OFFCURVE",
"764.873 1384.77 OFFCURVE",
"765.872 1384.77 CURVE SMOOTH",
"817.864 1384.77 OFFCURVE",
"865.856 1364.77 OFFCURVE",
"902.85 1329.78 CURVE SMOOTH",
"938.844 1293.78 OFFCURVE",
"963.84 1245.79 OFFCURVE",
"971.838 1189.8 CURVE",
"982.836 1138.81 OFFCURVE",
"985.836 1089.82 OFFCURVE",
"985.836 1038.83 CURVE SMOOTH",
"985.836 1017.83 OFFCURVE",
"984.836 966.839 OFFCURVE",
"977.837 899.85 CURVE SMOOTH",
"969.839 832.861 OFFCURVE",
"957.841 752.875 OFFCURVE",
"934.844 675.888 CURVE SMOOTH",
"911.848 598.9 OFFCURVE",
"879.854 522.913 OFFCURVE",
"833.861 467.922 CURVE SMOOTH",
"787.869 411.931 OFFCURVE",
"727.879 375.937 OFFCURVE",
"648.892 375.937 CURVE SMOOTH",
"641.893 375.937 LINE SMOOTH",
"640.893 375.937 OFFCURVE",
"639.893 375.937 OFFCURVE",
"638.894 376.937 CURVE",
"637.894 376.937 OFFCURVE",
"636.894 376.937 OFFCURVE",
"635.894 376.937 CURVE SMOOTH",
"625.896 376.937 LINE SMOOTH",
"548.909 376.937 OFFCURVE",
"476.921 416.931 OFFCURVE",
"449.925 488.919 CURVE SMOOTH",
"422.93 560.907 OFFCURVE",
"416.931 636.894 OFFCURVE",
"416.931 716.881 CURVE SMOOTH",
"416.931 792.868 OFFCURVE",
"419.93 873.855 OFFCURVE",
"429.928 955.841 CURVE SMOOTH",
"439.927 1037.83 OFFCURVE",
"458.924 1121.81 OFFCURVE",
"491.918 1204.8 CURVE",
"508.915 1255.79 OFFCURVE",
"543.909 1300.78 OFFCURVE",
"586.902 1332.78 CURVE SMOOTH",
"629.895 1364.77 OFFCURVE",
"680.887 1383.77 OFFCURVE",
"732.878 1383.77 CURVE SMOOTH",
"756.874 1383.77 LINE SMOOTH"
);
},
{
closed = 1;
nodes = (
"672.888 1479.75 OFFCURVE",
"600.9 1462.76 OFFCURVE",
"533.911 1428.76 CURVE SMOOTH",
"465.922 1394.77 OFFCURVE",
"404.933 1344.78 OFFCURVE",
"359.94 1279.79 CURVE SMOOTH",
"308.949 1200.8 OFFCURVE",
"274.954 1110.82 OFFCURVE",
"250.958 1019.83 CURVE SMOOTH",
"226.962 927.846 OFFCURVE",
"210.965 833.861 OFFCURVE",
"198.967 746.876 CURVE",
"194.968 685.886 OFFCURVE",
"191.968 621.896 OFFCURVE",
"191.968 557.907 CURVE SMOOTH",
"191.968 430.928 OFFCURVE",
"205.966 304.949 OFFCURVE",
"264.956 185.969 CURVE SMOOTH",
"295.951 126.979 OFFCURVE",
"343.943 82.9862 OFFCURVE",
"401.933 53.991 CURVE SMOOTH",
"459.923 24.9958 OFFCURVE",
"524.913 9.99834 OFFCURVE",
"591.901 9.99834 CURVE SMOOTH",
"622.896 9.99834 LINE SMOOTH",
"691.885 9.99834 OFFCURVE",
"763.873 25.9957 OFFCURVE",
"829.862 58.9902 CURVE SMOOTH",
"895.851 91.9847 OFFCURVE",
"953.841 141.976 OFFCURVE",
"1000.83 208.965 CURVE SMOOTH",
"1053.82 289.952 OFFCURVE",
"1087.82 378.937 OFFCURVE",
"1111.81 469.922 CURVE SMOOTH",
"1134.81 560.907 OFFCURVE",
"1148.81 652.891 OFFCURVE",
"1160.81 743.876 CURVE",
"1164.81 800.867 OFFCURVE",
"1167.81 861.857 OFFCURVE",
"1167.81 921.847 CURVE SMOOTH",
"1167.81 1050.83 OFFCURVE",
"1153.81 1181.8 OFFCURVE",
"1094.82 1302.78 CURVE SMOOTH",
"1065.82 1362.77 OFFCURVE",
"1017.83 1406.77 OFFCURVE",
"959.84 1435.76 CURVE SMOOTH",
"901.85 1464.76 OFFCURVE",
"833.861 1479.75 OFFCURVE",
"768.872 1479.75 CURVE SMOOTH",
"740.877 1479.75 LINE SMOOTH"
);
}
);
width = 1280;
}
);
unicode = 0030;
},
{
glyphname = one;
layers = (
{
layerId = "101ED48A-DA64-4145-AD97-87CDC2521746";
name = "Bold Italic";
paths = (
{
closed = 1;
nodes = (
"267.955 244.959 OFFCURVE",
"261.956 196.967 OFFCURVE",
"254.958 148.975 CURVE SMOOTH",
"247.959 100.983 OFFCURVE",
"240.96 51.9913 OFFCURVE",
"233.961 10.9982 CURVE",
"385.936 27.9953 OFFCURVE",
"525.912 37.9937 OFFCURVE",
"660.89 37.9937 CURVE SMOOTH",
"799.867 37.9937 OFFCURVE",
"943.843 26.9955 OFFCURVE",
"1094.82 6.99884 CURVE",
"1094.82 62.9895 LINE SMOOTH",
"1094.82 135.977 OFFCURVE",
"1097.82 227.962 OFFCURVE",
"1100.82 300.95 CURVE",
"1004.83 309.948 OFFCURVE",
"892.851 315.947 OFFCURVE",
"793.868 318.947 CURVE",
"821.863 699.883 OFFCURVE",
"856.857 1076.82 OFFCURVE",
"899.85 1457.76 CURVE",
"891.852 1456.76 OFFCURVE",
"882.853 1456.76 OFFCURVE",
"872.855 1456.76 CURVE",
"852.858 1455.76 OFFCURVE",
"830.862 1454.76 OFFCURVE",
"810.865 1454.76 CURVE SMOOTH",
"800.867 1454.76 OFFCURVE",
"791.868 1454.76 OFFCURVE",
"783.87 1454.76 CURVE SMOOTH",
"768.872 1454.76 OFFCURVE",
"752.875 1454.76 OFFCURVE",
"737.877 1454.76 CURVE SMOOTH",
"721.88 1454.76 OFFCURVE",
"705.883 1454.76 OFFCURVE",
"690.885 1455.76 CURVE",
"663.89 1451.76 LINE SMOOTH",
"556.907 1434.76 OFFCURVE",
"452.925 1420.76 OFFCURVE",
"332.945 1413.76 CURVE",
"332.945 1400.77 OFFCURVE",
"332.945 1384.77 OFFCURVE",
"332.945 1367.77 CURVE",
"331.945 1349.78 OFFCURVE",
"331.945 1331.78 OFFCURVE",
"331.945 1313.78 CURVE SMOOTH",
"330.945 1277.79 OFFCURVE",
"329.945 1240.79 OFFCURVE",
"328.945 1213.8 CURVE",
"444.926 1224.8 OFFCURVE",
"565.906 1238.79 OFFCURVE",
"666.889 1257.79 CURVE",
"654.891 1096.82 OFFCURVE",
"641.893 942.843 OFFCURVE",
"628.895 788.869 CURVE SMOOTH",
"621.896 711.882 OFFCURVE",
"615.897 633.894 OFFCURVE",
"608.899 556.907 CURVE SMOOTH",
"601.9 478.92 OFFCURVE",
"594.901 399.933 OFFCURVE",
"587.902 318.947 CURVE",
"483.919 317.947 OFFCURVE",
"395.934 312.948 OFFCURVE",
"292.951 304.949 CURVE",
"274.954 287.952 LINE"
);
}
);
width = 1360;
}
);
unicode = 0031;
},
{
glyphname = two;
layers = (
{
layerId = "101ED48A-DA64-4145-AD97-87CDC2521746";
name = "Bold Italic";
paths = (
{
closed = 1;
nodes = (
"876.854 580.903 OFFCURVE",
"898.85 601.9 OFFCURVE",
"919.847 623.896 CURVE SMOOTH",
"940.843 644.893 OFFCURVE",
"962.84 665.889 OFFCURVE",
"983.836 686.886 CURVE SMOOTH",
"1014.83 718.88 LINE",
"1067.82 781.87 OFFCURVE",
"1115.81 846.859 OFFCURVE",
"1148.81 916.847 CURVE SMOOTH",
"1181.8 986.836 OFFCURVE",
"1201.8 1060.82 OFFCURVE",
"1201.8 1141.81 CURVE SMOOTH",
"1201.8 1229.8 OFFCURVE",
"1170.81 1317.78 OFFCURVE",
"1103.82 1377.77 CURVE",
"1055.82 1416.76 OFFCURVE",
"998.834 1441.76 OFFCURVE",
"938.844 1457.76 CURVE SMOOTH",
"877.854 1473.75 OFFCURVE",
"812.865 1479.75 OFFCURVE",
"751.875 1479.75 CURVE SMOOTH",
"615.897 1479.75 OFFCURVE",
"474.921 1442.76 OFFCURVE",
"331.945 1407.77 CURVE",
"331.945 1392.77 OFFCURVE",
"331.945 1376.77 OFFCURVE",
"331.945 1357.77 CURVE SMOOTH",
"330.945 1319.78 OFFCURVE",
"329.945 1277.79 OFFCURVE",
"327.945 1239.79 CURVE SMOOTH",
"326.946 1220.8 OFFCURVE",
"325.946 1203.8 OFFCURVE",
"324.946 1188.8 CURVE",
"465.922 1252.79 OFFCURVE",
"609.898 1298.78 OFFCURVE",
"742.876 1298.78 CURVE SMOOTH",
"806.866 1298.78 OFFCURVE",
"869.855 1282.79 OFFCURVE",
"914.848 1248.79 CURVE SMOOTH",
"959.84 1214.8 OFFCURVE",
"989.835 1161.81 OFFCURVE",
"989.835 1090.82 CURVE SMOOTH",
"989.835 1033.83 OFFCURVE",
"970.838 975.838 OFFCURVE",
"939.844 924.846 CURVE SMOOTH",
"904.849 864.856 OFFCURVE",
"852.858 810.865 OFFCURVE",
"801.867 754.874 CURVE",
"734.878 686.886 OFFCURVE",
"657.891 630.895 OFFCURVE",
"577.904 574.904 CURVE SMOOTH",
"464.923 490.918 OFFCURVE",
"346.942 399.933 OFFCURVE",
"239.96 307.949 CURVE",
"232.961 262.956 OFFCURVE",
"224.963 209.965 OFFCURVE",
"216.964 156.974 CURVE SMOOTH",
"211.965 129.978 OFFCURVE",
"207.965 103.983 OFFCURVE",
"203.966 78.9869 CURVE SMOOTH",
"199.967 52.9912 OFFCURVE",
"195.967 28.9952 OFFCURVE",
"191.968 6.99884 CURVE",
"361.94 26.9955 OFFCURVE",
"522.913 36.9938 OFFCURVE",
"675.888 36.9938 CURVE SMOOTH",
"822.863 36.9938 OFFCURVE",
"976.837 26.9955 OFFCURVE",
"1137.81 6.99884 CURVE",
"1137.81 28.9952 OFFCURVE",
"1137.81 52.9912 OFFCURVE",
"1137.81 78.9869 CURVE SMOOTH",
"1137.81 104.983 OFFCURVE",
"1137.81 131.978 OFFCURVE",
"1138.81 158.974 CURVE SMOOTH",
"1139.81 185.969 OFFCURVE",
"1139.81 211.965 OFFCURVE",
"1140.81 238.96 CURVE",
"1140.81 264.956 OFFCURVE",
"1141.81 288.952 OFFCURVE",
"1142.81 310.948 CURVE",
"981.837 325.946 OFFCURVE",
"831.862 328.945 OFFCURVE",
"686.886 329.945 CURVE",
"718.88 416.931 OFFCURVE",
"783.87 492.918 OFFCURVE",
"854.858 560.907 CURVE",
"854.858 559.907 LINE"
);
}
);
width = 1403;
}
);
unicode = 0032;
},
{
glyphname = three;
layers = (
{
layerId = "101ED48A-DA64-4145-AD97-87CDC2521746";
name = "Bold Italic";
paths = (
{
closed = 1;
nodes = (
"1188.8 1253.79 OFFCURVE",
"1161.81 1316.78 OFFCURVE",
"1117.81 1362.77 CURVE SMOOTH",
"1072.82 1408.77 OFFCURVE",
"1012.83 1437.76 OFFCURVE",
"946.842 1455.76 CURVE SMOOTH",
"880.853 1473.75 OFFCURVE",
"807.866 1479.75 OFFCURVE",
"740.877 1479.75 CURVE SMOOTH",
"611.898 1479.75 OFFCURVE",
"476.921 1461.76 OFFCURVE",
"337.944 1438.76 CURVE",
"337.944 1415.76 OFFCURVE",
"336.944 1383.77 OFFCURVE",
"335.944 1351.78 CURVE SMOOTH",
"334.944 1335.78 OFFCURVE",
"334.944 1319.78 OFFCURVE",
"334.944 1304.78 CURVE",
"333.944 1289.79 OFFCURVE",
"333.944 1275.79 OFFCURVE",
"332.945 1264.79 CURVE",
"464.923 1295.78 OFFCURVE",
"592.901 1317.78 OFFCURVE",
"713.881 1317.78 CURVE SMOOTH",
"762.873 1317.78 OFFCURVE",
"830.862 1310.78 OFFCURVE",
"884.853 1285.79 CURVE SMOOTH",
"938.844 1260.79 OFFCURVE",
"979.837 1216.8 OFFCURVE",
"979.837 1141.81 CURVE SMOOTH",
"979.837 1064.82 OFFCURVE",
"947.842 1002.83 OFFCURVE",
"897.851 961.84 CURVE SMOOTH",
"847.859 920.847 OFFCURVE",
"779.87 898.85 OFFCURVE",
"708.882 898.85 CURVE SMOOTH",
"693.885 898.85 OFFCURVE",
"677.887 898.85 OFFCURVE",
"662.89 898.85 CURVE SMOOTH",
"647.892 898.85 OFFCURVE",
"631.895 898.85 OFFCURVE",
"616.897 899.85 CURVE",
"608.899 899.85 OFFCURVE",
"599.9 899.85 OFFCURVE",
"590.902 899.85 CURVE SMOOTH",
"581.903 899.85 OFFCURVE",
"571.905 899.85 OFFCURVE",
"561.906 900.85 CURVE",
"551.908 900.85 OFFCURVE",
"541.91 900.85 OFFCURVE",
"532.911 900.85 CURVE SMOOTH",
"522.913 900.85 OFFCURVE",
"513.914 900.85 OFFCURVE",
"506.916 900.85 CURVE",
"505.916 885.853 OFFCURVE",
"503.916 866.856 OFFCURVE",
"502.916 845.859 CURVE",
"500.917 824.863 OFFCURVE",
"498.917 805.866 OFFCURVE",
"497.917 790.868 CURVE SMOOTH",
"492.918 723.88 LINE",
"626.896 723.88 LINE SMOOTH",
"671.888 723.88 OFFCURVE",
"720.88 721.88 OFFCURVE",
"765.872 713.881 CURVE SMOOTH",
"809.865 704.883 OFFCURVE",
"850.858 686.886 OFFCURVE",
"885.853 657.891 CURVE",
"924.846 622.896 OFFCURVE",
"954.841 573.904 OFFCURVE",
"954.841 514.914 CURVE SMOOTH",
"954.841 485.919 OFFCURVE",
"940.843 460.923 OFFCURVE",
"921.847 437.927 CURVE SMOOTH",
"901.85 414.931 OFFCURVE",
"876.854 394.934 OFFCURVE",
"853.858 377.937 CURVE",
"813.865 345.942 OFFCURVE",
"766.872 326.946 OFFCURVE",
"716.881 315.947 CURVE SMOOTH",
"666.889 303.949 OFFCURVE",
"614.898 301.95 OFFCURVE",
"565.906 301.95 CURVE SMOOTH",
"452.925 301.95 OFFCURVE",
"336.944 320.947 OFFCURVE",
"221.963 384.936 CURVE",
"218.964 360.94 OFFCURVE",
"215.964 334.944 OFFCURVE",
"211.965 306.949 CURVE SMOOTH",
"207.965 277.954 OFFCURVE",
"203.966 249.958 OFFCURVE",
"199.967 220.963 CURVE SMOOTH",
"191.968 162.973 OFFCURVE",
"182.97 103.983 OFFCURVE",
"174.971 55.9907 CURVE",
"296.951 23.996 OFFCURVE",
"415.931 7.99867 OFFCURVE",
"532.911 7.99867 CURVE SMOOTH",
"607.899 7.99867 OFFCURVE",
"688.885 10.9982 OFFCURVE",
"769.872 26.9955 CURVE SMOOTH",
"849.859 41.993 OFFCURVE",
"930.845 69.9883 OFFCURVE",
"1002.83 121.98 CURVE SMOOTH",
"1062.82 166.972 OFFCURVE",
"1100.82 227.962 OFFCURVE",
"1124.81 294.951 CURVE SMOOTH",
"1147.81 361.94 OFFCURVE",
"1155.81 432.928 OFFCURVE",
"1155.81 497.917 CURVE SMOOTH",
"1155.81 573.904 OFFCURVE",
"1136.81 643.893 OFFCURVE",
"1096.82 703.883 CURVE SMOOTH",
"1059.82 758.874 OFFCURVE",
"1003.83 790.868 OFFCURVE",
"939.844 803.866 CURVE",
"1015.83 830.862 OFFCURVE",
"1078.82 882.853 OFFCURVE",
"1121.81 947.842 CURVE SMOOTH",
"1164.81 1012.83 OFFCURVE",
"1188.8 1090.82 OFFCURVE",
"1188.8 1169.81 CURVE SMOOTH"
);
}
);
width = 1333;
}
);
unicode = 0033;
},
{
glyphname = four;
layers = (
{
layerId = "101ED48A-DA64-4145-AD97-87CDC2521746";
name = "Bold Italic";
paths = (
{
closed = 1;
nodes = (
"836.861 1306.78 LINE",
"839.86 1330.78 OFFCURVE",
"842.86 1353.77 OFFCURVE",
"846.859 1380.77 CURVE",
"881.853 1365.77 LINE"
);
},
{
closed = 1;
nodes = (
"688.885 609.898 OFFCURVE",
"617.897 609.898 OFFCURVE",
"548.909 608.899 CURVE SMOOTH",
"479.92 607.899 OFFCURVE",
"407.932 607.899 OFFCURVE",
"334.944 606.899 CURVE",
"419.93 729.879 OFFCURVE",
"502.916 844.859 OFFCURVE",
"584.903 959.84 CURVE SMOOTH",
"666.889 1074.82 OFFCURVE",
"748.875 1187.8 OFFCURVE",
"836.861 1306.78 CURVE",
"808.865 1071.82 OFFCURVE",
"785.869 841.86 OFFCURVE",
"762.873 609.898 CURVE"
);
},
{
closed = 1;
nodes = (
"576.904 1154.81 OFFCURVE",
"362.94 857.857 OFFCURVE",
"150.975 557.907 CURVE",
"147.975 538.91 OFFCURVE",
"145.976 513.914 OFFCURVE",
"142.976 489.918 CURVE SMOOTH",
"139.977 464.923 OFFCURVE",
"136.977 439.927 OFFCURVE",
"133.978 420.93 CURVE",
"302.95 427.929 OFFCURVE",
"490.918 431.928 OFFCURVE",
"657.891 431.928 CURVE SMOOTH",
"736.877 431.928 LINE",
"725.879 352.941 OFFCURVE",
"719.88 291.951 OFFCURVE",
"711.882 212.965 CURVE SMOOTH",
"691.885 35.994 LINE",
"712.881 35.994 OFFCURVE",
"734.878 35.994 OFFCURVE",
"759.874 34.9942 CURVE SMOOTH",
"784.869 33.9943 OFFCURVE",
"809.865 32.9945 OFFCURVE",
"834.861 31.9947 CURVE SMOOTH",
"885.853 29.995 OFFCURVE",
"936.844 26.9955 OFFCURVE",
"976.837 23.996 CURVE",
"973.838 114.981 OFFCURVE",
"971.838 222.963 OFFCURVE",
"971.838 313.948 CURVE SMOOTH",
"971.838 332.945 OFFCURVE",
"971.838 351.941 OFFCURVE",
"971.838 370.938 CURVE SMOOTH",
"971.838 389.935 OFFCURVE",
"971.838 408.932 OFFCURVE",
"972.838 427.929 CURVE",
"1003.83 426.929 OFFCURVE",
"1034.83 425.929 OFFCURVE",
"1065.82 424.929 CURVE SMOOTH",
"1096.82 423.929 OFFCURVE",
"1127.81 421.93 OFFCURVE",
"1158.81 420.93 CURVE",
"1159.81 431.928 OFFCURVE",
"1159.81 446.926 OFFCURVE",
"1160.81 465.922 CURVE",
"1160.81 483.919 OFFCURVE",
"1161.81 498.917 OFFCURVE",
"1162.81 510.915 CURVE",
"1163.81 535.911 OFFCURVE",
"1166.81 579.904 OFFCURVE",
"1169.81 604.899 CURVE",
"1165.81 604.899 OFFCURVE",
"1160.81 604.899 OFFCURVE",
"1153.81 604.899 CURVE SMOOTH",
"1146.81 604.899 OFFCURVE",
"1138.81 604.899 OFFCURVE",
"1130.81 605.899 CURVE",
"1122.81 605.899 OFFCURVE",
"1114.81 605.899 OFFCURVE",
"1106.82 605.899 CURVE SMOOTH",
"1098.82 605.899 OFFCURVE",
"1091.82 605.899 OFFCURVE",
"1086.82 605.899 CURVE SMOOTH",
"1053.82 606.899 OFFCURVE",
"1017.83 607.899 OFFCURVE",
"984.836 607.899 CURVE",
"1004.83 894.851 OFFCURVE",
"1031.83 1177.8 OFFCURVE",
"1072.82 1464.76 CURVE",
"1032.83 1463.76 OFFCURVE",
"989.835 1461.76 OFFCURVE",
"944.843 1459.76 CURVE SMOOTH",
"898.85 1457.76 OFFCURVE",
"855.858 1456.76 OFFCURVE",
"816.864 1455.76 CURVE",
"800.867 1447.76 LINE"
);
}
);
width = 1336;
}
);
unicode = 0034;
},
{
glyphname = five;
layers = (
{
layerId = "101ED48A-DA64-4145-AD97-87CDC2521746";
name = "Bold Italic";
paths = (
{
closed = 1;
nodes = (
"340.943 1338.78 OFFCURVE",
"335.944 1214.8 OFFCURVE",
"328.945 1090.82 CURVE SMOOTH",
"321.946 966.839 OFFCURVE",
"313.948 841.86 OFFCURVE",
"302.95 725.879 CURVE",
"414.931 774.871 OFFCURVE",
"522.913 799.867 OFFCURVE",
"619.897 799.867 CURVE SMOOTH",
"694.884 799.867 OFFCURVE",
"774.871 787.869 OFFCURVE",
"843.86 739.877 CURVE",
"894.851 696.884 OFFCURVE",
"918.847 624.896 OFFCURVE",
"918.847 555.907 CURVE SMOOTH",
"918.847 515.914 OFFCURVE",
"907.849 481.92 OFFCURVE",
"890.852 452.925 CURVE SMOOTH",
"873.855 423.929 OFFCURVE",
"848.859 397.934 OFFCURVE",
"820.863 372.938 CURVE SMOOTH",
"783.87 340.943 OFFCURVE",
"739.877 319.947 OFFCURVE",
"693.885 307.949 CURVE SMOOTH",
"647.892 294.951 OFFCURVE",
"597.901 290.952 OFFCURVE",
"552.908 290.952 CURVE SMOOTH",
"439.927 290.952 OFFCURVE",
"323.946 312.948 OFFCURVE",
"210.965 372.938 CURVE",
"203.966 325.946 OFFCURVE",
"195.967 268.955 OFFCURVE",
"187.969 210.965 CURVE SMOOTH",
"179.97 152.975 OFFCURVE",
"169.972 94.9842 OFFCURVE",
"161.973 47.992 CURVE",
"290.952 16.9972 OFFCURVE",
"410.932 7.99867 OFFCURVE",
"530.912 7.99867 CURVE SMOOTH",
"603.899 7.99867 OFFCURVE",
"681.886 12.9978 OFFCURVE",
"757.874 29.995 CURVE SMOOTH",
"832.861 46.9922 OFFCURVE",
"904.849 76.9872 OFFCURVE",
"967.839 125.979 CURVE SMOOTH",
"1031.83 174.971 OFFCURVE",
"1072.82 243.959 OFFCURVE",
"1097.82 315.947 CURVE SMOOTH",
"1122.81 387.935 OFFCURVE",
"1131.81 465.922 OFFCURVE",
"1131.81 534.911 CURVE SMOOTH",
"1131.81 650.892 OFFCURVE",
"1101.82 765.872 OFFCURVE",
"1022.83 849.859 CURVE SMOOTH",
"975.838 897.851 OFFCURVE",
"920.847 929.845 OFFCURVE",
"858.857 950.842 CURVE SMOOTH",
"796.867 970.838 OFFCURVE",
"729.879 978.837 OFFCURVE",
"662.89 978.837 CURVE SMOOTH",
"606.899 978.837 OFFCURVE",
"550.908 966.839 OFFCURVE",
"493.918 953.841 CURVE",
"496.917 983.836 OFFCURVE",
"498.917 1012.83 OFFCURVE",
"500.917 1041.83 CURVE SMOOTH",
"501.916 1069.82 OFFCURVE",
"503.916 1097.82 OFFCURVE",
"505.916 1125.81 CURVE SMOOTH",
"508.915 1181.8 OFFCURVE",
"510.915 1236.79 OFFCURVE",
"513.914 1295.78 CURVE",
"596.901 1291.79 OFFCURVE",
"662.89 1290.79 OFFCURVE",
"747.876 1290.79 CURVE SMOOTH",
"867.856 1290.79 OFFCURVE",
"987.836 1294.78 OFFCURVE",
"1112.81 1305.78 CURVE",
"1138.81 1472.75 LINE",
"994.834 1459.76 OFFCURVE",
"867.856 1452.76 OFFCURVE",
"750.875 1452.76 CURVE SMOOTH",
"620.897 1452.76 OFFCURVE",
"491.918 1459.76 OFFCURVE",
"363.939 1473.75 CURVE",
"341.943 1454.76 LINE"
);
}
);
width = 1302;
}
);
unicode = 0035;
},
{
glyphname = six;
layers = (
{
layerId = "101ED48A-DA64-4145-AD97-87CDC2521746";
name = "Bold Italic";
paths = (
{
closed = 1;
nodes = (
"774.871 809.865 OFFCURVE",
"843.86 784.869 OFFCURVE",
"882.853 727.879 CURVE",
"923.846 672.888 OFFCURVE",
"934.844 605.899 OFFCURVE",
"934.844 537.91 CURVE SMOOTH",
"934.844 533.911 OFFCURVE",
"934.844 529.912 OFFCURVE",
"934.844 526.912 CURVE",
"933.845 522.913 OFFCURVE",
"933.845 518.914 OFFCURVE",
"933.845 514.914 CURVE SMOOTH",
"933.845 493.918 LINE",
"926.846 429.928 OFFCURVE",
"889.852 381.936 OFFCURVE",
"838.86 349.942 CURVE SMOOTH",
"786.869 317.947 OFFCURVE",
"722.88 301.95 OFFCURVE",
"663.89 301.95 CURVE SMOOTH",
"604.899 301.95 OFFCURVE",
"541.91 310.948 OFFCURVE",
"493.918 335.944 CURVE SMOOTH",
"444.926 360.94 OFFCURVE",
"409.932 402.933 OFFCURVE",
"409.932 466.922 CURVE SMOOTH",
"409.932 509.915 OFFCURVE",
"418.93 557.907 OFFCURVE",
"434.928 602.9 CURVE SMOOTH",
"450.925 647.892 OFFCURVE",
"473.921 690.885 OFFCURVE",
"504.916 725.879 CURVE SMOOTH",
"557.907 781.87 OFFCURVE",
"630.895 809.865 OFFCURVE",
"702.883 809.865 CURVE SMOOTH"
);
},
{
closed = 1;
nodes = (
"1057.82 1464.76 OFFCURVE",
"965.839 1480.75 OFFCURVE",
"872.855 1480.75 CURVE SMOOTH",
"787.869 1480.75 OFFCURVE",
"697.884 1466.76 OFFCURVE",
"613.898 1435.76 CURVE SMOOTH",
"529.912 1403.77 OFFCURVE",
"450.925 1354.77 OFFCURVE",
"389.935 1285.79 CURVE",
"305.949 1182.8 OFFCURVE",
"256.957 1053.82 OFFCURVE",
"227.962 922.846 CURVE SMOOTH",
"198.967 791.868 OFFCURVE",
"190.968 658.89 OFFCURVE",
"190.968 550.908 CURVE SMOOTH",
"190.968 423.929 OFFCURVE",
"205.966 300.95 OFFCURVE",
"264.956 191.968 CURVE SMOOTH",
"297.95 127.979 OFFCURVE",
"351.941 81.9864 OFFCURVE",
"414.931 52.9912 CURVE SMOOTH",
"477.92 23.996 OFFCURVE",
"548.909 9.99834 OFFCURVE",
"620.897 9.99834 CURVE SMOOTH",
"684.886 9.99834 OFFCURVE",
"751.875 15.9973 OFFCURVE",
"816.864 33.9943 CURVE SMOOTH",
"881.853 51.9913 OFFCURVE",
"942.843 81.9864 OFFCURVE",
"994.834 129.978 CURVE SMOOTH",
"1051.82 184.969 OFFCURVE",
"1088.82 252.958 OFFCURVE",
"1111.81 324.946 CURVE SMOOTH",
"1134.81 396.934 OFFCURVE",
"1142.81 472.921 OFFCURVE",
"1142.81 541.91 CURVE SMOOTH",
"1142.81 597.901 OFFCURVE",
"1137.81 653.891 OFFCURVE",
"1122.81 706.882 CURVE SMOOTH",
"1106.82 758.874 OFFCURVE",
"1082.82 807.866 OFFCURVE",
"1046.83 850.858 CURVE",
"1047.83 849.859 LINE",
"1011.83 896.851 OFFCURVE",
"962.84 928.845 OFFCURVE",
"908.849 949.842 CURVE SMOOTH",
"854.858 970.838 OFFCURVE",
"794.868 979.837 OFFCURVE",
"734.878 979.837 CURVE SMOOTH",
"613.898 979.837 OFFCURVE",
"498.917 924.846 OFFCURVE",
"413.931 836.861 CURVE",
"424.929 895.851 OFFCURVE",
"438.927 955.841 OFFCURVE",
"459.923 1013.83 CURVE SMOOTH",
"480.92 1071.82 OFFCURVE",
"508.915 1126.81 OFFCURVE",
"551.908 1178.8 CURVE SMOOTH",
"588.902 1225.8 OFFCURVE",
"637.894 1254.79 OFFCURVE",
"690.885 1273.79 CURVE SMOOTH",
"742.876 1292.78 OFFCURVE",
"799.867 1299.78 OFFCURVE",
"854.858 1299.78 CURVE SMOOTH",
"939.844 1299.78 OFFCURVE",
"1032.83 1279.79 OFFCURVE",
"1127.81 1240.79 CURVE",
"1134.81 1295.78 OFFCURVE",
"1145.81 1372.77 OFFCURVE",
"1154.81 1427.76 CURVE",
"1136.81 1425.76 LINE",
"1146.81 1441.76 LINE"
);
}
);
width = 1313;
}
);
unicode = 0036;
},
{
glyphname = seven;
layers = (
{
layerId = "101ED48A-DA64-4145-AD97-87CDC2521746";
name = "Bold Italic";
paths = (
{
closed = 1;
nodes = (
"343.943 1443.76 OFFCURVE",
"343.943 1418.76 OFFCURVE",
"343.943 1391.77 CURVE SMOOTH",
"343.943 1364.77 OFFCURVE",
"343.943 1339.78 OFFCURVE",
"342.943 1318.78 CURVE",
"491.918 1300.78 OFFCURVE",
"637.894 1291.79 OFFCURVE",
"781.87 1291.79 CURVE SMOOTH",
"875.854 1291.79 OFFCURVE",
"969.839 1294.78 OFFCURVE",
"1062.82 1300.78 CURVE",
"1011.83 1203.8 OFFCURVE",
"965.839 1113.81 OFFCURVE",
"920.847 1022.83 CURVE SMOOTH",
"875.854 931.845 OFFCURVE",
"830.862 841.86 OFFCURVE",
"782.87 742.876 CURVE SMOOTH",
"726.879 627.896 OFFCURVE",
"666.889 505.916 OFFCURVE",
"605.899 383.936 CURVE SMOOTH",
"544.909 261.956 OFFCURVE",
"481.92 139.977 OFFCURVE",
"420.93 27.9953 CURVE",
"459.923 30.9948 OFFCURVE",
"506.916 32.9945 OFFCURVE",
"554.908 34.9942 CURVE SMOOTH",
"601.9 36.9938 OFFCURVE",
"647.892 36.9938 OFFCURVE",
"686.886 36.9938 CURVE SMOOTH",
"703.883 36.9938 OFFCURVE",
"722.88 36.9938 OFFCURVE",
"743.876 36.9938 CURVE SMOOTH",
"764.873 36.9938 OFFCURVE",
"782.87 36.9938 OFFCURVE",
"799.867 35.994 CURVE",
"834.861 136.977 OFFCURVE",
"875.854 258.957 OFFCURVE",
"908.849 361.94 CURVE SMOOTH",
"1021.83 705.883 OFFCURVE",
"1136.81 1052.82 OFFCURVE",
"1276.79 1388.77 CURVE",
"1284.79 1434.76 LINE",
"1285.79 1438.76 OFFCURVE",
"1287.79 1449.76 OFFCURVE",
"1288.79 1460.76 CURVE",
"1289.79 1465.76 OFFCURVE",
"1289.79 1471.76 OFFCURVE",
"1290.79 1476.75 CURVE SMOOTH",
"1291.79 1481.75 OFFCURVE",
"1291.79 1484.75 OFFCURVE",
"1291.79 1486.75 CURVE",
"1120.81 1464.76 OFFCURVE",
"957.841 1453.76 OFFCURVE",
"802.866 1453.76 CURVE SMOOTH",
"656.891 1453.76 OFFCURVE",
"511.915 1463.76 OFFCURVE",
"366.939 1483.75 CURVE",
"343.943 1464.76 LINE"
);
}
);
width = 1249;
}
);
unicode = 0037;
},
{
glyphname = eight;
layers = (
{
layerId = "101ED48A-DA64-4145-AD97-87CDC2521746";
name = "Bold Italic";
paths = (
{
closed = 1;
nodes = (
"749.875 719.88 OFFCURVE",
"818.864 700.883 OFFCURVE",
"866.856 648.892 CURVE SMOOTH",
"909.849 604.899 OFFCURVE",
"926.846 544.909 OFFCURVE",
"926.846 480.92 CURVE SMOOTH",
"925.846 416.931 OFFCURVE",
"891.852 364.939 OFFCURVE",
"843.86 324.946 CURVE SMOOTH",
"784.869 277.954 OFFCURVE",
"704.883 263.956 OFFCURVE",
"632.895 263.956 CURVE SMOOTH",
"559.907 263.956 OFFCURVE",
"483.919 276.954 OFFCURVE",
"432.928 323.946 CURVE SMOOTH",
"400.933 354.941 OFFCURVE",
"375.937 392.935 OFFCURVE",
"375.937 436.927 CURVE SMOOTH",
"375.937 473.921 OFFCURVE",
"383.936 513.914 OFFCURVE",
"399.933 550.908 CURVE SMOOTH",
"414.931 586.902 OFFCURVE",
"437.927 620.897 OFFCURVE",
"466.922 647.892 CURVE",
"525.912 694.884 OFFCURVE",
"602.9 718.88 OFFCURVE",
"674.888 718.88 CURVE SMOOTH"
);
},
{
closed = 1;
nodes = (
"215.964 627.896 OFFCURVE",
"187.969 576.904 OFFCURVE",
"168.972 521.913 CURVE SMOOTH",
"149.975 466.922 OFFCURVE",
"142.976 409.932 OFFCURVE",
"142.976 356.941 CURVE SMOOTH",
"142.976 260.957 OFFCURVE",
"166.972 167.972 OFFCURVE",
"241.96 107.982 CURVE SMOOTH",
"292.951 66.9889 OFFCURVE",
"352.941 42.9928 OFFCURVE",
"416.931 27.9953 CURVE SMOOTH",
"480.92 12.9978 OFFCURVE",
"546.909 8.9985 OFFCURVE",
"613.898 8.9985 CURVE SMOOTH",
"678.887 8.9985 OFFCURVE",
"746.876 12.9978 OFFCURVE",
"812.865 27.9953 CURVE SMOOTH",
"878.854 42.9928 OFFCURVE",
"942.843 67.9887 OFFCURVE",
"999.834 108.982 CURVE SMOOTH",
"1056.82 148.975 OFFCURVE",
"1093.82 205.966 OFFCURVE",
"1116.81 267.955 CURVE SMOOTH",
"1139.81 329.945 OFFCURVE",
"1148.81 396.934 OFFCURVE",
"1148.81 457.924 CURVE SMOOTH",
"1148.81 541.91 OFFCURVE",
"1121.81 614.898 OFFCURVE",
"1076.82 671.888 CURVE SMOOTH",
"1031.83 728.879 OFFCURVE",
"967.839 770.872 OFFCURVE",
"892.851 793.868 CURVE",
"973.838 814.864 OFFCURVE",
"1036.83 868.855 OFFCURVE",
"1080.82 936.844 CURVE SMOOTH",
"1123.81 1004.83 OFFCURVE",
"1146.81 1086.82 OFFCURVE",
"1146.81 1163.81 CURVE SMOOTH",
"1146.81 1240.79 OFFCURVE",
"1117.81 1316.78 OFFCURVE",
"1061.82 1369.77 CURVE",
"1017.83 1405.77 OFFCURVE",
"964.839 1429.76 OFFCURVE",
"908.849 1443.76 CURVE SMOOTH",
"852.858 1457.76 OFFCURVE",
"793.868 1461.76 OFFCURVE",
"737.877 1461.76 CURVE SMOOTH",
"681.886 1461.76 OFFCURVE",
"621.896 1456.76 OFFCURVE",
"562.906 1442.76 CURVE SMOOTH",
"503.916 1428.76 OFFCURVE",
"447.925 1404.77 OFFCURVE",
"398.934 1368.77 CURVE",
"310.948 1295.78 OFFCURVE",
"270.955 1182.8 OFFCURVE",
"270.955 1077.82 CURVE SMOOTH",
"270.955 1014.83 OFFCURVE",
"287.952 954.841 OFFCURVE",
"318.947 903.85 CURVE SMOOTH",
"349.942 852.858 OFFCURVE",
"395.934 811.865 OFFCURVE",
"452.925 790.868 CURVE",
"379.937 767.872 OFFCURVE",
"310.948 727.879 OFFCURVE",
"257.957 670.888 CURVE",
"258.957 670.888 LINE"
);
},
{
closed = 1;
nodes = (
"466.922 1213.8 OFFCURVE",
"501.916 1263.79 OFFCURVE",
"551.908 1296.78 CURVE SMOOTH",
"601.9 1329.78 OFFCURVE",
"664.889 1346.78 OFFCURVE",
"724.879 1346.78 CURVE SMOOTH",
"781.87 1346.78 OFFCURVE",
"840.86 1335.78 OFFCURVE",
"885.853 1308.78 CURVE SMOOTH",
"929.845 1280.79 OFFCURVE",
"960.84 1236.79 OFFCURVE",
"960.84 1171.8 CURVE SMOOTH",
"960.84 1103.82 OFFCURVE",
"931.845 1040.83 OFFCURVE",
"886.852 995.834 CURVE SMOOTH",
"841.86 950.842 OFFCURVE",
"778.87 922.846 OFFCURVE",
"711.882 922.846 CURVE SMOOTH",
"708.882 922.846 OFFCURVE",
"704.883 922.846 OFFCURVE",
"701.883 922.846 CURVE SMOOTH",
"697.884 922.846 OFFCURVE",
"693.885 922.846 OFFCURVE",
"690.885 923.846 CURVE",
"686.886 922.846 OFFCURVE",
"682.886 922.846 OFFCURVE",
"679.887 922.846 CURVE SMOOTH",
"675.888 922.846 OFFCURVE",
"671.888 922.846 OFFCURVE",
"668.889 922.846 CURVE SMOOTH",
"613.898 922.846 OFFCURVE",
"562.906 943.843 OFFCURVE",
"523.913 977.837 CURVE SMOOTH",
"484.919 1011.83 OFFCURVE",
"460.923 1058.82 OFFCURVE",
"460.923 1113.81 CURVE SMOOTH",
"460.923 1122.81 OFFCURVE",
"461.923 1132.81 OFFCURVE",
"463.923 1144.81 CURVE",
"463.923 1146.81 LINE"
);
}
);
width = 1332;
}
);
unicode = 0038;
},
{
glyphname = nine;
layers = (
{
layerId = "101ED48A-DA64-4145-AD97-87CDC2521746";
name = "Bold Italic";
paths = (
{
closed = 1;
nodes = (
"611.898 7.99867 OFFCURVE",
"699.883 20.9965 OFFCURVE",
"782.87 51.9913 CURVE SMOOTH",
"865.856 82.9862 OFFCURVE",
"941.843 130.978 OFFCURVE",
"1002.83 201.966 CURVE SMOOTH",
"1083.82 302.95 OFFCURVE",
"1133.81 429.928 OFFCURVE",
"1163.81 558.907 CURVE SMOOTH",
"1193.8 686.886 OFFCURVE",
"1202.8 818.864 OFFCURVE",
"1202.8 927.846 CURVE SMOOTH",
"1202.8 1056.82 OFFCURVE",
"1186.8 1185.8 OFFCURVE",
"1123.81 1306.78 CURVE",
"1088.82 1366.77 OFFCURVE",
"1034.83 1410.77 OFFCURVE",
"973.838 1438.76 CURVE SMOOTH",
"912.848 1466.76 OFFCURVE",
"841.86 1479.75 OFFCURVE",
"773.871 1479.75 CURVE SMOOTH",
"708.882 1479.75 OFFCURVE",
"640.893 1473.75 OFFCURVE",
"576.904 1455.76 CURVE SMOOTH",
"512.915 1437.76 OFFCURVE",
"451.925 1406.77 OFFCURVE",
"398.934 1357.77 CURVE SMOOTH",
"339.943 1304.78 OFFCURVE",
"304.949 1238.79 OFFCURVE",
"282.953 1167.81 CURVE SMOOTH",
"260.957 1095.82 OFFCURVE",
"252.958 1020.83 OFFCURVE",
"252.958 951.842 CURVE SMOOTH",
"252.958 838.86 OFFCURVE",
"273.954 723.88 OFFCURVE",
"345.942 638.894 CURVE",
"345.942 639.893 LINE",
"381.936 592.901 OFFCURVE",
"431.928 559.907 OFFCURVE",
"485.919 539.91 CURVE SMOOTH",
"539.91 518.914 OFFCURVE",
"598.9 509.915 OFFCURVE",
"658.89 509.915 CURVE SMOOTH",
"779.87 509.915 OFFCURVE",
"893.851 563.906 OFFCURVE",
"977.837 651.891 CURVE",
"968.839 599.9 OFFCURVE",
"958.84 544.909 OFFCURVE",
"940.843 495.917 CURVE SMOOTH",
"922.846 446.926 OFFCURVE",
"895.851 400.933 OFFCURVE",
"852.858 365.939 CURVE",
"854.858 367.939 LINE",
"763.873 311.948 OFFCURVE",
"654.891 301.95 OFFCURVE",
"555.907 301.95 CURVE SMOOTH",
"467.922 301.95 OFFCURVE",
"376.937 322.946 OFFCURVE",
"281.953 363.939 CURVE",
"278.954 340.943 OFFCURVE",
"275.954 315.947 OFFCURVE",
"272.955 290.952 CURVE SMOOTH",
"269.955 264.956 OFFCURVE",
"265.956 238.96 OFFCURVE",
"262.956 212.965 CURVE SMOOTH",
"255.957 159.973 OFFCURVE",
"247.959 107.982 OFFCURVE",
"239.96 60.9898 CURVE",
"263.956 58.9902 LINE",
"248.959 48.9918 LINE",
"339.943 21.9963 OFFCURVE",
"432.928 7.99867 OFFCURVE",
"526.912 7.99867 CURVE SMOOTH"
);
},
{
closed = 1;
nodes = (
"606.899 811.865 OFFCURVE",
"526.912 816.864 OFFCURVE",
"454.924 845.859 CURVE SMOOTH",
"426.929 857.857 OFFCURVE",
"408.932 881.853 OFFCURVE",
"398.934 909.849 CURVE SMOOTH",
"388.935 937.844 OFFCURVE",
"384.936 970.838 OFFCURVE",
"384.936 1001.83 CURVE SMOOTH",
"384.936 1046.83 OFFCURVE",
"392.935 1094.82 OFFCURVE",
"408.932 1139.81 CURVE SMOOTH",
"424.929 1183.8 OFFCURVE",
"450.925 1225.8 OFFCURVE",
"486.919 1257.79 CURVE SMOOTH",
"553.908 1313.78 OFFCURVE",
"641.893 1338.78 OFFCURVE",
"725.879 1338.78 CURVE SMOOTH",
"817.864 1338.78 OFFCURVE",
"908.849 1320.78 OFFCURVE",
"969.839 1257.79 CURVE SMOOTH",
"1014.83 1213.8 OFFCURVE",
"1030.83 1150.81 OFFCURVE",
"1030.83 1083.82 CURVE SMOOTH",
"1030.83 1047.83 OFFCURVE",
"1027.83 996.834 OFFCURVE",
"1012.83 951.842 CURVE SMOOTH",
"997.834 906.849 OFFCURVE",
"971.838 864.856 OFFCURVE",
"926.846 847.859 CURVE SMOOTH",
"850.858 816.864 OFFCURVE",
"767.872 810.865 OFFCURVE",
"687.885 810.865 CURVE SMOOTH"
);
}
);
width = 1312;
}
);
unicode = 0039;
},
{
glyphname = colon;
layers = (
{
layerId = "101ED48A-DA64-4145-AD97-87CDC2521746";
name = "Bold Italic";
paths = (
{
closed = 1;
nodes = (
"197.967 287.952 OFFCURVE",
"195.967 262.956 OFFCURVE",
"192.968 236.961 CURVE SMOOTH",
"187.969 183.969 OFFCURVE",
"181.97 128.979 OFFCURVE",
"174.971 76.9872 CURVE SMOOTH",
"171.971 49.9917 OFFCURVE",
"168.972 24.9958 OFFCURVE",
"165.972 1.99967 CURVE",
"221.963 18.9968 OFFCURVE",
"271.955 28.9952 OFFCURVE",
"311.948 28.9952 CURVE SMOOTH",
"347.942 28.9952 OFFCURVE",
"391.935 19.9967 OFFCURVE",
"442.926 0.999834 CURVE",
"445.926 47.992 OFFCURVE",
"448.925 105.982 OFFCURVE",
"452.925 162.973 CURVE SMOOTH",
"454.924 191.968 OFFCURVE",
"456.924 219.963 OFFCURVE",
"458.924 247.959 CURVE",
"459.923 275.954 OFFCURVE",
"461.923 301.95 OFFCURVE",
"463.923 324.946 CURVE",
"416.931 332.945 OFFCURVE",
"373.938 336.944 OFFCURVE",
"335.944 336.944 CURVE SMOOTH",
"294.951 336.944 OFFCURVE",
"255.957 332.945 OFFCURVE",
"216.964 327.945 CURVE",
"199.967 310.948 LINE"
);
},
{
closed = 1;
nodes = (
"254.958 968.839 OFFCURVE",
"252.958 937.844 OFFCURVE",
"250.958 904.849 CURVE SMOOTH",
"248.959 870.855 OFFCURVE",
"246.959 838.86 OFFCURVE",
"243.959 808.865 CURVE",
"292.951 797.867 OFFCURVE",
"334.944 791.868 OFFCURVE",
"373.938 791.868 CURVE SMOOTH",
"414.931 791.868 OFFCURVE",
"458.924 796.867 OFFCURVE",
"507.915 805.866 CURVE",
"511.915 849.859 OFFCURVE",
"517.914 903.85 OFFCURVE",
"523.913 959.84 CURVE SMOOTH",
"529.912 1014.83 OFFCURVE",
"535.911 1068.82 OFFCURVE",
"540.91 1112.81 CURVE",
"481.92 1091.82 OFFCURVE",
"432.928 1079.82 OFFCURVE",
"395.934 1079.82 CURVE SMOOTH",
"357.94 1079.82 OFFCURVE",
"322.946 1086.82 OFFCURVE",
"289.952 1099.82 CURVE",
"262.956 1083.82 LINE",
"256.957 997.834 LINE SMOOTH"
);
}
);
width = 710;
}
);
unicode = 003A;
},
{
glyphname = semicolon;
layers = (
{
layerId = "101ED48A-DA64-4145-AD97-87CDC2521746";
name = "Bold Italic";
paths = (
{
closed = 1;
nodes = (
"255.957 1039.83 OFFCURVE",
"254.958 1023.83 OFFCURVE",
"253.958 1006.83 CURVE SMOOTH",
"252.958 989.835 OFFCURVE",
"250.958 972.838 OFFCURVE",
"249.958 957.841 CURVE SMOOTH",
"247.959 930.845 OFFCURVE",
"245.959 900.85 OFFCURVE",
"243.959 867.856 CURVE SMOOTH",
"240.96 834.861 OFFCURVE",
"237.96 804.866 OFFCURVE",
"234.961 776.871 CURVE",
"275.954 772.871 OFFCURVE",
"296.951 772.871 OFFCURVE",
"319.947 772.871 CURVE SMOOTH",
"367.939 772.871 OFFCURVE",
"420.93 777.871 OFFCURVE",
"484.919 794.868 CURVE",
"492.918 878.854 OFFCURVE",
"502.916 975.838 OFFCURVE",
"513.914 1059.82 CURVE",
"515.914 1104.82 LINE",
"447.925 1079.82 OFFCURVE",
"391.935 1068.82 OFFCURVE",
"340.943 1068.82 CURVE SMOOTH",
"320.947 1068.82 OFFCURVE",
"299.95 1069.82 OFFCURVE",
"278.954 1072.82 CURVE",
"256.957 1055.82 LINE"
);
},
{
closed = 1;
nodes = (
"192.968 230.962 OFFCURVE",
"190.968 213.964 OFFCURVE",
"189.968 193.968 CURVE SMOOTH",
"188.969 173.971 OFFCURVE",
"186.969 156.974 OFFCURVE",
"185.969 142.976 CURVE",
"182.97 115.981 OFFCURVE",
"180.97 87.9854 OFFCURVE",
"177.97 58.9902 CURVE",
"143.976 -38 LINE SMOOTH",
"128.979 -79 OFFCURVE",
"111.981 -129 OFFCURVE",
"94.9842 -180 CURVE SMOOTH",
"85.9857 -206 OFFCURVE",
"77.987 -231 OFFCURVE",
"69.9883 -255 CURVE SMOOTH",
"60.9898 -280 OFFCURVE",
"53.991 -302 OFFCURVE",
"46.9922 -323 CURVE",
"110.982 -299 OFFCURVE",
"165.972 -288 OFFCURVE",
"210.965 -285 CURVE",
"228.962 -255 OFFCURVE",
"247.959 -224 OFFCURVE",
"268.955 -191 CURVE SMOOTH",
"288.952 -158 OFFCURVE",
"307.949 -127 OFFCURVE",
"326.946 -97 CURVE SMOOTH",
"412.931 45.9923 LINE",
"418.93 122.98 LINE SMOOTH",
"419.93 139.977 OFFCURVE",
"421.93 158.974 OFFCURVE",
"423.929 181.97 CURVE",
"424.929 203.966 OFFCURVE",
"426.929 223.963 OFFCURVE",
"427.929 240.96 CURVE",
"370.938 245.959 OFFCURVE",
"326.946 246.959 OFFCURVE",
"286.952 246.959 CURVE SMOOTH",
"279.953 246.959 OFFCURVE",
"273.954 246.959 OFFCURVE",
"267.955 246.959 CURVE",
"261.956 245.959 OFFCURVE",
"255.957 245.959 OFFCURVE",
"248.959 245.959 CURVE SMOOTH",
"193.968 245.959 LINE"
);
}
);
width = 670;
}
);
unicode = 003B;
},
{
glyphname = less;
layers = (
{
layerId = "101ED48A-DA64-4145-AD97-87CDC2521746";
name = "Bold Italic";
paths = (
{
closed = 1;
nodes = (
"1456.76 993.835 OFFCURVE",
"1461.76 1008.83 OFFCURVE",
"1466.76 1025.83 CURVE SMOOTH",
"1477.75 1059.82 OFFCURVE",
"1488.75 1095.82 OFFCURVE",
"1500.75 1128.81 CURVE",
"1505.75 1145.81 OFFCURVE",
"1510.75 1159.81 OFFCURVE",
"1514.75 1172.8 CURVE",
"1341.78 1116.81 OFFCURVE",
"1149.81 1062.82 OFFCURVE",
"956.841 1010.83 CURVE SMOOTH",
"763.873 958.84 OFFCURVE",
"569.905 909.849 OFFCURVE",
"393.934 866.856 CURVE SMOOTH",
"206.966 820.863 LINE",
"205.966 803.866 OFFCURVE",
"203.966 784.869 OFFCURVE",
"200.967 765.872 CURVE SMOOTH",
"195.967 725.879 OFFCURVE",
"189.968 684.886 OFFCURVE",
"182.97 644.893 CURVE SMOOTH",
"179.97 624.896 OFFCURVE",
"176.971 606.899 OFFCURVE",
"173.971 589.902 CURVE",
"366.939 489.918 OFFCURVE",
"577.904 386.936 OFFCURVE",
"774.871 290.952 CURVE SMOOTH",
"859.857 249.958 OFFCURVE",
"952.841 203.966 OFFCURVE",
"1045.83 158.974 CURVE SMOOTH",
"1137.81 113.981 OFFCURVE",
"1230.8 67.9887 OFFCURVE",
"1314.78 23.996 CURVE",
"1314.78 119.98 OFFCURVE",
"1317.78 202.966 OFFCURVE",
"1324.78 279.953 CURVE",
"1151.81 368.939 OFFCURVE",
"961.84 461.923 OFFCURVE",
"785.869 545.909 CURVE SMOOTH",
"459.923 704.883 LINE",
"631.895 747.876 OFFCURVE",
"791.868 787.869 OFFCURVE",
"951.842 829.862 CURVE SMOOTH",
"1110.82 871.855 OFFCURVE",
"1269.79 914.848 OFFCURVE",
"1440.76 966.839 CURVE",
"1453.76 980.837 LINE"
);
}
);
width = 1577;
}
);
unicode = 003C;
},
{
glyphname = equal;
layers = (
{
layerId = "101ED48A-DA64-4145-AD97-87CDC2521746";
name = "Bold Italic";
paths = (
{
closed = 1;
nodes = (
"236.961 861.857 OFFCURVE",
"241.96 807.866 OFFCURVE",
"244.959 750.875 CURVE",
"240.96 750.875 OFFCURVE",
"444.926 748.875 OFFCURVE",
"633.894 748.875 CURVE SMOOTH",
"836.861 748.875 OFFCURVE",
"1049.83 750.875 OFFCURVE",
"1252.79 750.875 CURVE",
"1252.79 750.875 LINE SMOOTH",
"1252.79 750.875 OFFCURVE",
"1252.79 750.875 OFFCURVE",
"1440.76 750.875 CURVE",
"1453.76 810.865 OFFCURVE",
"1473.75 872.855 OFFCURVE",
"1500.75 935.844 CURVE",
"1287.79 928.845 OFFCURVE",
"1047.83 923.846 OFFCURVE",
"834.861 923.846 CURVE SMOOTH",
"635.894 923.846 OFFCURVE",
"439.927 926.846 OFFCURVE",
"242.96 934.844 CURVE",
"225.962 910.848 LINE"
);
},
{
closed = 1;
nodes = (
"212.965 490.918 OFFCURVE",
"195.967 426.929 OFFCURVE",
"164.973 351.941 CURVE",
"268.955 354.941 OFFCURVE",
"380.937 357.94 OFFCURVE",
"492.918 359.94 CURVE SMOOTH",
"603.899 361.94 OFFCURVE",
"715.881 362.94 OFFCURVE",
"819.864 362.94 CURVE SMOOTH",
"1022.83 362.94 OFFCURVE",
"1246.79 358.94 OFFCURVE",
"1447.76 351.941 CURVE",
"1428.76 423.929 OFFCURVE",
"1420.76 494.918 OFFCURVE",
"1420.76 566.906 CURVE",
"1423.76 566.906 OFFCURVE",
"1231.79 567.905 OFFCURVE",
"1056.82 567.905 CURVE SMOOTH",
"843.86 567.905 OFFCURVE",
"633.894 566.906 OFFCURVE",
"421.93 566.906 CURVE SMOOTH",
"421.93 566.906 LINE SMOOTH",
"421.93 566.906 OFFCURVE",
"421.93 566.906 OFFCURVE",
"246.959 566.906 CURVE",
"223.963 550.908 LINE"
);
}
);
width = 1644;
}
);
unicode = 003D;
},
{
glyphname = greater;
layers = (
{
layerId = "101ED48A-DA64-4145-AD97-87CDC2521746";
name = "Bold Italic";
paths = (
{
closed = 1;
nodes = (
"392.935 1035.83 OFFCURVE",
"480.92 991.835 OFFCURVE",
"569.905 948.842 CURVE SMOOTH",
"745.876 862.856 OFFCURVE",
"891.852 791.868 OFFCURVE",
"1000.83 739.877 CURVE SMOOTH",
"1055.82 712.881 OFFCURVE",
"1109.82 685.886 OFFCURVE",
"1164.81 657.891 CURVE",
"927.846 597.901 LINE SMOOTH",
"679.887 533.911 OFFCURVE",
"427.929 467.922 OFFCURVE",
"180.97 395.934 CURVE",
"171.971 358.94 OFFCURVE",
"161.973 322.946 OFFCURVE",
"149.975 280.953 CURVE SMOOTH",
"137.977 238.96 OFFCURVE",
"123.979 191.968 OFFCURVE",
"103.983 135.977 CURVE",
"279.953 190.968 OFFCURVE",
"464.923 243.959 OFFCURVE",
"650.892 293.951 CURVE SMOOTH",
"836.861 343.943 OFFCURVE",
"1022.83 390.935 OFFCURVE",
"1199.8 434.928 CURVE SMOOTH",
"1409.77 487.919 LINE",
"1417.76 566.906 OFFCURVE",
"1429.76 643.893 OFFCURVE",
"1444.76 720.88 CURVE",
"1277.79 804.866 OFFCURVE",
"1097.82 892.851 OFFCURVE",
"928.845 975.838 CURVE SMOOTH",
"828.862 1023.83 OFFCURVE",
"722.88 1076.82 OFFCURVE",
"616.897 1129.81 CURVE SMOOTH",
"510.915 1181.8 OFFCURVE",
"404.933 1234.79 OFFCURVE",
"305.949 1285.79 CURVE",
"305.949 1277.79 OFFCURVE",
"305.949 1268.79 OFFCURVE",
"304.949 1257.79 CURVE SMOOTH",
"303.949 1246.79 OFFCURVE",
"303.949 1234.79 OFFCURVE",
"302.95 1223.8 CURVE",
"301.95 1199.8 OFFCURVE",
"299.95 1175.8 OFFCURVE",
"298.95 1159.81 CURVE",
"297.95 1149.81 OFFCURVE",
"296.951 1139.81 OFFCURVE",
"296.951 1129.81 CURVE",
"295.951 1119.81 OFFCURVE",
"295.951 1109.82 OFFCURVE",
"294.951 1099.82 CURVE",
"305.949 1081.82 LINE"
);
}
);
width = 1573;
}
);
unicode = 003E;
},
{
glyphname = question;
layers = (
{
layerId = "101ED48A-DA64-4145-AD97-87CDC2521746";
name = "Bold Italic";
paths = (
{
closed = 1;
nodes = (
"407.932 248.959 OFFCURVE",
"402.933 202.966 OFFCURVE",
"396.934 155.974 CURVE SMOOTH",
"390.935 107.982 OFFCURVE",
"383.936 59.99 OFFCURVE",
"378.937 18.9968 CURVE",
"446.926 22.9962 OFFCURVE",
"534.911 26.9955 OFFCURVE",
"601.9 26.9955 CURVE SMOOTH",
"659.89 26.9955 LINE",
"660.89 47.992 OFFCURVE",
"662.89 70.9882 OFFCURVE",
"664.889 97.9837 CURVE",
"665.889 123.979 OFFCURVE",
"667.889 146.976 OFFCURVE",
"669.888 167.972 CURVE SMOOTH",
"680.887 314.948 LINE",
"621.896 314.948 LINE SMOOTH",
"557.907 314.948 OFFCURVE",
"493.918 312.948 OFFCURVE",
"430.928 309.948 CURVE",
"411.931 291.951 LINE"
);
},
{
closed = 1;
nodes = (
"696.884 439.927 OFFCURVE",
"697.884 449.925 OFFCURVE",
"698.884 459.923 CURVE",
"698.884 469.922 OFFCURVE",
"698.884 479.92 OFFCURVE",
"699.883 489.918 CURVE",
"702.883 545.909 OFFCURVE",
"705.883 604.899 OFFCURVE",
"724.879 656.891 CURVE",
"731.878 672.888 OFFCURVE",
"738.877 685.886 OFFCURVE",
"749.875 698.884 CURVE",
"759.874 712.881 LINE SMOOTH",
"764.873 719.88 OFFCURVE",
"770.872 726.879 OFFCURVE",
"775.871 734.878 CURVE",
"780.87 741.877 OFFCURVE",
"785.869 749.875 OFFCURVE",
"790.868 756.874 CURVE SMOOTH",
"800.867 771.872 LINE",
"879.854 852.858 LINE SMOOTH",
"927.846 903.85 OFFCURVE",
"976.837 954.841 OFFCURVE",
"1012.83 1011.83 CURVE SMOOTH",
"1048.83 1068.82 OFFCURVE",
"1072.82 1131.81 OFFCURVE",
"1072.82 1206.8 CURVE SMOOTH",
"1072.82 1279.79 OFFCURVE",
"1050.83 1350.78 OFFCURVE",
"995.834 1398.77 CURVE SMOOTH",
"958.84 1431.76 OFFCURVE",
"913.848 1451.76 OFFCURVE",
"865.856 1463.76 CURVE SMOOTH",
"817.864 1475.75 OFFCURVE",
"766.872 1478.75 OFFCURVE",
"717.88 1478.75 CURVE SMOOTH",
"589.902 1478.75 OFFCURVE",
"457.924 1450.76 OFFCURVE",
"328.945 1394.77 CURVE",
"328.945 1387.77 OFFCURVE",
"328.945 1378.77 OFFCURVE",
"327.945 1367.77 CURVE SMOOTH",
"326.946 1356.77 OFFCURVE",
"326.946 1346.78 OFFCURVE",
"326.946 1339.78 CURVE SMOOTH",
"326.946 1332.78 OFFCURVE",
"326.946 1323.78 OFFCURVE",
"325.946 1312.78 CURVE SMOOTH",
"324.946 1301.78 OFFCURVE",
"324.946 1289.79 OFFCURVE",
"324.946 1278.79 CURVE",
"323.946 1254.79 OFFCURVE",
"321.946 1230.8 OFFCURVE",
"320.947 1217.8 CURVE",
"379.937 1248.79 OFFCURVE",
"440.927 1277.79 OFFCURVE",
"500.917 1298.78 CURVE SMOOTH",
"560.907 1318.78 OFFCURVE",
"618.897 1331.78 OFFCURVE",
"673.888 1331.78 CURVE SMOOTH",
"725.879 1331.78 OFFCURVE",
"774.871 1315.78 OFFCURVE",
"810.865 1284.79 CURVE SMOOTH",
"846.859 1252.79 OFFCURVE",
"868.855 1208.8 OFFCURVE",
"868.855 1152.81 CURVE SMOOTH",
"868.855 1119.81 OFFCURVE",
"847.859 1086.82 OFFCURVE",
"818.864 1055.82 CURVE SMOOTH",
"789.869 1024.83 OFFCURVE",
"753.875 996.834 OFFCURVE",
"722.88 972.838 CURVE SMOOTH",
"707.882 960.84 LINE",
"658.89 918.847 LINE",
"649.892 911.848 OFFCURVE",
"641.893 905.849 OFFCURVE",
"634.894 898.85 CURVE",
"626.896 891.852 OFFCURVE",
"618.897 885.853 OFFCURVE",
"609.898 878.854 CURVE",
"562.906 835.861 OFFCURVE",
"516.914 789.869 OFFCURVE",
"485.919 728.879 CURVE",
"450.925 649.892 OFFCURVE",
"444.926 570.905 OFFCURVE",
"437.927 490.918 CURVE SMOOTH",
"429.928 407.932 LINE",
"505.916 410.932 OFFCURVE",
"600.9 412.931 OFFCURVE",
"675.888 412.931 CURVE",
"695.884 429.928 LINE"
);
}
);
width = 1091;
}
);
unicode = 003F;
},
{
glyphname = at;
layers = (
{
layerId = "101ED48A-DA64-4145-AD97-87CDC2521746";
name = "Bold Italic";
paths = (
{
closed = 1;
nodes = (
"733.878 682.886 OFFCURVE",
"753.875 748.875 OFFCURVE",
"804.866 796.867 CURVE SMOOTH",
"851.858 840.86 OFFCURVE",
"913.848 861.857 OFFCURVE",
"976.837 861.857 CURVE SMOOTH",
"1037.83 861.857 OFFCURVE",
"1091.82 842.86 OFFCURVE",
"1130.81 807.866 CURVE SMOOTH",
"1169.81 772.871 OFFCURVE",
"1191.8 719.88 OFFCURVE",
"1191.8 654.891 CURVE SMOOTH",
"1191.8 575.904 OFFCURVE",
"1171.8 495.917 OFFCURVE",
"1111.81 435.927 CURVE SMOOTH",
"1066.82 388.935 OFFCURVE",
"1000.83 371.938 OFFCURVE",
"940.843 371.938 CURVE SMOOTH",
"876.854 371.938 OFFCURVE",
"823.863 389.935 OFFCURVE",
"785.869 425.929 CURVE SMOOTH",
"747.876 461.923 OFFCURVE",
"724.879 513.914 OFFCURVE",
"724.879 581.903 CURVE SMOOTH",
"724.879 592.901 OFFCURVE",
"725.879 604.899 OFFCURVE",
"726.879 615.897 CURVE SMOOTH"
);
},
{
closed = 1;
nodes = (
"1266.79 106.982 OFFCURVE",
"1346.78 118.98 OFFCURVE",
"1422.76 142.976 CURVE SMOOTH",
"1497.75 165.972 OFFCURVE",
"1567.74 201.966 OFFCURVE",
"1623.73 250.958 CURVE",
"1687.72 314.948 OFFCURVE",
"1732.71 396.934 OFFCURVE",
"1762.71 482.92 CURVE SMOOTH",
"1792.7 568.905 OFFCURVE",
"1805.7 658.89 OFFCURVE",
"1805.7 739.877 CURVE SMOOTH",
"1805.7 886.852 OFFCURVE",
"1767.71 1008.83 OFFCURVE",
"1704.72 1105.82 CURVE SMOOTH",
"1640.73 1202.8 OFFCURVE",
"1549.74 1276.79 OFFCURVE",
"1445.76 1325.78 CURVE SMOOTH",
"1340.78 1373.77 OFFCURVE",
"1219.8 1397.77 OFFCURVE",
"1095.82 1397.77 CURVE SMOOTH",
"978.837 1397.77 OFFCURVE",
"858.857 1378.77 OFFCURVE",
"746.876 1338.78 CURVE SMOOTH",
"633.894 1298.78 OFFCURVE",
"524.913 1239.79 OFFCURVE",
"431.928 1159.81 CURVE",
"332.945 1064.82 OFFCURVE",
"262.956 948.842 OFFCURVE",
"217.964 824.863 CURVE SMOOTH",
"172.971 700.883 OFFCURVE",
"151.975 569.905 OFFCURVE",
"151.975 444.926 CURVE SMOOTH",
"151.975 349.942 OFFCURVE",
"163.973 254.958 OFFCURVE",
"191.968 166.972 CURVE SMOOTH",
"219.963 78.9869 OFFCURVE",
"262.956 -3 OFFCURVE",
"326.946 -71 CURVE",
"326.946 -70 LINE",
"397.934 -153 OFFCURVE",
"489.918 -210 OFFCURVE",
"591.901 -249 CURVE SMOOTH",
"693.885 -288 OFFCURVE",
"804.866 -305 OFFCURVE",
"915.848 -305 CURVE SMOOTH",
"1110.82 -305 OFFCURVE",
"1312.78 -244 OFFCURVE",
"1489.75 -119 CURVE",
"1483.75 -106 OFFCURVE",
"1476.75 -92 OFFCURVE",
"1468.76 -75 CURVE SMOOTH",
"1460.76 -58 OFFCURVE",
"1452.76 -41 OFFCURVE",
"1445.76 -23 CURVE",
"1429.76 11.998 OFFCURVE",
"1414.76 46.9922 OFFCURVE",
"1403.77 73.9877 CURVE",
"1255.79 -31 OFFCURVE",
"1089.82 -74 OFFCURVE",
"934.844 -75 CURVE SMOOTH",
"847.859 -74 OFFCURVE",
"761.873 -66 OFFCURVE",
"682.886 -42 CURVE SMOOTH",
"602.9 -18 OFFCURVE",
"530.912 21.9963 OFFCURVE",
"474.921 86.9855 CURVE",
"475.921 85.9857 LINE",
"419.93 153.974 OFFCURVE",
"365.939 223.963 OFFCURVE",
"328.945 303.949 CURVE",
"328.945 302.95 LINE",
"307.949 350.942 OFFCURVE",
"300.95 404.933 OFFCURVE",
"300.95 460.923 CURVE SMOOTH",
"300.95 587.902 OFFCURVE",
"327.945 718.88 OFFCURVE",
"384.936 835.861 CURVE SMOOTH",
"440.927 952.841 OFFCURVE",
"526.912 1054.82 OFFCURVE",
"643.893 1125.81 CURVE SMOOTH",
"774.871 1205.8 OFFCURVE",
"922.846 1241.79 OFFCURVE",
"1070.82 1241.79 CURVE SMOOTH",
"1170.81 1241.79 OFFCURVE",
"1269.79 1221.8 OFFCURVE",
"1357.77 1181.8 CURVE SMOOTH",
"1445.76 1141.81 OFFCURVE",
"1522.75 1081.82 OFFCURVE",
"1578.74 1002.83 CURVE",
"1577.74 1002.83 LINE",
"1629.73 919.847 OFFCURVE",
"1653.72 822.863 OFFCURVE",
"1653.72 722.88 CURVE SMOOTH",
"1653.72 666.889 OFFCURVE",
"1647.73 606.899 OFFCURVE",
"1631.73 547.909 CURVE SMOOTH",
"1615.73 488.919 OFFCURVE",
"1589.74 431.928 OFFCURVE",
"1552.74 382.936 CURVE SMOOTH",
"1501.75 318.947 OFFCURVE",
"1430.76 279.953 OFFCURVE",
"1353.77 264.956 CURVE",
"1368.77 497.917 OFFCURVE",
"1391.77 723.88 OFFCURVE",
"1418.76 956.841 CURVE",
"1409.77 956.841 OFFCURVE",
"1397.77 956.841 OFFCURVE",
"1384.77 956.841 CURVE",
"1370.77 955.841 OFFCURVE",
"1356.77 955.841 OFFCURVE",
"1341.78 955.841 CURVE",
"1326.78 954.841 OFFCURVE",
"1312.78 954.841 OFFCURVE",
"1299.78 954.841 CURVE",
"1285.79 953.841 OFFCURVE",
"1273.79 953.841 OFFCURVE",
"1264.79 953.841 CURVE",
"1263.79 939.844 OFFCURVE",
"1261.79 922.846 OFFCURVE",
"1260.79 903.85 CURVE",
"1258.79 883.853 OFFCURVE",
"1256.79 866.856 OFFCURVE",
"1255.79 852.858 CURVE",
"1255.79 844.859 LINE",
"1190.8 920.847 OFFCURVE",
"1097.82 970.838 OFFCURVE",
"990.835 970.838 CURVE SMOOTH",
"883.853 970.838 OFFCURVE",
"781.87 934.844 OFFCURVE",
"705.883 850.858 CURVE",
"657.891 801.867 OFFCURVE",
"625.896 740.877 OFFCURVE",
"605.899 677.887 CURVE SMOOTH",
"585.902 613.898 OFFCURVE",
"576.904 546.909 OFFCURVE",
"576.904 483.919 CURVE SMOOTH",
"576.904 392.935 OFFCURVE",
"599.9 301.95 OFFCURVE",
"652.891 230.962 CURVE SMOOTH",
"713.881 149.975 OFFCURVE",
"815.864 111.981 OFFCURVE",
"919.847 111.981 CURVE SMOOTH",
"1023.83 111.981 OFFCURVE",
"1123.81 159.973 OFFCURVE",
"1200.8 232.961 CURVE",
"1198.8 207.965 LINE",
"1190.8 106.982 LINE"
);
}
);
width = 1933;
}
);
unicode = 0040;
},
{
glyphname = A;
layers = (
{
layerId = "101ED48A-DA64-4145-AD97-87CDC2521746";
name = "Bold Italic";
paths = (
{
closed = 1;
nodes = (
"825.863 1238.79 LINE",
"824.863 1247.79 OFFCURVE",
"822.863 1257.79 OFFCURVE",
"819.864 1266.79 CURVE SMOOTH",
"816.864 1275.79 OFFCURVE",
"814.864 1284.79 OFFCURVE",
"812.865 1293.78 CURVE",
"848.859 1290.79 LINE"
);
},
{
closed = 1;
nodes = (
"918.847 847.859 OFFCURVE",
"934.844 779.87 OFFCURVE",
"950.842 711.882 CURVE SMOOTH",
"965.839 643.893 OFFCURVE",
"982.836 575.904 OFFCURVE",
"999.834 506.916 CURVE",
"892.851 506.916 LINE SMOOTH",
"870.855 506.916 OFFCURVE",
"848.859 506.916 OFFCURVE",
"826.862 507.915 CURVE",
"803.866 507.915 OFFCURVE",
"781.87 507.915 OFFCURVE",
"759.874 507.915 CURVE SMOOTH",
"719.88 507.915 OFFCURVE",
"680.887 507.915 OFFCURVE",
"642.893 507.915 CURVE SMOOTH",
"603.899 507.915 OFFCURVE",
"564.906 507.915 OFFCURVE",
"524.913 506.916 CURVE",
"587.902 655.891 OFFCURVE",
"644.893 793.868 OFFCURVE",
"705.883 941.843 CURVE SMOOTH",
"825.863 1238.79 LINE",
"838.86 1184.8 OFFCURVE",
"851.858 1130.81 OFFCURVE",
"864.856 1077.82 CURVE SMOOTH",
"876.854 1024.83 OFFCURVE",
"888.852 970.838 OFFCURVE",
"901.85 916.847 CURVE SMOOTH"
);
},
{
closed = 1;
nodes = (
"678.887 1313.78 OFFCURVE",
"604.899 1151.81 OFFCURVE",
"537.91 1007.83 CURVE SMOOTH",
"388.935 683.886 OFFCURVE",
"230.962 343.943 OFFCURVE",
"33.9943 6.99884 CURVE",
"54.9908 8.9985 OFFCURVE",
"77.987 10.9982 OFFCURVE",
"102.983 12.9978 CURVE",
"127.979 13.9977 OFFCURVE",
"153.974 15.9973 OFFCURVE",
"180.97 17.997 CURVE SMOOTH",
"206.966 19.9967 OFFCURVE",
"232.961 21.9963 OFFCURVE",
"257.957 23.996 CURVE",
"282.953 24.9958 OFFCURVE",
"305.949 26.9955 OFFCURVE",
"325.946 27.9953 CURVE",
"342.943 64.9892 OFFCURVE",
"361.94 102.983 OFFCURVE",
"381.936 143.976 CURVE SMOOTH",
"400.933 184.969 OFFCURVE",
"418.93 223.963 OFFCURVE",
"433.928 261.956 CURVE",
"436.927 261.956 OFFCURVE",
"529.912 261.956 OFFCURVE",
"637.894 261.956 CURVE SMOOTH",
"740.877 261.956 OFFCURVE",
"840.86 261.956 OFFCURVE",
"943.843 261.956 CURVE",
"943.843 261.956 LINE SMOOTH",
"943.843 261.956 OFFCURVE",
"943.843 261.956 OFFCURVE",
"1051.82 261.956 CURVE",
"1066.82 182.97 OFFCURVE",
"1083.82 105.982 OFFCURVE",
"1102.82 28.9952 CURVE",
"1146.81 25.9957 OFFCURVE",
"1201.8 22.9962 OFFCURVE",
"1255.79 18.9968 CURVE SMOOTH",
"1309.78 14.9975 OFFCURVE",
"1363.77 10.9982 OFFCURVE",
"1406.77 6.99884 CURVE",
"1330.78 187.969 OFFCURVE",
"1267.79 366.939 OFFCURVE",
"1211.8 543.909 CURVE SMOOTH",
"1155.81 719.88 OFFCURVE",
"1106.82 893.851 OFFCURVE",
"1057.82 1068.82 CURVE SMOOTH",
"1022.83 1193.8 OFFCURVE",
"984.836 1330.78 OFFCURVE",
"947.842 1454.76 CURVE",
"747.876 1454.76 LINE"
);
}
);
width = 1669;
}
);
unicode = 0041;
},
{
glyphname = B;
layers = (
{
layerId = "101ED48A-DA64-4145-AD97-87CDC2521746";
name = "Bold Italic";
paths = (
{
closed = 1;
nodes = (
"837.861 703.883 OFFCURVE",
"876.854 700.883 OFFCURVE",
"912.848 692.885 CURVE SMOOTH",
"948.842 683.886 OFFCURVE",
"981.837 668.889 OFFCURVE",
"1008.83 644.893 CURVE",
"1008.83 645.893 LINE",
"1035.83 617.897 OFFCURVE",
"1067.82 583.903 OFFCURVE",
"1067.82 542.91 CURVE SMOOTH",
"1067.82 511.915 OFFCURVE",
"1061.82 478.92 OFFCURVE",
"1049.83 447.925 CURVE SMOOTH",
"1036.83 416.931 OFFCURVE",
"1015.83 389.935 OFFCURVE",
"987.836 373.938 CURVE",
"988.835 374.938 LINE",
"919.847 339.943 OFFCURVE",
"839.86 334.944 OFFCURVE",
"764.873 334.944 CURVE SMOOTH",
"668.889 334.944 OFFCURVE",
"569.905 331.945 OFFCURVE",
"473.921 328.945 CURVE",
"488.919 443.926 OFFCURVE",
"497.917 548.909 OFFCURVE",
"508.915 661.89 CURVE SMOOTH",
"512.915 703.883 LINE",
"800.867 703.883 LINE SMOOTH"
);
},
{
closed = 1;
nodes = (
"553.908 1333.78 LINE",
"553.908 1330.78 OFFCURVE",
"553.908 1326.78 OFFCURVE",
"553.908 1323.78 CURVE",
"552.908 1320.78 OFFCURVE",
"552.908 1316.78 OFFCURVE",
"552.908 1313.78 CURVE",
"532.911 1315.78 LINE"
);
},
{
closed = 1;
nodes = (
"888.852 1306.78 OFFCURVE",
"950.842 1295.78 OFFCURVE",
"996.834 1265.79 CURVE SMOOTH",
"1042.83 1235.79 OFFCURVE",
"1072.82 1187.8 OFFCURVE",
"1072.82 1114.81 CURVE SMOOTH",
"1072.82 1085.82 OFFCURVE",
"1065.82 1050.83 OFFCURVE",
"1050.83 1015.83 CURVE SMOOTH",
"1035.83 980.837 OFFCURVE",
"1013.83 946.842 OFFCURVE",
"982.836 922.846 CURVE",
"926.846 885.853 OFFCURVE",
"854.858 876.854 OFFCURVE",
"789.869 876.854 CURVE SMOOTH",
"746.876 876.854 OFFCURVE",
"702.883 876.854 OFFCURVE",
"659.89 876.854 CURVE SMOOTH",
"615.897 875.854 OFFCURVE",
"571.905 876.854 OFFCURVE",
"528.912 877.854 CURVE",
"539.91 1029.83 OFFCURVE",
"547.909 1164.81 OFFCURVE",
"552.908 1313.78 CURVE",
"644.893 1308.78 OFFCURVE",
"736.877 1306.78 OFFCURVE",
"828.862 1306.78 CURVE SMOOTH"
);
},
{
closed = 1;
nodes = (
"343.943 989.835 OFFCURVE",
"301.95 501.916 OFFCURVE",
"212.965 6.99884 CURVE",
"404.933 27.9953 OFFCURVE",
"581.903 36.9938 OFFCURVE",
"752.875 36.9938 CURVE SMOOTH",
"817.864 36.9938 OFFCURVE",
"887.852 40.9932 OFFCURVE",
"953.841 53.991 CURVE SMOOTH",
"1019.83 66.9889 OFFCURVE",
"1084.82 89.985 OFFCURVE",
"1144.81 129.978 CURVE SMOOTH",
"1204.8 168.972 OFFCURVE",
"1242.79 222.963 OFFCURVE",
"1266.79 282.953 CURVE SMOOTH",
"1289.79 342.943 OFFCURVE",
"1297.78 408.932 OFFCURVE",
"1297.78 471.921 CURVE SMOOTH",
"1297.78 552.908 OFFCURVE",
"1266.79 627.896 OFFCURVE",
"1216.8 684.886 CURVE SMOOTH",
"1166.81 741.877 OFFCURVE",
"1096.82 782.87 OFFCURVE",
"1019.83 801.867 CURVE",
"1092.82 825.863 OFFCURVE",
"1148.81 880.853 OFFCURVE",
"1184.8 945.843 CURVE SMOOTH",
"1220.8 1010.83 OFFCURVE",
"1238.79 1087.82 OFFCURVE",
"1238.79 1158.81 CURVE SMOOTH",
"1238.79 1211.8 OFFCURVE",
"1223.8 1265.79 OFFCURVE",
"1195.8 1310.78 CURVE SMOOTH",
"1166.81 1354.77 OFFCURVE",
"1122.81 1391.77 OFFCURVE",
"1063.82 1414.76 CURVE SMOOTH",
"982.836 1445.76 OFFCURVE",
"895.851 1453.76 OFFCURVE",
"804.866 1454.76 CURVE SMOOTH",
"657.891 1457.76 OFFCURVE",
"510.915 1463.76 OFFCURVE",
"365.939 1483.75 CURVE",
"343.943 1464.76 LINE"
);
}
);
width = 1479;
}
);
unicode = 0042;
},
{
glyphname = C;
layers = (
{
layerId = "101ED48A-DA64-4145-AD97-87CDC2521746";
name = "Bold Italic";
paths = (
{
closed = 1;
nodes = (
"1271.79 1451.76 OFFCURVE",
"1121.81 1480.75 OFFCURVE",
"973.838 1480.75 CURVE SMOOTH",
"877.854 1480.75 OFFCURVE",
"775.871 1470.76 OFFCURVE",
"678.887 1440.76 CURVE SMOOTH",
"581.903 1410.77 OFFCURVE",
"488.919 1361.77 OFFCURVE",
"412.931 1288.79 CURVE",
"329.945 1201.8 OFFCURVE",
"275.954 1087.82 OFFCURVE",
"241.96 971.838 CURVE SMOOTH",
"207.965 854.858 OFFCURVE",
"194.968 733.878 OFFCURVE",
"194.968 630.895 CURVE SMOOTH",
"194.968 551.908 OFFCURVE",
"201.966 473.921 OFFCURVE",
"221.963 400.933 CURVE SMOOTH",
"240.96 327.945 OFFCURVE",
"271.955 258.957 OFFCURVE",
"319.947 198.967 CURVE",
"383.936 126.979 OFFCURVE",
"465.922 78.9869 OFFCURVE",
"556.907 49.9917 CURVE SMOOTH",
"647.892 20.9965 OFFCURVE",
"745.876 8.9985 OFFCURVE",
"841.86 8.9985 CURVE SMOOTH",
"990.835 8.9985 OFFCURVE",
"1146.81 38.9935 OFFCURVE",
"1287.79 126.979 CURVE",
"1287.79 168.972 LINE SMOOTH",
"1287.79 215.964 OFFCURVE",
"1289.79 273.954 OFFCURVE",
"1291.79 332.945 CURVE SMOOTH",
"1293.78 391.935 OFFCURVE",
"1294.78 449.925 OFFCURVE",
"1297.78 497.917 CURVE",
"1230.8 437.927 OFFCURVE",
"1157.81 392.935 OFFCURVE",
"1084.82 361.94 CURVE SMOOTH",
"1011.83 330.945 OFFCURVE",
"935.844 315.947 OFFCURVE",
"866.856 315.947 CURVE SMOOTH",
"803.866 315.947 OFFCURVE",
"736.877 319.947 OFFCURVE",
"673.888 332.945 CURVE SMOOTH",
"609.898 345.942 OFFCURVE",
"549.908 368.939 OFFCURVE",
"500.917 408.932 CURVE",
"501.916 407.932 LINE",
"465.922 439.927 OFFCURVE",
"443.926 480.92 OFFCURVE",
"429.928 525.912 CURVE SMOOTH",
"415.931 570.905 OFFCURVE",
"410.932 620.897 OFFCURVE",
"410.932 671.888 CURVE SMOOTH",
"410.932 751.875 OFFCURVE",
"419.93 841.86 OFFCURVE",
"444.926 929.845 CURVE SMOOTH",
"468.922 1016.83 OFFCURVE",
"509.915 1099.82 OFFCURVE",
"576.904 1170.81 CURVE",
"575.904 1170.81 LINE",
"627.896 1223.8 OFFCURVE",
"691.885 1256.79 OFFCURVE",
"759.874 1276.79 CURVE SMOOTH",
"826.862 1296.78 OFFCURVE",
"897.851 1303.78 OFFCURVE",
"964.839 1303.78 CURVE SMOOTH",
"1104.82 1303.78 OFFCURVE",
"1248.79 1245.79 OFFCURVE",
"1360.77 1132.81 CURVE",
"1364.77 1163.81 OFFCURVE",
"1370.77 1204.8 OFFCURVE",
"1377.77 1244.79 CURVE SMOOTH",
"1380.77 1264.79 OFFCURVE",
"1384.77 1284.79 OFFCURVE",
"1387.77 1303.78 CURVE SMOOTH",
"1390.77 1322.78 OFFCURVE",
"1393.77 1340.78 OFFCURVE",
"1396.77 1355.77 CURVE",
"1372.77 1357.77 LINE",
"1390.77 1367.77 LINE"
);
}
);
width = 1528;
}
);
unicode = 0043;
},
{
glyphname = D;
layers = (
{
layerId = "101ED48A-DA64-4145-AD97-87CDC2521746";
name = "Bold Italic";
paths = (
{
closed = 1;
nodes = (
"563.906 1302.78 OFFCURVE",
"563.906 1298.78 OFFCURVE",
"563.906 1295.78 CURVE",
"562.906 1292.78 OFFCURVE",
"562.906 1288.79 OFFCURVE",
"562.906 1285.79 CURVE",
"559.907 1285.79 OFFCURVE",
"555.907 1285.79 OFFCURVE",
"552.908 1285.79 CURVE SMOOTH",
"549.908 1285.79 OFFCURVE",
"545.909 1285.79 OFFCURVE",
"542.91 1286.79 CURVE",
"563.906 1305.78 LINE"
);
},
{
closed = 1;
nodes = (
"856.857 1276.79 OFFCURVE",
"933.845 1269.79 OFFCURVE",
"1006.83 1249.79 CURVE SMOOTH",
"1078.82 1229.8 OFFCURVE",
"1147.81 1197.8 OFFCURVE",
"1200.8 1145.81 CURVE",
"1261.79 1069.82 OFFCURVE",
"1283.79 962.84 OFFCURVE",
"1283.79 861.857 CURVE SMOOTH",
"1283.79 830.862 OFFCURVE",
"1283.79 798.867 OFFCURVE",
"1280.79 767.872 CURVE",
"1263.79 715.881 OFFCURVE",
"1243.79 660.89 OFFCURVE",
"1216.8 610.898 CURVE SMOOTH",
"1189.8 560.907 OFFCURVE",
"1154.81 514.914 OFFCURVE",
"1106.82 482.92 CURVE",
"1107.82 482.92 LINE",
"1051.82 450.925 OFFCURVE",
"991.835 432.928 OFFCURVE",
"929.845 423.929 CURVE SMOOTH",
"867.856 414.931 OFFCURVE",
"803.866 410.932 OFFCURVE",
"740.877 409.932 CURVE SMOOTH",
"735.878 409.932 OFFCURVE",
"730.878 409.932 OFFCURVE",
"725.879 409.932 CURVE",
"720.88 408.932 OFFCURVE",
"715.881 408.932 OFFCURVE",
"710.882 408.932 CURVE SMOOTH",
"638.894 407.932 OFFCURVE",
"567.905 406.932 OFFCURVE",
"495.917 403.933 CURVE",
"531.911 699.883 OFFCURVE",
"551.908 986.836 OFFCURVE",
"562.906 1285.79 CURVE",
"636.894 1281.79 OFFCURVE",
"710.882 1279.79 OFFCURVE",
"784.869 1279.79 CURVE"
);
},
{
closed = 1;
nodes = (
"344.943 1443.76 OFFCURVE",
"344.943 1422.76 OFFCURVE",
"344.943 1401.77 CURVE SMOOTH",
"344.943 1380.77 OFFCURVE",
"344.943 1359.77 OFFCURVE",
"344.943 1338.78 CURVE SMOOTH",
"344.943 902.85 OFFCURVE",
"300.95 459.923 OFFCURVE",
"212.965 6.99884 CURVE",
"279.953 13.9977 OFFCURVE",
"351.941 18.9968 OFFCURVE",
"424.929 23.996 CURVE SMOOTH",
"496.917 27.9953 OFFCURVE",
"567.905 30.9948 OFFCURVE",
"634.894 33.9943 CURVE SMOOTH",
"739.877 37.9937 OFFCURVE",
"849.859 43.9927 OFFCURVE",
"957.841 66.9889 CURVE SMOOTH",
"1064.82 89.985 OFFCURVE",
"1167.81 127.979 OFFCURVE",
"1259.79 199.967 CURVE SMOOTH",
"1359.77 283.953 OFFCURVE",
"1417.76 405.932 OFFCURVE",
"1449.76 530.912 CURVE SMOOTH",
"1481.75 654.891 OFFCURVE",
"1489.75 783.87 OFFCURVE",
"1489.75 886.852 CURVE SMOOTH",
"1489.75 959.84 OFFCURVE",
"1482.75 1034.83 OFFCURVE",
"1462.76 1103.82 CURVE SMOOTH",
"1442.76 1172.8 OFFCURVE",
"1409.77 1236.79 OFFCURVE",
"1356.77 1289.79 CURVE",
"1276.79 1361.77 OFFCURVE",
"1178.8 1400.77 OFFCURVE",
"1074.82 1423.76 CURVE SMOOTH",
"969.839 1446.76 OFFCURVE",
"858.857 1452.76 OFFCURVE",
"754.874 1457.76 CURVE SMOOTH",
"623.896 1460.76 OFFCURVE",
"496.917 1467.76 OFFCURVE",
"364.939 1483.75 CURVE",
"343.943 1464.76 LINE"
);
}
);
width = 1605;
}
);
unicode = 0044;
},
{
glyphname = E;
layers = (
{
layerId = "101ED48A-DA64-4145-AD97-87CDC2521746";
name = "Bold Italic";
paths = (
{
closed = 1;
nodes = (
"339.943 984.836 OFFCURVE",
"298.95 502.916 OFFCURVE",
"214.964 6.99884 CURVE",
"386.936 25.9957 OFFCURVE",
"549.908 36.9938 OFFCURVE",
"702.883 36.9938 CURVE SMOOTH",
"851.858 36.9938 OFFCURVE",
"1009.83 26.9955 OFFCURVE",
"1174.8 6.99884 CURVE",
"1174.8 29.995 OFFCURVE",
"1174.8 55.9907 OFFCURVE",
"1174.8 83.986 CURVE SMOOTH",
"1174.8 111.981 OFFCURVE",
"1174.8 139.977 OFFCURVE",
"1175.8 168.972 CURVE SMOOTH",
"1176.8 224.963 OFFCURVE",
"1177.8 282.953 OFFCURVE",
"1180.8 329.945 CURVE",
"1019.83 342.943 OFFCURVE",
"869.855 348.942 OFFCURVE",
"725.879 348.942 CURVE SMOOTH",
"641.893 348.942 OFFCURVE",
"558.907 346.942 OFFCURVE",
"473.921 343.943 CURVE",
"476.921 374.938 OFFCURVE",
"480.92 405.932 OFFCURVE",
"483.919 434.928 CURVE SMOOTH",
"486.919 463.923 OFFCURVE",
"490.918 493.918 OFFCURVE",
"493.918 522.913 CURVE SMOOTH",
"499.917 580.903 OFFCURVE",
"504.916 638.894 OFFCURVE",
"509.915 701.883 CURVE",
"816.864 701.883 LINE SMOOTH",
"870.855 701.883 OFFCURVE",
"927.846 701.883 OFFCURVE",
"988.835 702.883 CURVE SMOOTH",
"1049.83 702.883 OFFCURVE",
"1106.82 702.883 OFFCURVE",
"1160.81 702.883 CURVE",
"1160.81 707.882 OFFCURVE",
"1160.81 716.881 OFFCURVE",
"1161.81 727.879 CURVE SMOOTH",
"1162.81 738.877 OFFCURVE",
"1162.81 747.876 OFFCURVE",
"1162.81 752.875 CURVE",
"1165.81 791.868 OFFCURVE",
"1171.8 847.859 OFFCURVE",
"1178.8 886.852 CURVE",
"1041.83 883.853 OFFCURVE",
"884.853 880.853 OFFCURVE",
"747.876 880.853 CURVE SMOOTH",
"670.888 880.853 OFFCURVE",
"601.9 881.853 OFFCURVE",
"525.912 882.853 CURVE",
"530.912 951.842 OFFCURVE",
"534.911 1018.83 OFFCURVE",
"539.91 1082.82 CURVE SMOOTH",
"544.909 1145.81 OFFCURVE",
"548.909 1211.8 OFFCURVE",
"551.908 1280.79 CURVE",
"644.893 1275.79 OFFCURVE",
"720.88 1273.79 OFFCURVE",
"815.864 1273.79 CURVE SMOOTH",
"955.841 1273.79 OFFCURVE",
"1101.82 1280.79 OFFCURVE",
"1256.79 1296.78 CURVE",
"1260.79 1327.78 OFFCURVE",
"1267.79 1370.77 OFFCURVE",
"1272.79 1401.77 CURVE SMOOTH",
"1286.79 1484.75 LINE",
"1118.81 1464.76 OFFCURVE",
"959.84 1453.76 OFFCURVE",
"808.865 1453.76 CURVE SMOOTH",
"659.89 1453.76 OFFCURVE",
"512.915 1463.76 OFFCURVE",
"366.939 1483.75 CURVE",
"343.943 1464.76 LINE"
);
}
);
width = 1440;
}
);
unicode = 0045;
},
{
glyphname = F;
layers = (
{
layerId = "101ED48A-DA64-4145-AD97-87CDC2521746";
name = "Bold Italic";
paths = (
{
closed = 1;
nodes = (
"319.947 983.836 OFFCURVE",
"267.955 498.917 OFFCURVE",
"174.971 5.999 CURVE",
"270.955 20.9965 OFFCURVE",
"358.94 25.9957 OFFCURVE",
"442.926 32.9945 CURVE",
"462.923 239.96 OFFCURVE",
"478.92 458.924 OFFCURVE",
"491.918 665.889 CURVE",
"647.892 665.889 LINE SMOOTH",
"676.887 665.889 OFFCURVE",
"705.883 665.889 OFFCURVE",
"734.878 666.889 CURVE SMOOTH",
"763.873 666.889 OFFCURVE",
"792.868 666.889 OFFCURVE",
"821.863 666.889 CURVE SMOOTH",
"850.858 666.889 OFFCURVE",
"882.853 666.889 OFFCURVE",
"917.847 666.889 CURVE SMOOTH",
"952.841 666.889 OFFCURVE",
"983.836 666.889 OFFCURVE",
"1012.83 665.889 CURVE",
"1020.83 744.876 LINE SMOOTH",
"1021.83 754.874 OFFCURVE",
"1022.83 765.872 OFFCURVE",
"1023.83 778.87 CURVE SMOOTH",
"1024.83 790.868 OFFCURVE",
"1026.83 803.866 OFFCURVE",
"1027.83 816.864 CURVE",
"1030.83 842.86 OFFCURVE",
"1032.83 867.856 OFFCURVE",
"1035.83 887.852 CURVE",
"915.848 884.853 OFFCURVE",
"776.871 882.853 OFFCURVE",
"656.891 882.853 CURVE SMOOTH",
"567.905 882.853 LINE SMOOTH",
"558.907 882.853 OFFCURVE",
"547.909 882.853 OFFCURVE",
"534.911 883.853 CURVE",
"521.913 883.853 OFFCURVE",
"510.915 883.853 OFFCURVE",
"501.916 883.853 CURVE",
"505.916 917.847 OFFCURVE",
"509.915 950.842 OFFCURVE",
"513.914 982.836 CURVE SMOOTH",
"521.913 1045.83 OFFCURVE",
"528.912 1106.82 OFFCURVE",
"535.911 1169.81 CURVE SMOOTH",
"538.91 1200.8 OFFCURVE",
"542.91 1233.79 OFFCURVE",
"546.909 1266.79 CURVE",
"603.899 1263.79 OFFCURVE",
"646.892 1263.79 OFFCURVE",
"705.883 1263.79 CURVE SMOOTH",
"844.859 1263.79 OFFCURVE",
"985.836 1271.79 OFFCURVE",
"1133.81 1288.79 CURVE",
"1135.81 1301.78 OFFCURVE",
"1137.81 1317.78 OFFCURVE",
"1140.81 1334.78 CURVE SMOOTH",
"1143.81 1351.78 OFFCURVE",
"1145.81 1369.77 OFFCURVE",
"1148.81 1388.77 CURVE SMOOTH",
"1151.81 1406.77 OFFCURVE",
"1153.81 1424.76 OFFCURVE",
"1156.81 1441.76 CURVE SMOOTH",
"1159.81 1458.76 OFFCURVE",
"1161.81 1474.75 OFFCURVE",
"1163.81 1487.75 CURVE",
"1003.83 1464.76 OFFCURVE",
"856.857 1453.76 OFFCURVE",
"719.88 1453.76 CURVE SMOOTH",
"600.9 1453.76 OFFCURVE",
"482.92 1461.76 OFFCURVE",
"365.939 1477.75 CURVE",
"342.943 1459.76 LINE"
);
}
);
width = 1138;
}
);
unicode = 0046;
},
{
glyphname = G;
layers = (
{
layerId = "101ED48A-DA64-4145-AD97-87CDC2521746";
name = "Bold Italic";
paths = (
{
closed = 1;
nodes = (
"1155.81 390.935 OFFCURVE",
"1154.81 389.935 OFFCURVE",
"1153.81 388.935 CURVE",
"1155.81 391.935 LINE",
"1155.81 390.935 LINE"
);
},
{
closed = 1;
nodes = (
"806.866 335.944 OFFCURVE",
"740.877 339.943 OFFCURVE",
"678.887 351.941 CURVE SMOOTH",
"616.897 363.939 OFFCURVE",
"555.907 384.936 OFFCURVE",
"506.916 420.93 CURVE",
"507.915 419.93 LINE",
"467.922 452.925 OFFCURVE",
"445.926 497.917 OFFCURVE",
"432.928 546.909 CURVE SMOOTH",
"419.93 595.901 OFFCURVE",
"416.931 650.892 OFFCURVE",
"416.931 702.883 CURVE SMOOTH",
"416.931 781.87 OFFCURVE",
"425.929 870.855 OFFCURVE",
"450.925 956.841 CURVE SMOOTH",
"475.921 1042.83 OFFCURVE",
"515.914 1125.81 OFFCURVE",
"578.904 1193.8 CURVE",
"631.895 1242.79 OFFCURVE",
"697.884 1274.79 OFFCURVE",
"767.872 1294.78 CURVE SMOOTH",
"837.861 1314.78 OFFCURVE",
"909.849 1321.78 OFFCURVE",
"976.837 1321.78 CURVE SMOOTH",
"1132.81 1321.78 OFFCURVE",
"1293.78 1267.79 OFFCURVE",
"1422.76 1148.81 CURVE",
"1425.76 1168.81 OFFCURVE",
"1429.76 1199.8 OFFCURVE",
"1434.76 1228.8 CURVE",
"1436.76 1243.79 OFFCURVE",
"1438.76 1257.79 OFFCURVE",
"1440.76 1272.79 CURVE SMOOTH",
"1442.76 1286.79 OFFCURVE",
"1444.76 1298.78 OFFCURVE",
"1446.76 1308.78 CURVE SMOOTH",
"1455.76 1361.77 LINE",
"1382.77 1408.77 OFFCURVE",
"1303.78 1438.76 OFFCURVE",
"1220.8 1456.76 CURVE SMOOTH",
"1137.81 1474.75 OFFCURVE",
"1053.82 1480.75 OFFCURVE",
"970.838 1480.75 CURVE SMOOTH",
"878.854 1480.75 OFFCURVE",
"776.871 1467.76 OFFCURVE",
"679.887 1437.76 CURVE SMOOTH",
"582.903 1407.77 OFFCURVE",
"489.918 1359.77 OFFCURVE",
"416.931 1291.79 CURVE SMOOTH",
"325.946 1203.8 OFFCURVE",
"271.955 1087.82 OFFCURVE",
"239.96 967.839 CURVE SMOOTH",
"206.966 846.859 OFFCURVE",
"196.967 721.88 OFFCURVE",
"196.967 616.897 CURVE SMOOTH",
"196.967 541.91 OFFCURVE",
"204.966 465.922 OFFCURVE",
"224.963 393.934 CURVE SMOOTH",
"244.959 320.947 OFFCURVE",
"274.954 252.958 OFFCURVE",
"321.946 195.967 CURVE",
"386.936 122.98 OFFCURVE",
"472.921 75.9874 OFFCURVE",
"565.906 47.992 CURVE SMOOTH",
"658.89 19.9967 OFFCURVE",
"760.873 9.99834 OFFCURVE",
"856.857 9.99834 CURVE SMOOTH",
"1033.83 9.99834 OFFCURVE",
"1218.8 44.9925 OFFCURVE",
"1383.77 149.975 CURVE",
"1383.77 349.942 OFFCURVE",
"1393.77 551.908 OFFCURVE",
"1412.76 760.873 CURVE",
"1371.77 760.873 OFFCURVE",
"1328.78 760.873 OFFCURVE",
"1281.79 760.873 CURVE SMOOTH",
"1234.79 759.874 OFFCURVE",
"1190.8 759.874 OFFCURVE",
"1149.81 759.874 CURVE SMOOTH",
"889.852 759.874 LINE",
"870.855 536.911 LINE",
"916.847 536.911 OFFCURVE",
"965.839 536.911 OFFCURVE",
"1016.83 536.911 CURVE SMOOTH",
"1067.82 536.911 OFFCURVE",
"1116.81 535.911 OFFCURVE",
"1163.81 534.911 CURVE",
"1162.81 511.915 OFFCURVE",
"1160.81 488.919 OFFCURVE",
"1159.81 465.922 CURVE SMOOTH",
"1158.81 442.926 OFFCURVE",
"1156.81 418.93 OFFCURVE",
"1155.81 395.934 CURVE",
"1153.81 393.934 LINE SMOOTH",
"1137.81 378.937 OFFCURVE",
"1118.81 366.939 OFFCURVE",
"1096.82 359.94 CURVE SMOOTH",
"1051.82 343.943 OFFCURVE",
"998.834 336.944 OFFCURVE",
"946.842 336.944 CURVE",
"919.847 335.944 OFFCURVE",
"894.851 335.944 OFFCURVE",
"870.855 334.944 CURVE",
"871.855 334.944 LINE",
"870.855 334.944 LINE SMOOTH"
);
}
);
width = 1619;
}
);
unicode = 0047;
},
{
glyphname = H;
layers = (
{
layerId = "101ED48A-DA64-4145-AD97-87CDC2521746";
name = "Bold Italic";
paths = (
{
closed = 1;
nodes = (
"337.944 982.836 OFFCURVE",
"293.951 502.916 OFFCURVE",
"192.968 6.99884 CURVE",
"209.965 8.9985 OFFCURVE",
"229.962 10.9982 OFFCURVE",
"251.958 12.9978 CURVE",
"272.955 13.9977 OFFCURVE",
"294.951 15.9973 OFFCURVE",
"317.947 17.997 CURVE SMOOTH",
"362.94 21.9963 OFFCURVE",
"406.932 24.9958 OFFCURVE",
"441.926 27.9953 CURVE",
"464.923 180.97 OFFCURVE",
"485.919 350.942 OFFCURVE",
"502.916 503.916 CURVE",
"557.907 504.916 OFFCURVE",
"608.899 505.916 OFFCURVE",
"657.891 505.916 CURVE SMOOTH",
"706.882 505.916 OFFCURVE",
"757.874 505.916 OFFCURVE",
"812.865 505.916 CURVE SMOOTH",
"863.856 505.916 OFFCURVE",
"914.848 505.916 OFFCURVE",
"965.839 505.916 CURVE SMOOTH",
"1016.83 505.916 OFFCURVE",
"1067.82 504.916 OFFCURVE",
"1118.81 503.916 CURVE",
"1107.82 344.943 OFFCURVE",
"1102.82 187.969 OFFCURVE",
"1101.82 27.9953 CURVE",
"1118.81 26.9955 OFFCURVE",
"1138.81 24.9958 OFFCURVE",
"1159.81 23.996 CURVE",
"1180.8 21.9963 OFFCURVE",
"1202.8 19.9967 OFFCURVE",
"1224.8 18.9968 CURVE",
"1268.79 14.9975 OFFCURVE",
"1312.78 10.9982 OFFCURVE",
"1345.78 6.99884 CURVE",
"1342.78 77.987 OFFCURVE",
"1340.78 167.972 OFFCURVE",
"1340.78 239.96 CURVE SMOOTH",
"1340.78 643.893 OFFCURVE",
"1380.77 1056.82 OFFCURVE",
"1455.76 1484.75 CURVE",
"1446.76 1483.75 OFFCURVE",
"1435.76 1482.75 OFFCURVE",
"1423.76 1481.75 CURVE SMOOTH",
"1411.77 1480.75 OFFCURVE",
"1399.77 1478.75 OFFCURVE",
"1386.77 1477.75 CURVE",
"1361.77 1474.75 OFFCURVE",
"1336.78 1472.75 OFFCURVE",
"1317.78 1471.76 CURVE SMOOTH",
"1226.8 1464.76 LINE",
"1190.8 1245.79 OFFCURVE",
"1162.81 1009.83 OFFCURVE",
"1143.81 789.869 CURVE",
"988.835 788.869 OFFCURVE",
"853.858 787.869 OFFCURVE",
"698.884 787.869 CURVE SMOOTH",
"602.9 787.869 LINE SMOOTH",
"588.902 787.869 OFFCURVE",
"576.904 787.869 OFFCURVE",
"565.906 788.869 CURVE",
"554.908 788.869 OFFCURVE",
"542.91 788.869 OFFCURVE",
"528.912 788.869 CURVE",
"548.909 1016.83 OFFCURVE",
"559.907 1236.79 OFFCURVE",
"566.906 1463.76 CURVE",
"493.918 1466.76 OFFCURVE",
"424.929 1472.75 OFFCURVE",
"365.939 1481.75 CURVE",
"342.943 1462.76 LINE"
);
}
);
width = 1611;
}
);
unicode = 0048;
},
{
glyphname = I;
layers = (
{
layerId = "101ED48A-DA64-4145-AD97-87CDC2521746";
name = "Bold Italic";
paths = (
{
closed = 1;
nodes = (
"295.951 974.838 OFFCURVE",
"241.96 470.922 OFFCURVE",
"181.97 -5 CURVE",
"236.961 21.9963 OFFCURVE",
"282.953 36.9938 OFFCURVE",
"317.947 36.9938 CURVE SMOOTH",
"352.941 36.9938 OFFCURVE",
"393.934 22.9962 OFFCURVE",
"439.927 -4 CURVE",
"452.925 232.961 OFFCURVE",
"468.922 487.919 OFFCURVE",
"488.919 741.877 CURVE SMOOTH",
"507.915 995.834 OFFCURVE",
"528.912 1249.79 OFFCURVE",
"549.908 1486.75 CURVE",
"502.916 1465.76 OFFCURVE",
"464.923 1454.76 OFFCURVE",
"435.927 1454.76 CURVE SMOOTH",
"412.931 1454.76 OFFCURVE",
"389.935 1459.76 OFFCURVE",
"366.939 1466.76 CURVE",
"340.943 1450.76 LINE"
);
}
);
width = 708;
}
);
unicode = 0049;
},
{
glyphname = J;
layers = (
{
layerId = "101ED48A-DA64-4145-AD97-87CDC2521746";
name = "Bold Italic";
paths = (
{
closed = 1;
nodes = (
"477.92 991.835 OFFCURVE",
"425.929 555.907 OFFCURVE",
"370.938 111.981 CURVE",
"370.938 112.981 LINE",
"361.94 52.9912 OFFCURVE",
"324.946 12.9978 OFFCURVE",
"277.954 -15 CURVE SMOOTH",
"229.962 -43 OFFCURVE",
"171.971 -58 OFFCURVE",
"119.98 -66 CURVE",
"79.9867 -63 LINE",
"19.9967 -58 LINE",
"18.9968 -70 OFFCURVE",
"16.9972 -86 OFFCURVE",
"15.9973 -105 CURVE",
"13.9977 -124 OFFCURVE",
"11.998 -140 OFFCURVE",
"10.9982 -152 CURVE SMOOTH",
"2.9995 -228 OFFCURVE",
"-7 -326 OFFCURVE",
"-18 -402 CURVE",
"-9 -401 OFFCURVE",
"0.999834 -400 OFFCURVE",
"12.9978 -399 CURVE SMOOTH",
"23.996 -398 OFFCURVE",
"35.994 -396 OFFCURVE",
"47.992 -395 CURVE",
"71.988 -392 OFFCURVE",
"96.9839 -390 OFFCURVE",
"113.981 -390 CURVE",
"163.973 -381 LINE SMOOTH",
"212.965 -373 OFFCURVE",
"265.956 -363 OFFCURVE",
"314.948 -347 CURVE SMOOTH",
"363.939 -331 OFFCURVE",
"411.931 -308 OFFCURVE",
"454.924 -272 CURVE",
"503.916 -223 OFFCURVE",
"534.911 -164 OFFCURVE",
"552.908 -102 CURVE SMOOTH",
"570.905 -40 OFFCURVE",
"577.904 24.9958 OFFCURVE",
"584.903 85.9857 CURVE SMOOTH",
"635.894 542.91 OFFCURVE",
"696.884 1020.83 OFFCURVE",
"772.871 1477.75 CURVE",
"683.886 1458.76 OFFCURVE",
"621.896 1455.76 OFFCURVE",
"560.907 1452.76 CURVE",
"541.91 1435.76 LINE"
);
}
);
width = 843;
}
);
unicode = 004A;
},
{
glyphname = K;
layers = (
{
layerId = "101ED48A-DA64-4145-AD97-87CDC2521746";
name = "Bold Italic";
paths = (
{
closed = 1;
nodes = (
"333.944 983.836 OFFCURVE",
"278.954 503.916 OFFCURVE",
"173.971 6.99884 CURVE",
"213.964 10.9982 OFFCURVE",
"263.956 15.9973 OFFCURVE",
"313.948 19.9967 CURVE",
"338.944 20.9965 OFFCURVE",
"362.94 22.9962 OFFCURVE",
"386.936 24.9958 CURVE",
"410.932 25.9957 OFFCURVE",
"432.928 27.9953 OFFCURVE",
"451.925 28.9952 CURVE",
"471.921 241.96 OFFCURVE",
"486.919 467.922 OFFCURVE",
"495.917 684.886 CURVE",
"564.906 567.905 OFFCURVE",
"627.896 461.923 OFFCURVE",
"691.885 357.94 CURVE SMOOTH",
"755.874 252.958 OFFCURVE",
"820.863 148.975 OFFCURVE",
"896.851 35.994 CURVE",
"1048.83 32.9945 OFFCURVE",
"1210.8 22.9962 OFFCURVE",
"1390.77 3.99933 CURVE",
"1291.79 110.982 OFFCURVE",
"1177.8 235.961 OFFCURVE",
"1064.82 361.94 CURVE SMOOTH",
"951.842 487.919 OFFCURVE",
"837.861 613.898 OFFCURVE",
"738.877 724.879 CURVE",
"729.879 735.878 OFFCURVE",
"719.88 747.876 OFFCURVE",
"709.882 758.874 CURVE SMOOTH",
"699.883 769.872 OFFCURVE",
"689.885 781.87 OFFCURVE",
"680.887 792.868 CURVE",
"761.873 863.856 OFFCURVE",
"842.86 934.844 OFFCURVE",
"923.846 1005.83 CURVE SMOOTH",
"1004.83 1076.82 OFFCURVE",
"1084.82 1147.81 OFFCURVE",
"1165.81 1217.8 CURVE SMOOTH",
"1467.76 1480.75 LINE",
"1360.77 1473.75 LINE SMOOTH",
"1300.78 1468.76 OFFCURVE",
"1238.79 1465.76 OFFCURVE",
"1178.8 1462.76 CURVE",
"1148.81 1436.76 OFFCURVE",
"1117.81 1409.77 OFFCURVE",
"1084.82 1381.77 CURVE SMOOTH",
"1051.82 1352.77 OFFCURVE",
"1020.83 1325.78 OFFCURVE",
"990.835 1299.78 CURVE SMOOTH",
"829.862 1162.81 OFFCURVE",
"669.888 1022.83 OFFCURVE",
"512.915 881.853 CURVE",
"523.913 984.836 OFFCURVE",
"531.911 1077.82 OFFCURVE",
"539.91 1172.8 CURVE SMOOTH",
"546.909 1267.79 OFFCURVE",
"553.908 1360.77 OFFCURVE",
"558.907 1463.76 CURVE",
"498.917 1466.76 OFFCURVE",
"423.929 1471.76 OFFCURVE",
"364.939 1478.75 CURVE",
"342.943 1459.76 LINE"
);
}
);
width = 1657;
}
);
unicode = 004B;
},
{
glyphname = L;
layers = (
{
layerId = "101ED48A-DA64-4145-AD97-87CDC2521746";
name = "Bold Italic";
paths = (
{
closed = 1;
nodes = (
"330.945 987.836 OFFCURVE",
"283.953 499.917 OFFCURVE",
"192.968 6.99884 CURVE",
"360.94 26.9955 OFFCURVE",
"519.913 36.9938 OFFCURVE",
"669.888 36.9938 CURVE SMOOTH",
"814.864 36.9938 OFFCURVE",
"960.84 27.9953 OFFCURVE",
"1112.81 10.9982 CURVE",
"1115.81 57.9903 OFFCURVE",
"1119.81 113.981 OFFCURVE",
"1124.81 170.972 CURVE SMOOTH",
"1128.81 226.962 OFFCURVE",
"1134.81 282.953 OFFCURVE",
"1139.81 329.945 CURVE",
"983.836 342.943 OFFCURVE",
"841.86 348.942 OFFCURVE",
"702.883 348.942 CURVE SMOOTH",
"622.896 348.942 OFFCURVE",
"542.91 346.942 OFFCURVE",
"462.923 343.943 CURVE",
"509.915 718.88 OFFCURVE",
"537.91 1086.82 OFFCURVE",
"556.907 1461.76 CURVE",
"484.919 1464.76 OFFCURVE",
"424.929 1471.76 OFFCURVE",
"365.939 1480.75 CURVE",
"342.943 1462.76 LINE"
);
}
);
width = 1377;
}
);
unicode = 004C;
},
{
glyphname = M;
layers = (
{
layerId = "101ED48A-DA64-4145-AD97-87CDC2521746";
name = "Bold Italic";
paths = (
{
closed = 1;
nodes = (
"342.943 986.836 OFFCURVE",
"293.951 500.917 OFFCURVE",
"181.97 7.99867 CURVE",
"220.963 11.998 OFFCURVE",
"269.955 14.9975 OFFCURVE",
"318.947 18.9968 CURVE SMOOTH",
"367.939 21.9963 OFFCURVE",
"416.931 24.9958 OFFCURVE",
"455.924 25.9957 CURVE",
"508.915 425.929 OFFCURVE",
"537.91 818.864 OFFCURVE",
"538.91 1210.8 CURVE",
"606.899 982.836 OFFCURVE",
"665.889 741.877 OFFCURVE",
"718.88 512.915 CURVE SMOOTH",
"780.87 258.957 LINE",
"847.859 258.957 LINE SMOOTH",
"856.857 258.957 OFFCURVE",
"866.856 258.957 OFFCURVE",
"875.854 259.957 CURVE",
"884.853 259.957 OFFCURVE",
"893.851 259.957 OFFCURVE",
"902.85 259.957 CURVE SMOOTH",
"911.848 259.957 OFFCURVE",
"920.847 259.957 OFFCURVE",
"929.845 259.957 CURVE",
"938.844 258.957 OFFCURVE",
"946.842 258.957 OFFCURVE",
"955.841 258.957 CURVE SMOOTH",
"1022.83 258.957 LINE",
"1031.83 281.953 OFFCURVE",
"1042.83 307.949 OFFCURVE",
"1054.82 335.944 CURVE SMOOTH",
"1065.82 362.94 OFFCURVE",
"1076.82 388.935 OFFCURVE",
"1085.82 411.931 CURVE",
"1085.82 410.932 LINE",
"1194.8 678.887 OFFCURVE",
"1301.78 941.843 OFFCURVE",
"1425.76 1204.8 CURVE",
"1358.77 819.864 OFFCURVE",
"1315.78 430.928 OFFCURVE",
"1308.78 26.9955 CURVE",
"1327.78 25.9957 OFFCURVE",
"1349.78 23.996 OFFCURVE",
"1372.77 22.9962 CURVE SMOOTH",
"1395.77 21.9963 OFFCURVE",
"1418.76 19.9967 OFFCURVE",
"1442.76 18.9968 CURVE",
"1490.75 14.9975 OFFCURVE",
"1537.74 11.998 OFFCURVE",
"1576.74 7.99867 CURVE",
"1569.74 115.981 OFFCURVE",
"1565.74 244.959 OFFCURVE",
"1565.74 353.941 CURVE SMOOTH",
"1565.74 721.88 OFFCURVE",
"1605.73 1094.82 OFFCURVE",
"1677.72 1482.75 CURVE",
"1655.72 1480.75 OFFCURVE",
"1631.73 1478.75 OFFCURVE",
"1606.73 1477.75 CURVE",
"1581.74 1475.75 OFFCURVE",
"1555.74 1473.75 OFFCURVE",
"1529.75 1471.76 CURVE SMOOTH",
"1477.75 1467.76 OFFCURVE",
"1425.76 1463.76 OFFCURVE",
"1382.77 1462.76 CURVE",
"1243.79 1235.79 OFFCURVE",
"1113.81 986.836 OFFCURVE",
"990.835 751.875 CURVE SMOOTH",
"933.845 642.893 LINE",
"888.852 785.869 OFFCURVE",
"844.859 920.847 OFFCURVE",
"798.867 1054.82 CURVE SMOOTH",
"752.875 1188.8 OFFCURVE",
"703.883 1320.78 OFFCURVE",
"648.892 1460.76 CURVE",
"557.907 1464.76 OFFCURVE",
"455.924 1471.76 OFFCURVE",
"363.939 1480.75 CURVE",
"342.943 1461.76 LINE"
);
}
);
width = 1842;
}
);
unicode = 004D;
},
{
glyphname = N;
layers = (
{
layerId = "101ED48A-DA64-4145-AD97-87CDC2521746";
name = "Bold Italic";
paths = (
{
closed = 1;
nodes = (
"322.946 963.84 OFFCURVE",
"270.955 493.918 OFFCURVE",
"166.972 6.99884 CURVE",
"205.966 10.9982 OFFCURVE",
"254.958 15.9973 OFFCURVE",
"303.949 19.9967 CURVE",
"327.945 20.9965 OFFCURVE",
"351.941 22.9962 OFFCURVE",
"374.938 24.9958 CURVE",
"397.934 25.9957 OFFCURVE",
"419.93 27.9953 OFFCURVE",
"438.927 28.9952 CURVE",
"475.921 427.929 OFFCURVE",
"495.917 807.866 OFFCURVE",
"498.917 1191.8 CURVE",
"535.911 1110.82 OFFCURVE",
"570.905 1029.83 OFFCURVE",
"603.899 950.842 CURVE SMOOTH",
"636.894 870.855 OFFCURVE",
"670.888 789.869 OFFCURVE",
"705.883 706.882 CURVE SMOOTH",
"802.866 481.92 OFFCURVE",
"903.85 250.958 OFFCURVE",
"1012.83 31.9947 CURVE",
"1056.82 28.9952 OFFCURVE",
"1109.82 25.9957 OFFCURVE",
"1162.81 21.9963 CURVE SMOOTH",
"1215.8 17.997 OFFCURVE",
"1268.79 12.9978 OFFCURVE",
"1312.78 7.99867 CURVE",
"1311.78 46.9922 OFFCURVE",
"1310.78 103.983 OFFCURVE",
"1310.78 142.976 CURVE SMOOTH",
"1310.78 581.903 OFFCURVE",
"1357.77 1029.83 OFFCURVE",
"1441.76 1486.75 CURVE",
"1428.76 1485.75 OFFCURVE",
"1412.76 1483.75 OFFCURVE",
"1395.77 1481.75 CURVE SMOOTH",
"1377.77 1479.75 OFFCURVE",
"1359.77 1477.75 OFFCURVE",
"1340.78 1476.75 CURVE",
"1321.78 1474.75 OFFCURVE",
"1302.78 1472.75 OFFCURVE",
"1285.79 1471.76 CURVE",
"1267.79 1469.76 OFFCURVE",
"1251.79 1468.76 OFFCURVE",
"1238.79 1467.76 CURVE",
"1166.81 1091.82 OFFCURVE",
"1120.81 717.88 OFFCURVE",
"1092.82 346.942 CURVE",
"1073.82 387.935 OFFCURVE",
"1055.82 424.929 OFFCURVE",
"1039.83 459.923 CURVE SMOOTH",
"1007.83 527.912 OFFCURVE",
"978.837 593.901 OFFCURVE",
"947.842 662.89 CURVE SMOOTH",
"932.845 697.884 OFFCURVE",
"915.848 734.878 OFFCURVE",
"897.851 775.871 CURVE SMOOTH",
"801.867 992.835 OFFCURVE",
"701.883 1219.8 OFFCURVE",
"593.901 1431.76 CURVE",
"586.902 1431.76 OFFCURVE",
"578.904 1431.76 OFFCURVE",
"568.905 1432.76 CURVE SMOOTH",
"558.907 1433.76 OFFCURVE",
"550.908 1433.76 OFFCURVE",
"543.909 1433.76 CURVE",
"544.909 1433.76 LINE",
"480.92 1437.76 OFFCURVE",
"420.93 1441.76 OFFCURVE",
"357.94 1449.76 CURVE",
"335.944 1430.76 LINE"
);
}
);
width = 1578;
}
);
unicode = 004E;
},
{
glyphname = O;
layers = (
{
layerId = "101ED48A-DA64-4145-AD97-87CDC2521746";
name = "Bold Italic";
paths = (
{
closed = 1;
nodes = (
"1017.83 1304.78 OFFCURVE",
"1131.81 1256.79 OFFCURVE",
"1198.8 1160.81 CURVE",
"1198.8 1161.81 LINE",
"1255.79 1068.82 OFFCURVE",
"1273.79 957.841 OFFCURVE",
"1273.79 842.86 CURVE SMOOTH",
"1273.79 786.869 OFFCURVE",
"1269.79 710.882 OFFCURVE",
"1250.79 639.893 CURVE SMOOTH",
"1230.8 567.905 OFFCURVE",
"1196.8 499.917 OFFCURVE",
"1133.81 459.923 CURVE",
"1037.83 407.932 OFFCURVE",
"918.847 389.935 OFFCURVE",
"811.865 389.935 CURVE SMOOTH",
"756.874 389.935 OFFCURVE",
"701.883 393.934 OFFCURVE",
"649.892 403.933 CURVE SMOOTH",
"596.901 413.931 OFFCURVE",
"544.909 430.928 OFFCURVE",
"500.917 458.924 CURVE SMOOTH",
"465.922 479.92 OFFCURVE",
"444.926 513.914 OFFCURVE",
"432.928 551.908 CURVE SMOOTH",
"419.93 589.902 OFFCURVE",
"415.931 631.895 OFFCURVE",
"415.931 674.888 CURVE SMOOTH",
"415.931 753.875 OFFCURVE",
"424.929 840.86 OFFCURVE",
"447.925 925.846 CURVE SMOOTH",
"470.922 1009.83 OFFCURVE",
"506.916 1090.82 OFFCURVE",
"562.906 1157.81 CURVE SMOOTH",
"603.899 1209.8 OFFCURVE",
"656.891 1245.79 OFFCURVE",
"714.881 1269.79 CURVE SMOOTH",
"772.871 1293.78 OFFCURVE",
"835.861 1304.78 OFFCURVE",
"896.851 1304.78 CURVE SMOOTH"
);
},
{
closed = 1;
nodes = (
"819.864 1479.75 OFFCURVE",
"727.879 1467.76 OFFCURVE",
"640.893 1437.76 CURVE SMOOTH",
"553.908 1407.77 OFFCURVE",
"472.921 1358.77 OFFCURVE",
"407.932 1287.79 CURVE",
"408.932 1287.79 LINE",
"321.946 1196.8 OFFCURVE",
"269.955 1082.82 OFFCURVE",
"238.96 964.839 CURVE SMOOTH",
"207.965 846.859 OFFCURVE",
"198.967 724.879 OFFCURVE",
"198.967 617.897 CURVE SMOOTH",
"198.967 542.91 OFFCURVE",
"206.966 468.922 OFFCURVE",
"224.963 397.934 CURVE SMOOTH",
"242.96 325.946 OFFCURVE",
"270.955 258.957 OFFCURVE",
"314.948 201.966 CURVE SMOOTH",
"366.939 133.978 OFFCURVE",
"436.927 85.9857 OFFCURVE",
"516.914 54.9908 CURVE SMOOTH",
"595.901 23.996 OFFCURVE",
"681.886 9.99834 OFFCURVE",
"768.872 9.99834 CURVE SMOOTH",
"859.857 9.99834 OFFCURVE",
"953.841 21.9963 OFFCURVE",
"1041.83 50.9915 CURVE SMOOTH",
"1129.81 79.9867 OFFCURVE",
"1211.8 128.979 OFFCURVE",
"1279.79 200.967 CURVE",
"1360.77 293.951 OFFCURVE",
"1413.76 405.932 OFFCURVE",
"1445.76 522.913 CURVE SMOOTH",
"1477.75 638.894 OFFCURVE",
"1489.75 759.874 OFFCURVE",
"1489.75 870.855 CURVE SMOOTH",
"1489.75 943.843 OFFCURVE",
"1483.75 1018.83 OFFCURVE",
"1465.76 1090.82 CURVE SMOOTH",
"1447.76 1161.81 OFFCURVE",
"1418.76 1227.8 OFFCURVE",
"1374.77 1286.79 CURVE SMOOTH",
"1321.78 1357.77 OFFCURVE",
"1248.79 1404.77 OFFCURVE",
"1167.81 1435.76 CURVE SMOOTH",
"1086.82 1466.76 OFFCURVE",
"996.834 1479.75 OFFCURVE",
"908.849 1479.75 CURVE SMOOTH"
);
}
);
width = 1604;
}
);
unicode = 004F;
},
{
glyphname = P;
layers = (
{
layerId = "101ED48A-DA64-4145-AD97-87CDC2521746";
name = "Bold Italic";
paths = (
{
closed = 1;
nodes = (
"561.906 1356.77 LINE",
"558.907 1356.77 OFFCURVE",
"556.907 1356.77 OFFCURVE",
"553.908 1356.77 CURVE SMOOTH",
"550.908 1356.77 OFFCURVE",
"546.909 1356.77 OFFCURVE",
"543.909 1357.77 CURVE",
"563.906 1375.77 LINE"
);
},
{
closed = 1;
nodes = (
"850.858 1353.77 OFFCURVE",
"916.847 1345.78 OFFCURVE",
"968.839 1317.78 CURVE SMOOTH",
"1020.83 1288.79 OFFCURVE",
"1058.82 1237.79 OFFCURVE",
"1058.82 1153.81 CURVE SMOOTH",
"1058.82 1139.81 OFFCURVE",
"1057.82 1125.81 OFFCURVE",
"1055.82 1110.82 CURVE",
"1054.82 1037.83 OFFCURVE",
"1018.83 971.838 OFFCURVE",
"966.839 923.846 CURVE SMOOTH",
"914.848 875.854 OFFCURVE",
"843.86 846.859 OFFCURVE",
"774.871 846.859 CURVE SMOOTH",
"686.886 846.859 OFFCURVE",
"599.9 847.859 OFFCURVE",
"511.915 848.859 CURVE",
"531.911 1024.83 OFFCURVE",
"546.909 1181.8 OFFCURVE",
"561.906 1356.77 CURVE",
"640.893 1353.77 OFFCURVE",
"717.88 1353.77 OFFCURVE",
"797.867 1353.77 CURVE SMOOTH"
);
},
{
closed = 1;
nodes = (
"317.947 982.836 OFFCURVE",
"261.956 499.917 OFFCURVE",
"153.974 6.99884 CURVE",
"189.968 10.9982 OFFCURVE",
"236.961 15.9973 OFFCURVE",
"283.953 19.9967 CURVE SMOOTH",
"330.945 23.996 OFFCURVE",
"376.937 26.9955 OFFCURVE",
"412.931 29.995 CURVE",
"443.926 206.966 OFFCURVE",
"471.921 399.933 OFFCURVE",
"494.918 578.904 CURVE",
"533.911 579.904 OFFCURVE",
"570.905 579.904 OFFCURVE",
"603.899 579.904 CURVE SMOOTH",
"636.894 579.904 OFFCURVE",
"672.888 579.904 OFFCURVE",
"711.882 579.904 CURVE SMOOTH",
"774.871 579.904 OFFCURVE",
"839.86 585.902 OFFCURVE",
"902.85 603.899 CURVE SMOOTH",
"965.839 621.896 OFFCURVE",
"1023.83 649.892 OFFCURVE",
"1074.82 696.884 CURVE SMOOTH",
"1131.81 749.875 OFFCURVE",
"1172.8 820.863 OFFCURVE",
"1197.8 894.851 CURVE SMOOTH",
"1222.8 968.839 OFFCURVE",
"1233.79 1045.83 OFFCURVE",
"1233.79 1116.81 CURVE SMOOTH",
"1233.79 1168.81 OFFCURVE",
"1225.8 1220.8 OFFCURVE",
"1206.8 1267.79 CURVE SMOOTH",
"1186.8 1314.78 OFFCURVE",
"1154.81 1356.77 OFFCURVE",
"1106.82 1388.77 CURVE",
"1058.82 1416.76 OFFCURVE",
"1006.83 1433.76 OFFCURVE",
"951.842 1442.76 CURVE SMOOTH",
"896.851 1451.76 OFFCURVE",
"840.86 1454.76 OFFCURVE",
"784.869 1454.76 CURVE SMOOTH",
"643.893 1454.76 OFFCURVE",
"503.916 1459.76 OFFCURVE",
"363.939 1475.75 CURVE",
"341.943 1457.76 LINE"
);
}
);
width = 1279;
}
);
unicode = 0050;
},
{
glyphname = Q;
layers = (
{
layerId = "101ED48A-DA64-4145-AD97-87CDC2521746";
name = "Bold Italic";
paths = (
{
closed = 1;
nodes = (
"956.841 1298.78 OFFCURVE",
"1017.83 1286.79 OFFCURVE",
"1070.82 1262.79 CURVE SMOOTH",
"1122.81 1238.79 OFFCURVE",
"1168.81 1202.8 OFFCURVE",
"1200.8 1153.81 CURVE SMOOTH",
"1259.79 1062.82 OFFCURVE",
"1277.79 955.841 OFFCURVE",
"1277.79 843.86 CURVE SMOOTH",
"1277.79 763.873 OFFCURVE",
"1267.79 681.886 OFFCURVE",
"1238.79 609.898 CURVE SMOOTH",
"1209.8 536.911 OFFCURVE",
"1160.81 474.921 OFFCURVE",
"1081.82 434.928 CURVE",
"1009.83 445.926 OFFCURVE",
"939.844 467.922 OFFCURVE",
"864.856 503.916 CURVE",
"857.857 492.918 OFFCURVE",
"848.859 479.92 OFFCURVE",
"838.86 464.923 CURVE",
"827.862 449.925 OFFCURVE",
"818.864 436.927 OFFCURVE",
"811.865 425.929 CURVE",
"774.871 372.938 LINE",
"670.888 388.935 OFFCURVE",
"587.902 406.932 OFFCURVE",
"504.916 458.924 CURVE SMOOTH",
"468.922 481.92 OFFCURVE",
"445.926 515.914 OFFCURVE",
"433.928 555.907 CURVE SMOOTH",
"420.93 595.901 OFFCURVE",
"416.931 640.893 OFFCURVE",
"416.931 684.886 CURVE SMOOTH",
"416.931 760.873 OFFCURVE",
"425.929 845.859 OFFCURVE",
"449.925 927.846 CURVE SMOOTH",
"472.921 1009.83 OFFCURVE",
"507.915 1088.82 OFFCURVE",
"562.906 1153.81 CURVE SMOOTH",
"647.892 1254.79 OFFCURVE",
"769.872 1298.78 OFFCURVE",
"896.851 1298.78 CURVE SMOOTH"
);
},
{
closed = 1;
nodes = (
"1425.76 425.929 OFFCURVE",
"1454.76 517.914 OFFCURVE",
"1471.76 608.899 CURVE SMOOTH",
"1488.75 699.883 OFFCURVE",
"1494.75 791.868 OFFCURVE",
"1494.75 871.855 CURVE SMOOTH",
"1494.75 944.843 OFFCURVE",
"1487.75 1019.83 OFFCURVE",
"1468.76 1089.82 CURVE SMOOTH",
"1449.76 1159.81 OFFCURVE",
"1421.76 1224.8 OFFCURVE",
"1377.77 1280.79 CURVE SMOOTH",
"1321.78 1349.78 OFFCURVE",
"1243.79 1397.77 OFFCURVE",
"1158.81 1428.76 CURVE SMOOTH",
"1073.82 1459.76 OFFCURVE",
"979.837 1473.75 OFFCURVE",
"890.852 1473.75 CURVE SMOOTH",
"805.866 1473.75 OFFCURVE",
"716.881 1460.76 OFFCURVE",
"633.894 1429.76 CURVE SMOOTH",
"549.908 1398.77 OFFCURVE",
"471.921 1351.78 OFFCURVE",
"407.932 1284.79 CURVE SMOOTH",
"324.946 1197.8 OFFCURVE",
"273.954 1091.82 OFFCURVE",
"242.96 980.837 CURVE SMOOTH",
"211.965 868.855 OFFCURVE",
"201.966 752.875 OFFCURVE",
"201.966 648.892 CURVE SMOOTH",
"201.966 568.905 OFFCURVE",
"208.965 487.919 OFFCURVE",
"228.962 411.931 CURVE SMOOTH",
"247.959 334.944 OFFCURVE",
"276.954 262.956 OFFCURVE",
"323.946 198.967 CURVE SMOOTH",
"376.937 126.979 OFFCURVE",
"447.925 79.9867 OFFCURVE",
"527.912 48.9918 CURVE SMOOTH",
"607.899 17.997 OFFCURVE",
"696.884 5.999 OFFCURVE",
"785.869 5.999 CURVE SMOOTH",
"808.865 5.999 OFFCURVE",
"829.862 6.99884 OFFCURVE",
"848.859 8.9985 CURVE",
"873.855 -22 OFFCURVE",
"897.851 -52 OFFCURVE",
"920.847 -79 CURVE SMOOTH",
"943.843 -106 OFFCURVE",
"967.839 -135 OFFCURVE",
"992.835 -166 CURVE",
"991.835 -166 LINE",
"1035.83 -219 LINE",
"1190.8 -223 OFFCURVE",
"1353.77 -234 OFFCURVE",
"1525.75 -252 CURVE",
"1520.75 -246 OFFCURVE",
"1513.75 -238 OFFCURVE",
"1505.75 -228 CURVE",
"1496.75 -218 OFFCURVE",
"1487.75 -207 OFFCURVE",
"1478.75 -196 CURVE SMOOTH",
"1469.76 -185 OFFCURVE",
"1460.76 -175 OFFCURVE",
"1452.76 -165 CURVE",
"1443.76 -155 OFFCURVE",
"1436.76 -147 OFFCURVE",
"1431.76 -141 CURVE SMOOTH",
"1358.77 -56 OFFCURVE",
"1287.79 29.995 OFFCURVE",
"1218.8 117.98 CURVE",
"1282.79 185.969 OFFCURVE",
"1332.78 261.956 OFFCURVE",
"1381.77 345.942 CURVE SMOOTH"
);
}
);
width = 1846;
}
);
unicode = 0051;
},
{
glyphname = R;
layers = (
{
layerId = "101ED48A-DA64-4145-AD97-87CDC2521746";
name = "Bold Italic";
paths = (
{
closed = 1;
nodes = (
"1226.8 1159.81 OFFCURVE",
"1217.8 1212.8 OFFCURVE",
"1196.8 1261.79 CURVE SMOOTH",
"1175.8 1309.78 OFFCURVE",
"1141.81 1353.77 OFFCURVE",
"1090.82 1388.77 CURVE",
"1002.83 1439.76 OFFCURVE",
"900.85 1452.76 OFFCURVE",
"799.867 1455.76 CURVE SMOOTH",
"655.891 1458.76 OFFCURVE",
"508.915 1465.76 OFFCURVE",
"347.942 1486.75 CURVE",
"347.942 1401.77 LINE SMOOTH",
"347.942 944.843 OFFCURVE",
"305.949 483.919 OFFCURVE",
"217.964 6.99884 CURVE",
"253.958 10.9982 OFFCURVE",
"300.95 14.9975 OFFCURVE",
"347.942 18.9968 CURVE SMOOTH",
"394.934 22.9962 OFFCURVE",
"440.927 26.9955 OFFCURVE",
"476.921 27.9953 CURVE",
"504.916 223.963 OFFCURVE",
"530.912 429.928 OFFCURVE",
"549.908 625.896 CURVE",
"573.904 626.896 OFFCURVE",
"594.901 626.896 OFFCURVE",
"613.898 626.896 CURVE SMOOTH",
"631.895 626.896 OFFCURVE",
"652.891 626.896 OFFCURVE",
"677.887 626.896 CURVE SMOOTH",
"737.877 626.896 OFFCURVE",
"794.868 616.897 OFFCURVE",
"841.86 583.903 CURVE",
"840.86 584.903 LINE",
"893.851 537.91 OFFCURVE",
"925.846 468.922 OFFCURVE",
"954.841 400.933 CURVE",
"953.841 402.933 LINE",
"992.835 279.953 OFFCURVE",
"1036.83 150.975 OFFCURVE",
"1080.82 30.9948 CURVE",
"1123.81 27.9953 OFFCURVE",
"1178.8 24.9958 OFFCURVE",
"1232.79 20.9965 CURVE SMOOTH",
"1286.79 15.9973 OFFCURVE",
"1339.78 10.9982 OFFCURVE",
"1382.77 5.999 CURVE",
"1350.78 69.9883 OFFCURVE",
"1317.78 142.976 OFFCURVE",
"1283.79 215.964 CURVE SMOOTH",
"1249.79 288.952 OFFCURVE",
"1216.8 361.94 OFFCURVE",
"1188.8 428.929 CURVE",
"1189.8 427.929 LINE",
"1176.8 457.924 LINE SMOOTH",
"1155.81 502.916 OFFCURVE",
"1133.81 550.908 OFFCURVE",
"1106.82 593.901 CURVE SMOOTH",
"1078.82 636.894 OFFCURVE",
"1044.83 674.888 OFFCURVE",
"999.834 699.883 CURVE",
"1080.82 731.878 OFFCURVE",
"1137.81 796.867 OFFCURVE",
"1174.8 871.855 CURVE SMOOTH",
"1210.8 946.842 OFFCURVE",
"1226.8 1031.83 OFFCURVE",
"1226.8 1106.82 CURVE SMOOTH"
);
},
{
closed = 1;
nodes = (
"578.904 1361.77 LINE",
"578.904 1358.77 OFFCURVE",
"578.904 1354.77 OFFCURVE",
"578.904 1351.78 CURVE",
"577.904 1348.78 OFFCURVE",
"577.904 1344.78 OFFCURVE",
"577.904 1341.78 CURVE",
"557.907 1343.78 LINE"
);
},
{
closed = 1;
nodes = (
"884.853 1333.78 OFFCURVE",
"950.842 1313.78 OFFCURVE",
"1006.83 1273.79 CURVE SMOOTH",
"1058.82 1237.79 OFFCURVE",
"1072.82 1172.8 OFFCURVE",
"1072.82 1105.82 CURVE SMOOTH",
"1072.82 1090.82 OFFCURVE",
"1071.82 1076.82 OFFCURVE",
"1070.82 1061.82 CURVE",
"1070.82 1058.82 OFFCURVE",
"1070.82 1055.82 OFFCURVE",
"1070.82 1053.82 CURVE",
"1069.82 1050.83 OFFCURVE",
"1069.82 1047.83 OFFCURVE",
"1069.82 1044.83 CURVE",
"1062.82 984.836 OFFCURVE",
"1017.83 932.845 OFFCURVE",
"960.84 896.851 CURVE SMOOTH",
"903.85 860.857 OFFCURVE",
"831.862 839.86 OFFCURVE",
"774.871 839.86 CURVE SMOOTH",
"737.877 839.86 OFFCURVE",
"699.883 839.86 OFFCURVE",
"662.89 839.86 CURVE SMOOTH",
"625.896 839.86 OFFCURVE",
"587.902 839.86 OFFCURVE",
"550.908 840.86 CURVE",
"557.907 927.846 OFFCURVE",
"562.906 1009.83 OFFCURVE",
"566.906 1091.82 CURVE SMOOTH",
"570.905 1173.8 OFFCURVE",
"574.904 1254.79 OFFCURVE",
"577.904 1341.78 CURVE",
"617.897 1338.78 OFFCURVE",
"657.891 1337.78 OFFCURVE",
"696.884 1336.78 CURVE SMOOTH",
"735.878 1335.78 OFFCURVE",
"773.871 1335.78 OFFCURVE",
"812.865 1334.78 CURVE SMOOTH"
);
}
);
width = 1648;
}
);
unicode = 0052;
},
{
glyphname = S;
layers = (
{
layerId = "101ED48A-DA64-4145-AD97-87CDC2521746";
name = "Bold Italic";
paths = (
{
closed = 1;
nodes = (
"1214.8 1426.76 LINE",
"1078.82 1462.76 OFFCURVE",
"940.843 1479.75 OFFCURVE",
"797.867 1479.75 CURVE SMOOTH",
"732.878 1479.75 OFFCURVE",
"665.889 1475.75 OFFCURVE",
"601.9 1460.76 CURVE SMOOTH",
"536.911 1445.76 OFFCURVE",
"472.921 1422.76 OFFCURVE",
"415.931 1382.77 CURVE SMOOTH",
"360.94 1343.78 OFFCURVE",
"323.946 1292.78 OFFCURVE",
"300.95 1235.79 CURVE SMOOTH",
"277.954 1178.8 OFFCURVE",
"268.955 1116.81 OFFCURVE",
"268.955 1057.82 CURVE SMOOTH",
"268.955 969.839 OFFCURVE",
"287.952 879.854 OFFCURVE",
"346.942 815.864 CURVE SMOOTH",
"385.936 775.871 OFFCURVE",
"432.928 746.876 OFFCURVE",
"482.92 725.879 CURVE SMOOTH",
"532.911 704.883 OFFCURVE",
"586.902 689.885 OFFCURVE",
"639.893 678.887 CURVE SMOOTH",
"672.888 671.888 LINE SMOOTH",
"728.879 660.89 OFFCURVE",
"807.866 644.893 OFFCURVE",
"873.855 613.898 CURVE SMOOTH",
"939.844 581.903 OFFCURVE",
"990.835 536.911 OFFCURVE",
"990.835 468.922 CURVE SMOOTH",
"990.835 443.926 OFFCURVE",
"977.837 420.93 OFFCURVE",
"960.84 400.933 CURVE SMOOTH",
"943.843 379.937 OFFCURVE",
"919.847 360.94 OFFCURVE",
"898.85 347.942 CURVE SMOOTH",
"825.863 300.95 OFFCURVE",
"735.878 286.952 OFFCURVE",
"651.891 286.952 CURVE SMOOTH",
"503.916 286.952 OFFCURVE",
"356.941 326.946 OFFCURVE",
"216.964 407.932 CURVE",
"211.965 359.94 OFFCURVE",
"202.966 301.95 OFFCURVE",
"194.968 242.96 CURVE SMOOTH",
"185.969 183.969 OFFCURVE",
"176.971 125.979 OFFCURVE",
"168.972 77.987 CURVE",
"321.946 30.9948 OFFCURVE",
"475.921 9.99834 OFFCURVE",
"628.895 9.99834 CURVE SMOOTH",
"699.883 10.9982 OFFCURVE",
"772.871 13.9977 OFFCURVE",
"844.859 27.9953 CURVE SMOOTH",
"916.847 41.993 OFFCURVE",
"989.835 65.989 OFFCURVE",
"1057.82 110.982 CURVE",
"1114.81 151.975 OFFCURVE",
"1152.81 208.965 OFFCURVE",
"1174.8 269.955 CURVE SMOOTH",
"1196.8 330.945 OFFCURVE",
"1203.8 398.934 OFFCURVE",
"1203.8 459.923 CURVE SMOOTH",
"1203.8 518.914 OFFCURVE",
"1192.8 576.904 OFFCURVE",
"1169.81 629.895 CURVE SMOOTH",
"1145.81 682.886 OFFCURVE",
"1109.82 729.879 OFFCURVE",
"1057.82 765.872 CURVE SMOOTH",
"969.839 825.863 OFFCURVE",
"871.855 846.859 OFFCURVE",
"772.871 866.856 CURVE SMOOTH",
"713.881 878.854 LINE",
"680.887 886.852 OFFCURVE",
"644.893 894.851 OFFCURVE",
"609.898 906.849 CURVE SMOOTH",
"574.904 917.847 OFFCURVE",
"542.91 932.845 OFFCURVE",
"515.914 953.841 CURVE",
"488.919 982.836 OFFCURVE",
"475.921 1028.83 OFFCURVE",
"475.921 1071.82 CURVE SMOOTH",
"475.921 1139.81 OFFCURVE",
"502.916 1207.8 OFFCURVE",
"575.904 1255.79 CURVE",
"573.904 1254.79 LINE",
"648.892 1294.78 OFFCURVE",
"729.879 1304.78 OFFCURVE",
"806.866 1304.78 CURVE SMOOTH",
"935.844 1304.78 OFFCURVE",
"1066.82 1268.79 OFFCURVE",
"1195.8 1213.8 CURVE",
"1198.8 1233.79 OFFCURVE",
"1201.8 1259.79 OFFCURVE",
"1205.8 1284.79 CURVE SMOOTH",
"1207.8 1297.78 OFFCURVE",
"1209.8 1309.78 OFFCURVE",
"1211.8 1322.78 CURVE",
"1212.8 1334.78 OFFCURVE",
"1214.8 1345.78 OFFCURVE",
"1215.8 1354.77 CURVE",
"1224.8 1413.76 LINE",
"1208.8 1414.76 LINE"
);
}
);
width = 1388;
}
);
unicode = 0053;
},
{
glyphname = T;
layers = (
{
layerId = "101ED48A-DA64-4145-AD97-87CDC2521746";
name = "Bold Italic";
paths = (
{
closed = 1;
nodes = (
"344.943 1415.76 OFFCURVE",
"345.942 1347.78 OFFCURVE",
"345.942 1298.78 CURVE",
"437.927 1291.79 OFFCURVE",
"549.908 1289.79 OFFCURVE",
"641.893 1289.79 CURVE SMOOTH",
"656.891 1289.79 OFFCURVE",
"672.888 1289.79 OFFCURVE",
"690.885 1289.79 CURVE SMOOTH",
"725.879 1289.79 OFFCURVE",
"761.873 1290.79 OFFCURVE",
"797.867 1291.79 CURVE SMOOTH",
"814.864 1291.79 OFFCURVE",
"831.862 1291.79 OFFCURVE",
"846.859 1291.79 CURVE",
"802.866 870.855 OFFCURVE",
"751.875 456.924 OFFCURVE",
"695.884 35.994 CURVE",
"701.883 35.994 OFFCURVE",
"708.882 35.994 OFFCURVE",
"717.88 35.994 CURVE SMOOTH",
"726.879 35.994 OFFCURVE",
"735.878 35.994 OFFCURVE",
"744.876 36.9938 CURVE",
"753.875 36.9938 OFFCURVE",
"761.873 36.9938 OFFCURVE",
"770.872 36.9938 CURVE SMOOTH",
"779.87 36.9938 OFFCURVE",
"786.869 36.9938 OFFCURVE",
"792.868 36.9938 CURVE SMOOTH",
"865.856 36.9938 LINE SMOOTH",
"902.85 36.9938 OFFCURVE",
"958.84 35.994 OFFCURVE",
"994.834 34.9942 CURVE",
"1003.83 449.925 OFFCURVE",
"1032.83 876.854 OFFCURVE",
"1061.82 1292.78 CURVE",
"1126.81 1289.79 OFFCURVE",
"1175.8 1289.79 OFFCURVE",
"1242.79 1289.79 CURVE SMOOTH",
"1342.78 1289.79 OFFCURVE",
"1461.76 1293.78 OFFCURVE",
"1562.74 1297.78 CURVE",
"1565.74 1315.78 OFFCURVE",
"1569.74 1335.78 OFFCURVE",
"1574.74 1358.77 CURVE SMOOTH",
"1579.74 1381.77 OFFCURVE",
"1583.74 1401.77 OFFCURVE",
"1586.74 1419.76 CURVE SMOOTH",
"1597.73 1485.75 LINE",
"1374.77 1464.76 OFFCURVE",
"1162.81 1453.76 OFFCURVE",
"951.842 1453.76 CURVE SMOOTH",
"754.874 1453.76 OFFCURVE",
"559.907 1463.76 OFFCURVE",
"365.939 1483.75 CURVE",
"343.943 1464.76 LINE"
);
}
);
width = 1554;
}
);
unicode = 0054;
},
{
glyphname = U;
layers = (
{
layerId = "101ED48A-DA64-4145-AD97-87CDC2521746";
name = "Bold Italic";
paths = (
{
closed = 1;
nodes = (
"342.943 1118.81 OFFCURVE",
"325.946 846.859 OFFCURVE",
"297.95 567.905 CURVE SMOOTH",
"293.951 526.912 OFFCURVE",
"290.952 484.919 OFFCURVE",
"290.952 440.927 CURVE SMOOTH",
"290.952 385.936 OFFCURVE",
"295.951 331.945 OFFCURVE",
"310.948 279.953 CURVE SMOOTH",
"325.946 226.962 OFFCURVE",
"348.942 176.971 OFFCURVE",
"387.935 132.978 CURVE SMOOTH",
"436.927 80.9865 OFFCURVE",
"500.917 49.9917 OFFCURVE",
"569.905 31.9947 CURVE SMOOTH",
"638.894 13.9977 OFFCURVE",
"712.881 8.9985 OFFCURVE",
"784.869 8.9985 CURVE SMOOTH",
"856.857 8.9985 OFFCURVE",
"933.845 14.9975 OFFCURVE",
"1007.83 34.9942 CURVE SMOOTH",
"1081.82 54.9908 OFFCURVE",
"1151.81 89.985 OFFCURVE",
"1214.8 149.975 CURVE",
"1267.79 206.966 OFFCURVE",
"1303.78 274.954 OFFCURVE",
"1325.78 346.942 CURVE SMOOTH",
"1347.78 417.93 OFFCURVE",
"1357.77 492.918 OFFCURVE",
"1362.77 563.906 CURVE SMOOTH",
"1385.77 863.856 OFFCURVE",
"1417.76 1164.81 OFFCURVE",
"1480.75 1484.75 CURVE",
"1404.77 1477.75 LINE SMOOTH",
"1361.77 1472.75 OFFCURVE",
"1303.78 1467.76 OFFCURVE",
"1260.79 1464.76 CURVE",
"1250.79 1406.77 OFFCURVE",
"1241.79 1346.78 OFFCURVE",
"1233.79 1284.79 CURVE SMOOTH",
"1216.8 1160.81 OFFCURVE",
"1200.8 1033.83 OFFCURVE",
"1188.8 909.849 CURVE SMOOTH",
"1181.8 846.859 OFFCURVE",
"1175.8 786.869 OFFCURVE",
"1169.81 727.879 CURVE SMOOTH",
"1164.81 672.888 OFFCURVE",
"1156.81 614.898 OFFCURVE",
"1140.81 558.907 CURVE SMOOTH",
"1124.81 502.916 OFFCURVE",
"1100.82 449.925 OFFCURVE",
"1067.82 405.932 CURVE",
"1035.83 369.938 OFFCURVE",
"993.835 347.942 OFFCURVE",
"947.842 333.944 CURVE SMOOTH",
"901.85 319.947 OFFCURVE",
"851.858 314.948 OFFCURVE",
"806.866 314.948 CURVE SMOOTH",
"761.873 314.948 OFFCURVE",
"712.881 318.947 OFFCURVE",
"668.889 331.945 CURVE SMOOTH",
"624.896 344.943 OFFCURVE",
"586.902 367.939 OFFCURVE",
"561.906 403.933 CURVE",
"562.906 403.933 LINE",
"521.913 464.923 OFFCURVE",
"511.915 539.91 OFFCURVE",
"511.915 618.897 CURVE SMOOTH",
"511.915 651.891 OFFCURVE",
"513.914 687.885 OFFCURVE",
"516.914 722.88 CURVE SMOOTH",
"536.911 965.839 OFFCURVE",
"552.908 1221.8 OFFCURVE",
"557.907 1462.76 CURVE",
"497.917 1466.76 OFFCURVE",
"424.929 1474.75 OFFCURVE",
"364.939 1482.75 CURVE",
"342.943 1463.76 LINE",
"342.943 1394.77 LINE SMOOTH"
);
}
);
width = 1522;
}
);
unicode = 0055;
},
{
glyphname = V;
layers = (
{
layerId = "101ED48A-DA64-4145-AD97-87CDC2521746";
name = "Bold Italic";
paths = (
{
closed = 1;
nodes = (
"856.857 35.994 OFFCURVE",
"871.855 35.994 OFFCURVE",
"886.852 36.9938 CURVE",
"901.85 36.9938 OFFCURVE",
"916.847 36.9938 OFFCURVE",
"931.845 36.9938 CURVE SMOOTH",
"953.841 36.9938 OFFCURVE",
"977.837 36.9938 OFFCURVE",
"1003.83 36.9938 CURVE SMOOTH",
"1029.83 36.9938 OFFCURVE",
"1053.82 36.9938 OFFCURVE",
"1075.82 35.994 CURVE",
"1162.81 250.958 LINE SMOOTH",
"1243.79 454.924 OFFCURVE",
"1327.78 659.89 OFFCURVE",
"1417.76 864.856 CURVE SMOOTH",
"1507.75 1069.82 OFFCURVE",
"1605.73 1276.79 OFFCURVE",
"1717.71 1485.75 CURVE",
"1622.73 1478.75 LINE SMOOTH",
"1579.74 1474.75 OFFCURVE",
"1529.75 1470.76 OFFCURVE",
"1486.75 1467.76 CURVE",
"1409.77 1339.78 OFFCURVE",
"1334.78 1200.8 OFFCURVE",
"1260.79 1060.82 CURVE SMOOTH",
"1186.8 920.847 OFFCURVE",
"1115.81 779.87 OFFCURVE",
"1048.83 646.892 CURVE SMOOTH",
"1029.83 610.898 OFFCURVE",
"1011.83 574.904 OFFCURVE",
"993.835 537.91 CURVE SMOOTH",
"975.838 500.917 OFFCURVE",
"957.841 463.923 OFFCURVE",
"938.844 426.929 CURVE",
"873.855 621.896 LINE SMOOTH",
"781.87 904.849 OFFCURVE",
"685.886 1194.8 OFFCURVE",
"572.905 1466.76 CURVE",
"541.91 1467.76 OFFCURVE",
"501.916 1471.76 OFFCURVE",
"460.923 1475.75 CURVE SMOOTH",
"419.93 1479.75 OFFCURVE",
"379.937 1483.75 OFFCURVE",
"348.942 1487.75 CURVE",
"381.936 1393.77 OFFCURVE",
"412.931 1301.78 OFFCURVE",
"440.927 1210.8 CURVE SMOOTH",
"496.917 1028.83 OFFCURVE",
"543.909 848.859 OFFCURVE",
"586.902 671.888 CURVE SMOOTH",
"629.895 494.918 OFFCURVE",
"664.889 346.942 OFFCURVE",
"692.885 228.962 CURVE SMOOTH",
"706.882 169.972 OFFCURVE",
"720.88 109.982 OFFCURVE",
"735.878 50.9915 CURVE",
"754.874 35.994 LINE",
"841.86 35.994 LINE SMOOTH"
);
}
);
width = 1669;
}
);
unicode = 0056;
},
{
glyphname = W;
layers = (
{
layerId = "101ED48A-DA64-4145-AD97-87CDC2521746";
name = "Bold Italic";
paths = (
{
closed = 1;
nodes = (
"415.931 1248.79 OFFCURVE",
"462.923 1005.83 OFFCURVE",
"494.918 761.873 CURVE SMOOTH",
"525.912 516.914 OFFCURVE",
"541.91 269.955 OFFCURVE",
"550.908 24.9958 CURVE",
"575.904 25.9957 OFFCURVE",
"601.9 26.9955 OFFCURVE",
"628.895 27.9953 CURVE SMOOTH",
"655.891 28.9952 OFFCURVE",
"683.886 29.995 OFFCURVE",
"712.881 30.9948 CURVE SMOOTH",
"768.872 32.9945 OFFCURVE",
"825.863 33.9943 OFFCURVE",
"874.854 33.9943 CURVE",
"933.845 149.975 OFFCURVE",
"992.835 274.954 OFFCURVE",
"1051.82 399.933 CURVE SMOOTH",
"1110.82 524.913 OFFCURVE",
"1167.81 650.892 OFFCURVE",
"1220.8 769.872 CURVE",
"1223.8 758.874 OFFCURVE",
"1225.8 749.875 OFFCURVE",
"1227.8 744.876 CURVE",
"1228.8 738.877 OFFCURVE",
"1230.8 733.878 OFFCURVE",
"1231.79 728.879 CURVE SMOOTH",
"1233.79 719.88 OFFCURVE",
"1235.79 710.882 OFFCURVE",
"1240.79 687.885 CURVE SMOOTH",
"1293.78 471.921 OFFCURVE",
"1347.78 255.957 OFFCURVE",
"1422.76 34.9942 CURVE",
"1466.76 33.9943 OFFCURVE",
"1519.75 31.9947 OFFCURVE",
"1572.74 30.9948 CURVE SMOOTH",
"1624.73 29.995 OFFCURVE",
"1677.72 27.9953 OFFCURVE",
"1722.71 26.9955 CURVE",
"1779.7 270.955 OFFCURVE",
"1845.69 515.914 OFFCURVE",
"1926.68 759.874 CURVE SMOOTH",
"2006.67 1003.83 OFFCURVE",
"2103.65 1245.79 OFFCURVE",
"2222.63 1484.75 CURVE",
"2211.63 1484.75 OFFCURVE",
"2192.64 1483.75 OFFCURVE",
"2173.64 1482.75 CURVE",
"2163.64 1481.75 OFFCURVE",
"2153.64 1481.75 OFFCURVE",
"2144.64 1481.75 CURVE",
"2135.64 1480.75 OFFCURVE",
"2127.65 1480.75 OFFCURVE",
"2121.65 1479.75 CURVE",
"2086.65 1476.75 OFFCURVE",
"2043.66 1474.75 OFFCURVE",
"2008.67 1473.75 CURVE",
"1829.7 1140.81 OFFCURVE",
"1692.72 797.867 OFFCURVE",
"1565.74 449.925 CURVE",
"1550.74 488.919 OFFCURVE",
"1536.74 525.912 OFFCURVE",
"1523.75 560.907 CURVE SMOOTH",
"1498.75 628.895 OFFCURVE",
"1474.75 695.884 OFFCURVE",
"1450.76 764.873 CURVE SMOOTH",
"1438.76 799.867 OFFCURVE",
"1425.76 836.861 OFFCURVE",
"1411.77 875.854 CURVE SMOOTH",
"1387.77 946.842 OFFCURVE",
"1357.77 1027.83 OFFCURVE",
"1332.78 1096.82 CURVE",
"1155.81 1096.82 LINE",
"1130.81 1055.82 OFFCURVE",
"1104.82 1012.83 OFFCURVE",
"1078.82 967.839 CURVE SMOOTH",
"1052.82 922.846 OFFCURVE",
"1027.83 878.854 OFFCURVE",
"1002.83 836.861 CURVE SMOOTH",
"930.845 711.882 OFFCURVE",
"858.857 590.902 OFFCURVE",
"782.87 467.922 CURVE",
"755.874 635.894 OFFCURVE",
"725.879 803.866 OFFCURVE",
"689.885 971.838 CURVE SMOOTH",
"652.891 1138.81 OFFCURVE",
"609.898 1305.78 OFFCURVE",
"554.908 1470.76 CURVE",
"430.928 1479.75 LINE",
"347.942 1485.75 LINE"
);
}
);
width = 2174;
}
);
unicode = 0057;
},
{
glyphname = X;
layers = (
{
layerId = "101ED48A-DA64-4145-AD97-87CDC2521746";
name = "Bold Italic";
paths = (
{
closed = 1;
nodes = (
"460.923 1220.8 OFFCURVE",
"574.904 981.837 OFFCURVE",
"683.886 745.876 CURVE SMOOTH",
"686.886 738.877 OFFCURVE",
"689.885 731.878 OFFCURVE",
"692.885 724.879 CURVE SMOOTH",
"695.884 717.88 OFFCURVE",
"699.883 709.882 OFFCURVE",
"702.883 702.883 CURVE",
"610.898 589.902 OFFCURVE",
"513.914 470.922 OFFCURVE",
"415.931 351.941 CURVE SMOOTH",
"317.947 231.961 OFFCURVE",
"217.964 113.981 OFFCURVE",
"122.98 4.99917 CURVE",
"147.975 7.99867 OFFCURVE",
"174.971 9.99834 OFFCURVE",
"205.966 12.9978 CURVE SMOOTH",
"265.956 16.9972 OFFCURVE",
"330.945 21.9963 OFFCURVE",
"391.935 25.9957 CURVE SMOOTH",
"422.93 26.9955 OFFCURVE",
"449.925 28.9952 OFFCURVE",
"473.921 29.995 CURVE",
"590.902 190.968 OFFCURVE",
"706.882 359.94 OFFCURVE",
"817.864 527.912 CURVE",
"858.857 439.927 OFFCURVE",
"900.85 357.94 OFFCURVE",
"941.843 277.954 CURVE SMOOTH",
"982.836 196.967 OFFCURVE",
"1025.83 115.981 OFFCURVE",
"1072.82 31.9947 CURVE",
"1121.81 28.9952 OFFCURVE",
"1183.8 24.9958 OFFCURVE",
"1244.79 20.9965 CURVE SMOOTH",
"1305.78 15.9973 OFFCURVE",
"1367.77 10.9982 OFFCURVE",
"1415.76 5.999 CURVE",
"1342.78 112.981 OFFCURVE",
"1266.79 228.962 OFFCURVE",
"1191.8 347.942 CURVE SMOOTH",
"1116.81 466.922 OFFCURVE",
"1043.83 585.902 OFFCURVE",
"976.837 697.884 CURVE",
"1144.81 956.841 OFFCURVE",
"1327.78 1233.79 OFFCURVE",
"1511.75 1482.75 CURVE",
"1408.77 1475.75 LINE SMOOTH",
"1365.77 1471.76 OFFCURVE",
"1316.78 1468.76 OFFCURVE",
"1273.79 1465.76 CURVE",
"1130.81 1272.79 OFFCURVE",
"992.835 1069.82 OFFCURVE",
"859.857 870.855 CURVE",
"834.861 921.847 OFFCURVE",
"809.865 972.838 OFFCURVE",
"785.869 1021.83 CURVE SMOOTH",
"760.873 1070.82 OFFCURVE",
"736.877 1119.81 OFFCURVE",
"711.882 1168.81 CURVE SMOOTH",
"662.89 1264.79 OFFCURVE",
"611.898 1361.77 OFFCURVE",
"556.907 1461.76 CURVE",
"547.909 1462.76 OFFCURVE",
"535.911 1463.76 OFFCURVE",
"520.913 1464.76 CURVE SMOOTH",
"505.916 1465.76 OFFCURVE",
"492.918 1465.76 OFFCURVE",
"482.92 1466.76 CURVE SMOOTH",
"439.927 1469.76 OFFCURVE",
"401.933 1471.76 OFFCURVE",
"358.94 1476.75 CURVE",
"339.943 1448.76 LINE"
);
}
);
width = 1681;
}
);
unicode = 0058;
},
{
glyphname = Y;
layers = (
{
layerId = "101ED48A-DA64-4145-AD97-87CDC2521746";
name = "Bold Italic";
paths = (
{
closed = 1;
nodes = (
"486.919 1148.81 OFFCURVE",
"608.899 836.861 OFFCURVE",
"732.878 523.913 CURVE",
"725.879 444.926 OFFCURVE",
"717.88 362.94 OFFCURVE",
"708.882 279.953 CURVE SMOOTH",
"699.883 196.967 OFFCURVE",
"691.885 114.981 OFFCURVE",
"683.886 35.994 CURVE",
"689.885 35.994 OFFCURVE",
"696.884 35.994 OFFCURVE",
"705.883 35.994 CURVE SMOOTH",
"713.881 35.994 OFFCURVE",
"721.88 35.994 OFFCURVE",
"730.878 36.9938 CURVE",
"739.877 36.9938 OFFCURVE",
"747.876 36.9938 OFFCURVE",
"755.874 36.9938 CURVE SMOOTH",
"763.873 36.9938 OFFCURVE",
"770.872 36.9938 OFFCURVE",
"776.871 36.9938 CURVE SMOOTH",
"846.859 36.9938 LINE SMOOTH",
"881.853 36.9938 OFFCURVE",
"935.844 35.994 OFFCURVE",
"970.838 34.9942 CURVE",
"979.837 191.968 OFFCURVE",
"989.835 364.939 OFFCURVE",
"1004.83 523.913 CURVE",
"1018.83 548.909 OFFCURVE",
"1032.83 573.904 OFFCURVE",
"1047.83 598.9 CURVE SMOOTH",
"1062.82 623.896 OFFCURVE",
"1076.82 648.892 OFFCURVE",
"1091.82 673.888 CURVE SMOOTH",
"1167.81 805.866 OFFCURVE",
"1250.79 945.843 OFFCURVE",
"1334.78 1084.82 CURVE SMOOTH",
"1418.76 1223.8 OFFCURVE",
"1504.75 1359.77 OFFCURVE",
"1591.74 1486.75 CURVE",
"1512.75 1479.75 LINE SMOOTH",
"1461.76 1474.75 OFFCURVE",
"1404.77 1470.76 OFFCURVE",
"1353.77 1467.76 CURVE",
"1193.8 1235.79 OFFCURVE",
"1041.83 990.835 OFFCURVE",
"893.851 750.875 CURVE",
"838.86 874.854 OFFCURVE",
"786.869 993.835 OFFCURVE",
"731.878 1110.82 CURVE SMOOTH",
"676.887 1227.8 OFFCURVE",
"619.897 1344.78 OFFCURVE",
"558.907 1464.76 CURVE",
"495.917 1469.76 OFFCURVE",
"424.929 1475.75 OFFCURVE",
"360.94 1483.75 CURVE",
"341.943 1455.76 LINE"
);
}
);
width = 1543;
}
);
unicode = 0059;
},
{
glyphname = Z;
layers = (
{
layerId = "101ED48A-DA64-4145-AD97-87CDC2521746";
name = "Bold Italic";
paths = (
{
closed = 1;
nodes = (
"533.911 1279.79 OFFCURVE",
"712.881 1273.79 OFFCURVE",
"888.852 1273.79 CURVE SMOOTH",
"991.835 1273.79 OFFCURVE",
"1095.82 1275.79 OFFCURVE",
"1199.8 1279.79 CURVE",
"1032.83 1112.81 OFFCURVE",
"874.854 953.841 OFFCURVE",
"717.88 793.868 CURVE SMOOTH",
"560.907 632.895 OFFCURVE",
"405.932 470.922 OFFCURVE",
"242.96 301.95 CURVE",
"235.961 257.957 OFFCURVE",
"226.962 205.966 OFFCURVE",
"217.964 153.974 CURVE SMOOTH",
"208.965 101.983 OFFCURVE",
"198.967 50.9915 OFFCURVE",
"189.968 6.99884 CURVE",
"406.932 26.9955 OFFCURVE",
"610.898 36.9938 OFFCURVE",
"801.867 36.9938 CURVE SMOOTH",
"996.834 36.9938 OFFCURVE",
"1195.8 26.9955 OFFCURVE",
"1402.77 7.99867 CURVE",
"1399.77 66.9889 OFFCURVE",
"1398.77 145.976 OFFCURVE",
"1398.77 204.966 CURVE SMOOTH",
"1398.77 237.96 OFFCURVE",
"1399.77 288.952 OFFCURVE",
"1400.77 320.947 CURVE",
"1220.8 332.945 OFFCURVE",
"1023.83 338.944 OFFCURVE",
"840.86 338.944 CURVE SMOOTH",
"732.878 338.944 OFFCURVE",
"622.896 336.944 OFFCURVE",
"514.914 333.944 CURVE",
"556.907 375.937 OFFCURVE",
"596.901 415.931 OFFCURVE",
"634.894 454.924 CURVE SMOOTH",
"709.882 530.912 OFFCURVE",
"782.87 605.899 OFFCURVE",
"858.857 682.886 CURVE SMOOTH",
"895.851 721.88 OFFCURVE",
"935.844 761.873 OFFCURVE",
"976.837 803.866 CURVE SMOOTH",
"1059.82 888.852 OFFCURVE",
"1143.81 974.838 OFFCURVE",
"1227.8 1059.82 CURVE SMOOTH",
"1311.78 1144.81 OFFCURVE",
"1395.77 1230.8 OFFCURVE",
"1478.75 1315.78 CURVE",
"1492.75 1390.77 LINE",
"1493.75 1402.77 OFFCURVE",
"1497.75 1420.76 OFFCURVE",
"1501.75 1437.76 CURVE SMOOTH",
"1503.75 1446.76 OFFCURVE",
"1505.75 1454.76 OFFCURVE",
"1506.75 1463.76 CURVE SMOOTH",
"1507.75 1471.76 OFFCURVE",
"1509.75 1478.75 OFFCURVE",
"1510.75 1484.75 CURVE",
"1297.78 1464.76 OFFCURVE",
"1095.82 1454.76 OFFCURVE",
"906.849 1454.76 CURVE SMOOTH",
"723.88 1454.76 OFFCURVE",
"544.909 1461.76 OFFCURVE",
"363.939 1480.75 CURVE",
"342.943 1461.76 LINE",
"342.943 1296.78 LINE"
);
}
);
width = 1668;
}
);
unicode = 005A;
},
{
glyphname = bracketleft;
layers = (
{
layerId = "101ED48A-DA64-4145-AD97-87CDC2521746";
name = "Bold Italic";
paths = (
{
closed = 1;
nodes = (
"321.946 936.844 OFFCURVE",
"267.955 326.946 OFFCURVE",
"199.967 -262 CURVE",
"281.953 -234 OFFCURVE",
"356.941 -220 OFFCURVE",
"424.929 -220 CURVE SMOOTH",
"488.919 -220 OFFCURVE",
"558.907 -234 OFFCURVE",
"634.894 -262 CURVE",
"639.893 -168 LINE SMOOTH",
"642.893 -125 OFFCURVE",
"645.893 -65 OFFCURVE",
"648.892 -21 CURVE",
"573.904 2.9995 OFFCURVE",
"503.916 8.9985 OFFCURVE",
"438.927 8.9985 CURVE SMOOTH",
"424.929 8.9985 LINE",
"465.922 460.923 OFFCURVE",
"504.916 901.85 OFFCURVE",
"540.91 1352.77 CURVE",
"545.909 1351.78 OFFCURVE",
"548.909 1351.78 OFFCURVE",
"548.909 1352.77 CURVE",
"547.909 1352.77 OFFCURVE",
"550.908 1352.77 OFFCURVE",
"555.907 1352.77 CURVE SMOOTH",
"624.896 1352.77 OFFCURVE",
"697.884 1361.77 OFFCURVE",
"773.871 1388.77 CURVE",
"784.869 1480.75 LINE",
"791.868 1552.74 LINE",
"708.882 1523.75 OFFCURVE",
"631.895 1506.75 OFFCURVE",
"563.906 1506.75 CURVE SMOOTH",
"500.917 1506.75 OFFCURVE",
"439.927 1517.75 OFFCURVE",
"384.936 1541.74 CURVE",
"356.941 1525.75 LINE"
);
}
);
width = 957;
}
);
unicode = 005B;
},
{
glyphname = backslash;
layers = (
{
layerId = "101ED48A-DA64-4145-AD97-87CDC2521746";
name = "Bold Italic";
paths = (
{
closed = 1;
nodes = (
"470.922 1457.76 OFFCURVE",
"419.93 1466.76 OFFCURVE",
"348.942 1491.75 CURVE",
"361.94 1422.76 OFFCURVE",
"373.938 1351.78 OFFCURVE",
"386.936 1278.79 CURVE SMOOTH",
"410.932 1133.81 OFFCURVE",
"434.928 986.836 OFFCURVE",
"458.924 840.86 CURVE SMOOTH",
"469.922 767.872 OFFCURVE",
"481.92 695.884 OFFCURVE",
"492.918 626.896 CURVE SMOOTH",
"533.911 366.939 OFFCURVE",
"575.904 95.984 OFFCURVE",
"622.896 -163 CURVE",
"690.885 -168 OFFCURVE",
"743.876 -180 OFFCURVE",
"798.867 -195 CURVE",
"845.859 -204 LINE",
"817.864 -71 OFFCURVE",
"787.869 78.9869 OFFCURVE",
"759.874 229.962 CURVE SMOOTH",
"731.878 380.937 OFFCURVE",
"703.883 531.911 OFFCURVE",
"679.887 666.889 CURVE SMOOTH",
"632.895 923.846 OFFCURVE",
"586.902 1178.8 OFFCURVE",
"534.911 1434.76 CURVE",
"517.914 1450.76 LINE"
);
}
);
width = 1156;
}
);
unicode = 005C;
},
{
glyphname = bracketright;
layers = (
{
layerId = "101ED48A-DA64-4145-AD97-87CDC2521746";
name = "Bold Italic";
paths = (
{
closed = 1;
nodes = (
"703.883 1519.75 OFFCURVE",
"635.894 1506.75 OFFCURVE",
"567.905 1506.75 CURVE SMOOTH",
"504.916 1506.75 OFFCURVE",
"435.927 1521.75 OFFCURVE",
"362.94 1553.74 CURVE",
"357.94 1464.76 LINE",
"356.941 1454.76 OFFCURVE",
"355.941 1442.76 OFFCURVE",
"354.941 1427.76 CURVE SMOOTH",
"353.941 1412.76 OFFCURVE",
"353.941 1400.77 OFFCURVE",
"352.941 1390.77 CURVE",
"421.93 1359.77 OFFCURVE",
"491.918 1352.77 OFFCURVE",
"559.907 1352.77 CURVE SMOOTH",
"577.904 1352.77 LINE",
"566.906 1237.79 OFFCURVE",
"556.907 1123.81 OFFCURVE",
"546.909 1011.83 CURVE SMOOTH",
"525.912 787.869 OFFCURVE",
"506.916 564.906 OFFCURVE",
"487.919 340.943 CURVE SMOOTH",
"477.92 228.962 OFFCURVE",
"467.922 114.981 OFFCURVE",
"457.924 0 CURVE",
"445.926 0 LINE SMOOTH",
"378.937 0 OFFCURVE",
"306.949 -10 OFFCURVE",
"229.962 -30 CURVE",
"218.964 -137 LINE",
"204.966 -262 LINE",
"287.952 -234 OFFCURVE",
"361.94 -220 OFFCURVE",
"428.929 -220 CURVE SMOOTH",
"493.918 -220 OFFCURVE",
"562.906 -234 OFFCURVE",
"637.894 -261 CURVE",
"670.888 327.945 OFFCURVE",
"725.879 933.845 OFFCURVE",
"793.868 1522.75 CURVE",
"767.872 1542.74 LINE"
);
}
);
width = 960;
}
);
unicode = 005D;
},
{
glyphname = asciicircum;
layers = (
{
layerId = "101ED48A-DA64-4145-AD97-87CDC2521746";
name = "Bold Italic";
paths = (
{
closed = 1;
nodes = (
"826.862 1447.76 OFFCURVE",
"796.867 1419.76 OFFCURVE",
"765.872 1389.77 CURVE SMOOTH",
"734.878 1359.77 OFFCURVE",
"704.883 1331.78 OFFCURVE",
"677.887 1305.78 CURVE SMOOTH",
"614.898 1245.79 OFFCURVE",
"550.908 1184.8 OFFCURVE",
"478.92 1120.81 CURVE SMOOTH",
"405.932 1056.82 OFFCURVE",
"323.946 990.835 OFFCURVE",
"227.962 918.847 CURVE",
"250.958 919.847 OFFCURVE",
"276.954 920.847 OFFCURVE",
"306.949 921.847 CURVE SMOOTH",
"336.944 922.846 OFFCURVE",
"367.939 923.846 OFFCURVE",
"399.933 924.846 CURVE SMOOTH",
"462.923 926.846 OFFCURVE",
"525.912 927.846 OFFCURVE",
"570.905 927.846 CURVE",
"670.888 1027.83 OFFCURVE",
"750.875 1129.81 OFFCURVE",
"830.862 1230.8 CURVE SMOOTH",
"862.856 1271.79 OFFCURVE",
"892.851 1309.78 OFFCURVE",
"925.846 1349.78 CURVE",
"932.845 1338.78 OFFCURVE",
"938.844 1329.78 OFFCURVE",
"943.843 1320.78 CURVE SMOOTH",
"948.842 1311.78 OFFCURVE",
"954.841 1303.78 OFFCURVE",
"959.84 1295.78 CURVE SMOOTH",
"964.839 1287.79 OFFCURVE",
"969.839 1279.79 OFFCURVE",
"974.838 1271.79 CURVE",
"979.837 1262.79 OFFCURVE",
"984.836 1253.79 OFFCURVE",
"991.835 1242.79 CURVE SMOOTH",
"1056.82 1134.81 OFFCURVE",
"1119.81 1028.83 OFFCURVE",
"1207.8 928.845 CURVE",
"1230.8 927.846 OFFCURVE",
"1256.79 927.846 OFFCURVE",
"1287.79 926.846 CURVE SMOOTH",
"1347.78 925.846 OFFCURVE",
"1411.77 923.846 OFFCURVE",
"1471.76 920.847 CURVE SMOOTH",
"1500.75 919.847 OFFCURVE",
"1526.75 918.847 OFFCURVE",
"1549.74 917.847 CURVE",
"1458.76 990.835 OFFCURVE",
"1385.77 1059.82 OFFCURVE",
"1321.78 1126.81 CURVE SMOOTH",
"1257.79 1193.8 OFFCURVE",
"1202.8 1257.79 OFFCURVE",
"1147.81 1321.78 CURVE SMOOTH",
"1126.81 1346.78 OFFCURVE",
"1104.82 1371.77 OFFCURVE",
"1081.82 1398.77 CURVE SMOOTH",
"1058.82 1424.76 OFFCURVE",
"1036.83 1449.76 OFFCURVE",
"1015.83 1472.75 CURVE",
"855.858 1472.75 LINE"
);
}
);
width = 1622;
}
);
unicode = 005E;
},
{
glyphname = underscore;
layers = (
{
layerId = "101ED48A-DA64-4145-AD97-87CDC2521746";
name = "Bold Italic";
paths = (
{
closed = 1;
nodes = (
"856.857 -269 OFFCURVE",
"679.887 -270 OFFCURVE",
"499.917 -270 CURVE SMOOTH",
"459.923 -270 OFFCURVE",
"417.93 -270 OFFCURVE",
"372.938 -269 CURVE SMOOTH",
"327.945 -269 OFFCURVE",
"282.953 -269 OFFCURVE",
"237.96 -268 CURVE SMOOTH",
"146.976 -268 OFFCURVE",
"55.9907 -266 OFFCURVE",
"-24 -265 CURVE",
"8.9985 -302 OFFCURVE",
"25.9957 -332 OFFCURVE",
"25.9957 -354 CURVE SMOOTH",
"25.9957 -383 OFFCURVE",
"2.9995 -419 OFFCURVE",
"-44 -462 CURVE",
"39.9933 -461 OFFCURVE",
"137.977 -460 OFFCURVE",
"234.961 -459 CURVE SMOOTH",
"283.953 -459 OFFCURVE",
"331.945 -459 OFFCURVE",
"379.937 -458 CURVE SMOOTH",
"426.929 -458 OFFCURVE",
"471.921 -458 OFFCURVE",
"514.914 -458 CURVE SMOOTH",
"556.907 -458 OFFCURVE",
"601.9 -458 OFFCURVE",
"649.892 -458 CURVE SMOOTH",
"696.884 -459 OFFCURVE",
"745.876 -459 OFFCURVE",
"794.868 -459 CURVE SMOOTH",
"892.851 -460 OFFCURVE",
"989.835 -461 OFFCURVE",
"1073.82 -462 CURVE",
"1033.83 -425 OFFCURVE",
"1015.83 -395 OFFCURVE",
"1015.83 -375 CURVE SMOOTH",
"1015.83 -348 OFFCURVE",
"1028.83 -319 OFFCURVE",
"1049.83 -300 CURVE",
"1036.83 -266 LINE"
);
}
);
width = 1439;
}
);
unicode = 005F;
},
{
glyphname = a;
lastChange = "2013-01-12 20:32:58 -0500";
layers = (
{
layerId = "101ED48A-DA64-4145-AD97-87CDC2521746";
name = "Bold Italic";
paths = (
{
closed = 1;
nodes = (
"562.906 1119.81 OFFCURVE",
"503.916 1105.82 OFFCURVE",
"450.925 1080.82 CURVE SMOOTH",
"397.934 1055.82 OFFCURVE",
"347.942 1018.83 OFFCURVE",
"310.948 970.838 CURVE",
"311.948 971.838 LINE",
"248.959 896.851 OFFCURVE",
"208.965 807.866 OFFCURVE",
"184.969 715.881 CURVE SMOOTH",
"160.973 622.896 OFFCURVE",
"151.975 527.912 OFFCURVE",
"151.975 446.926 CURVE SMOOTH",
"151.975 341.943 OFFCURVE",
"170.972 240.96 OFFCURVE",
"227.962 152.975 CURVE SMOOTH",
"290.952 57.9903 OFFCURVE",
"399.933 8.9985 OFFCURVE",
"516.914 8.9985 CURVE SMOOTH",
"526.912 8.9985 LINE SMOOTH",
"527.912 8.9985 OFFCURVE",
"529.912 8.9985 OFFCURVE",
"531.911 9.99834 CURVE",
"532.911 9.99834 OFFCURVE",
"534.911 9.99834 OFFCURVE",
"535.911 9.99834 CURVE SMOOTH",
"550.908 9.99834 LINE SMOOTH",
"611.898 9.99834 OFFCURVE",
"672.888 24.9958 OFFCURVE",
"728.879 50.9915 CURVE SMOOTH",
"784.869 76.9872 OFFCURVE",
"835.861 115.981 OFFCURVE",
"875.854 163.973 CURVE",
"888 94 OFFCURVE",
"883 65 OFFCURVE",
"872.855 27.9953 CURVE",
"935.844 22.9962 LINE SMOOTH",
"974.838 19.9967 OFFCURVE",
"1052 14 OFFCURVE",
"1089 9 CURVE",
"1011 382 OFFCURVE",
"1066.82 614.898 OFFCURVE",
"1161.81 1129.81 CURVE",
"1152.81 1126.81 OFFCURVE",
"1129.81 1130.81 OFFCURVE",
"1122.81 1129.81 CURVE",
"1115.81 1127.81 OFFCURVE",
"1068.82 1129.81 OFFCURVE",
"1066.82 1129.81 CURVE",
"1016 1130 OFFCURVE",
"1016 1130 OFFCURVE",
"956.841 1129.81 CURVE",
"949 1081 OFFCURVE",
"948 1055 OFFCURVE",
"936.844 964.839 CURVE",
"878 1059 OFFCURVE",
"766.872 1119.81 OFFCURVE",
"646.892 1119.81 CURVE SMOOTH",
"618.897 1119.81 LINE SMOOTH"
);
},
{
closed = 1;
nodes = (
"310 635 OFFCURVE",
"316.947 697.884 OFFCURVE",
"339.943 757.874 CURVE SMOOTH",
"362.94 816.864 OFFCURVE",
"393.934 870.855 OFFCURVE",
"435.927 910.848 CURVE SMOOTH",
"477.92 950.842 OFFCURVE",
"529.912 975.838 OFFCURVE",
"596.901 975.838 CURVE SMOOTH",
"620.897 975.838 LINE SMOOTH",
"667.889 975.838 OFFCURVE",
"709.882 959.84 OFFCURVE",
"742.876 930.845 CURVE SMOOTH",
"775.871 901.85 OFFCURVE",
"800.867 859.857 OFFCURVE",
"811.865 808.865 CURVE SMOOTH",
"822.863 757.874 OFFCURVE",
"827.862 705.883 OFFCURVE",
"827.862 653.891 CURVE SMOOTH",
"827.862 617.897 OFFCURVE",
"826.862 565.906 OFFCURVE",
"814.864 514.914 CURVE SMOOTH",
"802.866 463.923 OFFCURVE",
"782 426 OFFCURVE",
"742 397 CURVE",
"743 398 LINE",
"683 359 OFFCURVE",
"610 355 OFFCURVE",
"542 352 CURVE",
"509 352 OFFCURVE",
"474 354 OFFCURVE",
"442 361 CURVE SMOOTH",
"410 368 OFFCURVE",
"381 381 OFFCURVE",
"358 404 CURVE",
"335 428 OFFCURVE",
"319.947 445.926 OFFCURVE",
"311.948 477.92 CURVE SMOOTH",
"302.95 509.915 OFFCURVE",
"304 545 OFFCURVE",
"303 578 CURVE"
);
}
);
width = 1275;
}
);
unicode = 0061;
},
{
glyphname = b;
layers = (
{
layerId = "101ED48A-DA64-4145-AD97-87CDC2521746";
name = "Bold Italic";
paths = (
{
closed = 1;
nodes = (
"1080.82 565.906 OFFCURVE",
"1070.82 525.912 OFFCURVE",
"1054.82 488.919 CURVE SMOOTH",
"1038.83 451.925 OFFCURVE",
"1016.83 415.931 OFFCURVE",
"984.836 390.935 CURVE",
"986.836 392.935 LINE",
"930.845 353.941 OFFCURVE",
"866.856 337.944 OFFCURVE",
"802.866 333.944 CURVE",
"769.872 333.944 OFFCURVE",
"733.878 338.944 OFFCURVE",
"698.884 350.942 CURVE SMOOTH",
"663.89 361.94 OFFCURVE",
"629.895 379.937 OFFCURVE",
"604.899 404.933 CURVE",
"568.905 455.924 OFFCURVE",
"555.907 527.912 OFFCURVE",
"552.908 591.901 CURVE",
"563.906 688.885 OFFCURVE",
"589.902 796.867 OFFCURVE",
"652.891 879.854 CURVE",
"707.882 946.842 OFFCURVE",
"790.868 978.837 OFFCURVE",
"871.855 978.837 CURVE SMOOTH",
"959.84 978.837 OFFCURVE",
"1013.83 934.844 OFFCURVE",
"1046.83 871.855 CURVE SMOOTH",
"1078.82 808.865 OFFCURVE",
"1088.82 724.879 OFFCURVE",
"1088.82 647.892 CURVE SMOOTH",
"1088.82 643.893 OFFCURVE",
"1088.82 639.893 OFFCURVE",
"1088.82 635.894 CURVE",
"1087.82 631.895 OFFCURVE",
"1087.82 627.896 OFFCURVE",
"1087.82 623.896 CURVE SMOOTH",
"1087.82 600.9 LINE",
"1088.82 604.899 LINE"
);
},
{
closed = 1;
nodes = (
"545.909 1509.75 OFFCURVE",
"534.911 1511.75 OFFCURVE",
"522.913 1512.75 CURVE",
"516.914 1512.75 OFFCURVE",
"510.915 1512.75 OFFCURVE",
"505.916 1513.75 CURVE SMOOTH",
"500.917 1514.75 OFFCURVE",
"495.917 1514.75 OFFCURVE",
"491.918 1514.75 CURVE",
"481.92 1515.75 OFFCURVE",
"470.922 1516.75 OFFCURVE",
"459.923 1518.75 CURVE",
"448.925 1519.75 OFFCURVE",
"436.927 1521.75 OFFCURVE",
"424.929 1522.75 CURVE",
"400.933 1525.75 OFFCURVE",
"376.937 1528.75 OFFCURVE",
"357.94 1532.74 CURVE",
"346.942 1025.83 OFFCURVE",
"345.942 821.863 OFFCURVE",
"252.958 306.949 CURVE",
"374.938 165.972 LINE SMOOTH",
"423.929 109.982 OFFCURVE",
"501.916 77.987 OFFCURVE",
"553.908 50.9915 CURVE SMOOTH",
"605.899 23.996 OFFCURVE",
"663.89 8.9985 OFFCURVE",
"723.88 8.9985 CURVE SMOOTH",
"732.878 8.9985 LINE SMOOTH",
"733.878 8.9985 OFFCURVE",
"735.878 8.9985 OFFCURVE",
"737.877 9.99834 CURVE",
"738.877 9.99834 OFFCURVE",
"740.877 9.99834 OFFCURVE",
"741.877 9.99834 CURVE SMOOTH",
"756.874 9.99834 LINE SMOOTH",
"873.855 8.9985 OFFCURVE",
"990.835 57.9903 OFFCURVE",
"1070.82 152.975 CURVE SMOOTH",
"1129.81 221.963 OFFCURVE",
"1165.81 305.949 OFFCURVE",
"1186.8 391.935 CURVE SMOOTH",
"1207.8 477.92 OFFCURVE",
"1214.8 564.906 OFFCURVE",
"1214.8 644.893 CURVE SMOOTH",
"1214.8 761.873 OFFCURVE",
"1187.8 881.853 OFFCURVE",
"1127.81 970.838 CURVE SMOOTH",
"1067.82 1059.82 OFFCURVE",
"975.838 1119.81 OFFCURVE",
"846.859 1119.81 CURVE SMOOTH",
"816.864 1119.81 LINE SMOOTH",
"757.874 1119.81 OFFCURVE",
"699.883 1105.82 OFFCURVE",
"645.893 1080.82 CURVE SMOOTH",
"591.901 1055.82 OFFCURVE",
"542.91 1016.83 OFFCURVE",
"506.916 968.839 CURVE",
"525.912 1145.81 OFFCURVE",
"540.91 1333.78 OFFCURVE",
"552.908 1508.75 CURVE"
);
}
);
width = 1371;
}
);
unicode = 0062;
},
{
glyphname = c;
layers = (
{
layerId = "101ED48A-DA64-4145-AD97-87CDC2521746";
name = "Bold Italic";
paths = (
{
closed = 1;
nodes = (
"950.842 1099.82 OFFCURVE",
"859.857 1115.81 OFFCURVE",
"764.873 1115.81 CURVE SMOOTH",
"689.885 1115.81 OFFCURVE",
"609.898 1106.82 OFFCURVE",
"533.911 1083.82 CURVE SMOOTH",
"456.924 1060.82 OFFCURVE",
"381.936 1024.83 OFFCURVE",
"321.946 968.839 CURVE SMOOTH",
"254.958 903.85 OFFCURVE",
"212.965 817.864 OFFCURVE",
"188.969 728.879 CURVE SMOOTH",
"163.973 639.893 OFFCURVE",
"154.974 545.909 OFFCURVE",
"154.974 468.922 CURVE SMOOTH",
"154.974 409.932 OFFCURVE",
"159.973 352.941 OFFCURVE",
"174.971 297.95 CURVE SMOOTH",
"189.968 242.96 OFFCURVE",
"212.965 191.968 OFFCURVE",
"249.958 147.975 CURVE",
"248.959 148.975 LINE",
"296.951 88.9852 OFFCURVE",
"361.94 51.9913 OFFCURVE",
"433.928 29.995 CURVE SMOOTH",
"505.916 7.99867 OFFCURVE",
"583.903 0.999834 OFFCURVE",
"656.891 0.999834 CURVE SMOOTH",
"752.875 0.999834 OFFCURVE",
"853.858 14.9975 OFFCURVE",
"957.841 53.991 CURVE",
"956.841 88.9852 OFFCURVE",
"955.841 132.978 OFFCURVE",
"955.841 167.972 CURVE SMOOTH",
"955.841 192.968 OFFCURVE",
"956.841 227.962 OFFCURVE",
"956.841 261.956 CURVE SMOOTH",
"957.841 295.951 OFFCURVE",
"959.84 327.945 OFFCURVE",
"960.84 354.941 CURVE",
"904.849 327.945 OFFCURVE",
"851.858 313.948 OFFCURVE",
"812.865 313.948 CURVE SMOOTH",
"800.867 313.948 LINE",
"654.891 316.947 LINE",
"655.891 316.947 LINE",
"572.905 323.946 OFFCURVE",
"489.918 332.945 OFFCURVE",
"425.929 375.937 CURVE",
"426.929 375.937 LINE",
"401.933 395.934 OFFCURVE",
"385.936 423.929 OFFCURVE",
"375.937 454.924 CURVE SMOOTH",
"365.939 485.919 OFFCURVE",
"360.94 519.913 OFFCURVE",
"360.94 554.908 CURVE",
"365.939 603.899 OFFCURVE",
"375.937 657.891 OFFCURVE",
"392.935 709.882 CURVE SMOOTH",
"408.932 761.873 OFFCURVE",
"431.928 810.865 OFFCURVE",
"466.922 849.859 CURVE",
"499.917 889.852 OFFCURVE",
"543.909 916.847 OFFCURVE",
"591.901 933.845 CURVE SMOOTH",
"638.894 950.842 OFFCURVE",
"689.885 957.841 OFFCURVE",
"737.877 957.841 CURVE SMOOTH",
"826.862 957.841 OFFCURVE",
"923.846 932.845 OFFCURVE",
"1016.83 885.853 CURVE",
"1024.83 945.843 LINE",
"1024.83 944.843 LINE",
"1027.83 963.84 OFFCURVE",
"1031.83 981.837 OFFCURVE",
"1034.83 998.834 CURVE SMOOTH",
"1037.83 1015.83 OFFCURVE",
"1040.83 1033.83 OFFCURVE",
"1044.83 1052.82 CURVE",
"1018.83 1048.83 LINE",
"1036.83 1067.82 LINE"
);
}
);
width = 1213;
}
);
unicode = 0063;
},
{
glyphname = d;
layers = (
{
layerId = "101ED48A-DA64-4145-AD97-87CDC2521746";
name = "Bold Italic";
paths = (
{
closed = 1;
nodes = (
"562.906 1119.81 OFFCURVE",
"503.916 1105.82 OFFCURVE",
"450.925 1080.82 CURVE SMOOTH",
"397.934 1055.82 OFFCURVE",
"347.942 1018.83 OFFCURVE",
"310.948 970.838 CURVE",
"311.948 971.838 LINE",
"248.959 896.851 OFFCURVE",
"208.965 807.866 OFFCURVE",
"184.969 715.881 CURVE SMOOTH",
"160.973 622.896 OFFCURVE",
"151.975 527.912 OFFCURVE",
"151.975 446.926 CURVE SMOOTH",
"151.975 341.943 OFFCURVE",
"170.972 240.96 OFFCURVE",
"227.962 152.975 CURVE SMOOTH",
"290.952 57.9903 OFFCURVE",
"399.933 8.9985 OFFCURVE",
"516.914 8.9985 CURVE SMOOTH",
"526.912 8.9985 LINE SMOOTH",
"527.912 8.9985 OFFCURVE",
"529.912 8.9985 OFFCURVE",
"531.911 9.99834 CURVE",
"532.911 9.99834 OFFCURVE",
"534.911 9.99834 OFFCURVE",
"535.911 9.99834 CURVE SMOOTH",
"550.908 9.99834 LINE SMOOTH",
"611.898 9.99834 OFFCURVE",
"672.888 24.9958 OFFCURVE",
"728.879 50.9915 CURVE SMOOTH",
"784.869 76.9872 OFFCURVE",
"835.861 115.981 OFFCURVE",
"875.854 163.973 CURVE",
"874.854 152.975 OFFCURVE",
"874.854 144.976 OFFCURVE",
"874.854 139.977 CURVE",
"873.855 134.978 OFFCURVE",
"873.855 131.978 OFFCURVE",
"873.855 128.979 CURVE SMOOTH",
"873.855 125.979 OFFCURVE",
"873.855 121.98 OFFCURVE",
"873.855 116.981 CURVE SMOOTH",
"873.855 111.981 OFFCURVE",
"873.855 103.983 OFFCURVE",
"873.855 92.9845 CURVE SMOOTH",
"873.855 84.9859 OFFCURVE",
"873.855 73.9877 OFFCURVE",
"873.855 59.99 CURVE",
"872.855 45.9923 OFFCURVE",
"872.855 34.9942 OFFCURVE",
"872.855 27.9953 CURVE",
"935.844 22.9962 LINE SMOOTH",
"974.838 19.9967 OFFCURVE",
"1030.83 13.9977 OFFCURVE",
"1067.82 8.9985 CURVE",
"1075.82 516.914 OFFCURVE",
"1130.81 1023.83 OFFCURVE",
"1225.8 1538.74 CURVE",
"1216.8 1535.74 OFFCURVE",
"1207.8 1533.74 OFFCURVE",
"1200.8 1532.74 CURVE",
"1193.8 1530.75 OFFCURVE",
"1188.8 1529.75 OFFCURVE",
"1186.8 1529.75 CURVE",
"1135.81 1522.75 OFFCURVE",
"1074.82 1516.75 OFFCURVE",
"1023.83 1512.75 CURVE",
"991.835 1335.78 OFFCURVE",
"959.84 1145.81 OFFCURVE",
"936.844 964.839 CURVE",
"877.854 1065.82 OFFCURVE",
"766.872 1119.81 OFFCURVE",
"646.892 1119.81 CURVE SMOOTH",
"618.897 1119.81 LINE SMOOTH"
);
},
{
closed = 1;
nodes = (
"303.949 634.894 OFFCURVE",
"316.947 697.884 OFFCURVE",
"339.943 757.874 CURVE SMOOTH",
"362.94 816.864 OFFCURVE",
"393.934 870.855 OFFCURVE",
"435.927 910.848 CURVE SMOOTH",
"477.92 950.842 OFFCURVE",
"529.912 975.838 OFFCURVE",
"596.901 975.838 CURVE SMOOTH",
"620.897 975.838 LINE SMOOTH",
"667.889 975.838 OFFCURVE",
"709.882 959.84 OFFCURVE",
"742.876 930.845 CURVE SMOOTH",
"775.871 901.85 OFFCURVE",
"800.867 859.857 OFFCURVE",
"811.865 808.865 CURVE SMOOTH",
"822.863 757.874 OFFCURVE",
"827.862 705.883 OFFCURVE",
"827.862 653.891 CURVE SMOOTH",
"827.862 617.897 OFFCURVE",
"826.862 565.906 OFFCURVE",
"814.864 514.914 CURVE SMOOTH",
"802.866 463.923 OFFCURVE",
"781.87 414.931 OFFCURVE",
"741.877 385.936 CURVE",
"742.876 386.936 LINE",
"682.886 347.942 OFFCURVE",
"609.898 343.943 OFFCURVE",
"541.91 340.943 CURVE",
"508.915 340.943 OFFCURVE",
"473.921 342.943 OFFCURVE",
"441.926 349.942 CURVE SMOOTH",
"409.932 356.941 OFFCURVE",
"380.937 369.938 OFFCURVE",
"356.941 392.935 CURVE",
"357.94 392.935 LINE",
"334.944 416.931 OFFCURVE",
"319.947 445.926 OFFCURVE",
"311.948 477.92 CURVE SMOOTH",
"302.95 509.915 OFFCURVE",
"297.95 544.909 OFFCURVE",
"296.951 577.904 CURVE"
);
}
);
width = 1333;
}
);
unicode = 0064;
},
{
glyphname = e;
lastChange = "2013-01-12 20:37:36 -0500";
layers = (
{
layerId = "101ED48A-DA64-4145-AD97-87CDC2521746";
name = "Bold Italic";
paths = (
{
closed = 1;
nodes = (
"1114.81 691.885 LINE SMOOTH",
"1114.81 695.884 OFFCURVE",
"1114.81 699.883 OFFCURVE",
"1115.81 703.883 CURVE",
"1115.81 706.882 OFFCURVE",
"1115.81 710.882 OFFCURVE",
"1115.81 713.881 CURVE SMOOTH",
"1115.81 765.872 OFFCURVE",
"1112.81 819.864 OFFCURVE",
"1100.82 869.855 CURVE SMOOTH",
"1087.82 919.847 OFFCURVE",
"1066.82 965.839 OFFCURVE",
"1030.83 1005.83 CURVE",
"989.835 1046.83 OFFCURVE",
"937.844 1071.82 OFFCURVE",
"882.853 1087.82 CURVE SMOOTH",
"827.862 1103.82 OFFCURVE",
"768.872 1110.82 OFFCURVE",
"712.881 1113.81 CURVE",
"644.893 1112.81 OFFCURVE",
"571.905 1102.82 OFFCURVE",
"503.916 1079.82 CURVE SMOOTH",
"434.928 1055.82 OFFCURVE",
"370.938 1018.83 OFFCURVE",
"318.947 965.839 CURVE SMOOTH",
"258.957 900.85 OFFCURVE",
"216.964 815.864 OFFCURVE",
"189.968 727.879 CURVE SMOOTH",
"162.973 639.893 OFFCURVE",
"151.975 548.909 OFFCURVE",
"151.975 471.921 CURVE SMOOTH",
"151.975 414.931 OFFCURVE",
"158.974 355.941 OFFCURVE",
"174.971 300.95 CURVE SMOOTH",
"190.968 244.959 OFFCURVE",
"215.964 192.968 OFFCURVE",
"252.958 149.975 CURVE",
"301.95 101.983 OFFCURVE",
"367.939 66.9889 OFFCURVE",
"436.927 43.9927 CURVE SMOOTH",
"504.916 19.9967 OFFCURVE",
"579.904 7.99867 OFFCURVE",
"647.892 2.9995 CURVE",
"780.87 2.9995 OFFCURVE",
"917.847 22.9962 OFFCURVE",
"1056.82 69.9883 CURVE",
"1053.82 106.982 OFFCURVE",
"1053.82 156.974 OFFCURVE",
"1053.82 193.968 CURVE SMOOTH",
"1053.82 202.966 OFFCURVE",
"1053.82 213.964 OFFCURVE",
"1053.82 226.962 CURVE SMOOTH",
"1053.82 250.958 OFFCURVE",
"1054.82 277.954 OFFCURVE",
"1055.82 302.95 CURVE",
"1055.82 314.948 OFFCURVE",
"1055.82 325.946 OFFCURVE",
"1055.82 334.944 CURVE",
"994.834 305.949 OFFCURVE",
"937.844 290.952 OFFCURVE",
"882.853 283.953 CURVE SMOOTH",
"826.862 275.954 OFFCURVE",
"773.871 275.954 OFFCURVE",
"721.88 275.954 CURVE SMOOTH",
"703.883 275.954 LINE SMOOTH",
"607.899 275.954 OFFCURVE",
"500.917 289.952 OFFCURVE",
"419.93 340.943 CURVE",
"419.93 339.943 LINE",
"390.935 360.94 OFFCURVE",
"373.938 391.935 OFFCURVE",
"363.939 425.929 CURVE SMOOTH",
"353.941 459.923 OFFCURVE",
"349.942 497.917 OFFCURVE",
"349.942 536.911 CURVE SMOOTH",
"349.942 553.908 OFFCURVE",
"350.942 568.905 OFFCURVE",
"351.941 587.902 CURVE",
"351.941 592.901 LINE",
"471.921 592.901 LINE SMOOTH",
"494.918 592.901 OFFCURVE",
"518.914 592.901 OFFCURVE",
"541.91 592.901 CURVE",
"564.906 591.901 OFFCURVE",
"587.902 591.901 OFFCURVE",
"610.898 591.901 CURVE SMOOTH",
"771.872 591.901 OFFCURVE",
"946.842 591.901 OFFCURVE",
"1107.82 594.901 CURVE",
"1112.81 634.894 LINE",
"1112.81 633.894 LINE",
"1113.81 638.894 OFFCURVE",
"1113.81 644.893 OFFCURVE",
"1114.81 650.892 CURVE",
"1114.81 655.891 OFFCURVE",
"1114.81 661.89 OFFCURVE",
"1115.81 668.889 CURVE",
"1082.82 682.886 LINE",
"1114.81 669.888 LINE"
);
},
{
closed = 1;
nodes = (
"540.91 759.874 OFFCURVE",
"508.915 759.874 OFFCURVE",
"478.92 759.874 CURVE SMOOTH",
"447.925 758.874 OFFCURVE",
"415.931 759.874 OFFCURVE",
"382.936 760.873 CURVE",
"391.935 820.863 OFFCURVE",
"424.929 877.854 OFFCURVE",
"473.921 920.847 CURVE",
"536.911 980.837 OFFCURVE",
"622.896 1002.83 OFFCURVE",
"705.883 1002.83 CURVE SMOOTH",
"777.871 1002.83 OFFCURVE",
"836.861 976.837 OFFCURVE",
"880.853 933.845 CURVE SMOOTH",
"924.846 889.852 OFFCURVE",
"950.842 829.862 OFFCURVE",
"957.841 762.873 CURVE",
"830.862 760.873 OFFCURVE",
"702.883 759.874 OFFCURVE",
"574.904 759.874 CURVE SMOOTH"
);
}
);
width = 1309;
}
);
unicode = 0065;
},
{
glyphname = f;
layers = (
{
layerId = "101ED48A-DA64-4145-AD97-87CDC2521746";
name = "Bold Italic";
paths = (
{
closed = 1;
nodes = (
"883.853 1487.75 OFFCURVE",
"854.858 1486.75 OFFCURVE",
"826.862 1486.75 CURVE SMOOTH",
"816.864 1486.75 OFFCURVE",
"806.866 1486.75 OFFCURVE",
"795.868 1486.75 CURVE SMOOTH",
"784.869 1486.75 OFFCURVE",
"774.871 1486.75 OFFCURVE",
"764.873 1487.75 CURVE",
"687.885 1482.75 OFFCURVE",
"608.899 1456.76 OFFCURVE",
"541.91 1408.77 CURVE",
"505.916 1377.77 OFFCURVE",
"480.92 1336.78 OFFCURVE",
"463.923 1292.78 CURVE SMOOTH",
"446.926 1248.79 OFFCURVE",
"436.927 1200.8 OFFCURVE",
"429.928 1159.81 CURVE",
"426.929 1135.81 OFFCURVE",
"424.929 1115.81 OFFCURVE",
"420.93 1096.82 CURVE",
"380.937 1099.82 OFFCURVE",
"328.945 1103.82 OFFCURVE",
"268.955 1111.81 CURVE",
"267.955 1094.82 OFFCURVE",
"265.956 1071.82 OFFCURVE",
"264.956 1048.83 CURVE",
"263.956 1037.83 OFFCURVE",
"263.956 1026.83 OFFCURVE",
"262.956 1015.83 CURVE SMOOTH",
"261.956 1004.83 OFFCURVE",
"260.957 994.834 OFFCURVE",
"259.957 985.836 CURVE",
"254.958 914.848 LINE",
"276.954 913.848 OFFCURVE",
"301.95 911.848 OFFCURVE",
"328.945 910.848 CURVE",
"355.941 908.849 OFFCURVE",
"380.937 907.849 OFFCURVE",
"403.933 906.849 CURVE",
"368.939 611.898 OFFCURVE",
"333.944 320.947 OFFCURVE",
"286.952 25.9957 CURVE",
"366.939 33.9943 OFFCURVE",
"433.928 37.9937 OFFCURVE",
"487.919 37.9937 CURVE SMOOTH",
"507.915 37.9937 OFFCURVE",
"546.909 36.9938 OFFCURVE",
"566.906 35.994 CURVE",
"577.904 320.947 OFFCURVE",
"593.901 619.897 OFFCURVE",
"612.898 904.849 CURVE",
"699.883 905.849 OFFCURVE",
"787.869 908.849 OFFCURVE",
"876.854 913.848 CURVE",
"877.854 926.846 OFFCURVE",
"879.854 941.843 OFFCURVE",
"881.853 958.84 CURVE SMOOTH",
"884.853 993.835 OFFCURVE",
"888.852 1030.83 OFFCURVE",
"892.851 1064.82 CURVE SMOOTH",
"894.851 1081.82 OFFCURVE",
"896.851 1096.82 OFFCURVE",
"897.851 1109.82 CURVE",
"801.867 1100.82 OFFCURVE",
"710.882 1095.82 OFFCURVE",
"625.896 1094.82 CURVE",
"624.896 1110.82 OFFCURVE",
"624.896 1123.81 OFFCURVE",
"625.896 1134.81 CURVE",
"625.896 1144.81 OFFCURVE",
"625.896 1157.81 OFFCURVE",
"625.896 1174.8 CURVE",
"625.896 1172.8 LINE",
"630.895 1213.8 OFFCURVE",
"637.894 1261.79 OFFCURVE",
"661.89 1293.78 CURVE",
"686.886 1314.78 OFFCURVE",
"718.88 1319.78 OFFCURVE",
"750.875 1322.78 CURVE",
"749.875 1322.78 OFFCURVE",
"777.871 1321.78 OFFCURVE",
"808.865 1321.78 CURVE SMOOTH",
"827.862 1321.78 OFFCURVE",
"862.856 1322.78 OFFCURVE",
"881.853 1322.78 CURVE",
"881.853 1322.78 LINE SMOOTH",
"881.853 1322.78 OFFCURVE",
"881.853 1322.78 OFFCURVE",
"912.848 1322.78 CURVE",
"917.847 1366.77 OFFCURVE",
"925.846 1425.76 OFFCURVE",
"932.845 1468.76 CURVE",
"912.848 1490.75 LINE"
);
}
);
width = 949;
}
);
unicode = 0066;
},
{
glyphname = g;
layers = (
{
layerId = "101ED48A-DA64-4145-AD97-87CDC2521746";
name = "Bold Italic";
paths = (
{
closed = 1;
nodes = (
"829.862 537.91 OFFCURVE",
"822.863 494.918 OFFCURVE",
"807.866 454.924 CURVE SMOOTH",
"792.868 414.931 OFFCURVE",
"770.872 378.937 OFFCURVE",
"735.878 355.941 CURVE",
"668.889 328.945 OFFCURVE",
"592.901 317.947 OFFCURVE",
"521.913 317.947 CURVE SMOOTH",
"489.918 317.947 OFFCURVE",
"455.924 318.947 OFFCURVE",
"423.929 323.946 CURVE SMOOTH",
"391.935 327.945 OFFCURVE",
"360.94 337.944 OFFCURVE",
"335.944 354.941 CURVE",
"314.948 378.937 OFFCURVE",
"302.95 408.932 OFFCURVE",
"295.951 441.926 CURVE SMOOTH",
"288.952 473.921 OFFCURVE",
"285.952 509.915 OFFCURVE",
"284.953 544.909 CURVE",
"284.953 549.908 OFFCURVE",
"284.953 554.908 OFFCURVE",
"283.953 559.907 CURVE SMOOTH",
"282.953 564.906 OFFCURVE",
"282.953 569.905 OFFCURVE",
"282.953 574.904 CURVE",
"286.952 622.896 OFFCURVE",
"294.951 674.888 OFFCURVE",
"308.949 723.88 CURVE SMOOTH",
"322.946 772.871 OFFCURVE",
"342.943 820.863 OFFCURVE",
"373.938 860.857 CURVE SMOOTH",
"422.93 920.847 OFFCURVE",
"505.916 951.842 OFFCURVE",
"581.903 951.842 CURVE SMOOTH",
"657.891 951.842 OFFCURVE",
"721.88 927.846 OFFCURVE",
"766.872 878.854 CURVE SMOOTH",
"810.865 829.862 OFFCURVE",
"837.861 753.875 OFFCURVE",
"837.861 649.892 CURVE SMOOTH",
"837.861 624.896 OFFCURVE",
"836.861 600.9 OFFCURVE",
"833.861 575.904 CURVE",
"833.861 576.904 LINE"
);
},
{
closed = 1;
nodes = (
"1079.82 460.923 OFFCURVE",
"1123.81 779.87 OFFCURVE",
"1190.8 1114.81 CURVE",
"1055.82 1097.82 LINE",
"1056.82 1097.82 LINE",
"991.835 1092.82 LINE",
"964.839 985.836 LINE",
"963.84 979.837 OFFCURVE",
"961.84 972.838 OFFCURVE",
"959.84 965.839 CURVE",
"956.841 958.84 OFFCURVE",
"954.841 951.842 OFFCURVE",
"953.841 944.843 CURVE",
"921.847 992.835 OFFCURVE",
"874.854 1032.83 OFFCURVE",
"822.863 1060.82 CURVE SMOOTH",
"769.872 1088.82 OFFCURVE",
"708.882 1104.82 OFFCURVE",
"647.892 1104.82 CURVE SMOOTH",
"617.897 1104.82 LINE SMOOTH",
"561.906 1104.82 OFFCURVE",
"501.916 1093.82 OFFCURVE",
"446.926 1070.82 CURVE SMOOTH",
"391.935 1047.83 OFFCURVE",
"340.943 1012.83 OFFCURVE",
"300.95 967.839 CURVE SMOOTH",
"244.959 903.85 OFFCURVE",
"209.965 823.863 OFFCURVE",
"189.968 740.877 CURVE SMOOTH",
"168.972 657.891 OFFCURVE",
"161.973 571.905 OFFCURVE",
"161.973 498.917 CURVE SMOOTH",
"161.973 383.936 OFFCURVE",
"181.97 262.956 OFFCURVE",
"244.959 167.972 CURVE SMOOTH",
"273.954 122.98 OFFCURVE",
"318.947 84.9859 OFFCURVE",
"368.939 59.99 CURVE SMOOTH",
"418.93 34.9942 OFFCURVE",
"474.921 20.9965 OFFCURVE",
"530.912 20.9965 CURVE SMOOTH",
"659.89 20.9965 OFFCURVE",
"772.871 64.9892 OFFCURVE",
"859.857 156.974 CURVE",
"858.857 145.976 OFFCURVE",
"857.857 133.978 OFFCURVE",
"857.857 124.979 CURVE",
"838.86 59.99 OFFCURVE",
"801.867 1.99967 OFFCURVE",
"750.875 -50 CURVE",
"719.88 -85 OFFCURVE",
"679.887 -106 OFFCURVE",
"636.894 -120 CURVE SMOOTH",
"592.901 -134 OFFCURVE",
"546.909 -139 OFFCURVE",
"503.916 -140 CURVE SMOOTH",
"407.932 -140 OFFCURVE",
"307.949 -120 OFFCURVE",
"207.965 -64 CURVE",
"204.966 -88 OFFCURVE",
"200.967 -114 OFFCURVE",
"197.967 -143 CURVE SMOOTH",
"194.968 -172 OFFCURVE",
"190.968 -201 OFFCURVE",
"186.969 -231 CURVE SMOOTH",
"178.97 -291 OFFCURVE",
"170.972 -351 OFFCURVE",
"162.973 -399 CURVE",
"273.954 -430 OFFCURVE",
"378.937 -439 OFFCURVE",
"479.92 -439 CURVE SMOOTH",
"548.909 -439 OFFCURVE",
"623.896 -436 OFFCURVE",
"695.884 -419 CURVE SMOOTH",
"767.872 -403 OFFCURVE",
"835.861 -372 OFFCURVE",
"892.851 -316 CURVE",
"948.842 -255 OFFCURVE",
"981.837 -182 OFFCURVE",
"1002.83 -108 CURVE SMOOTH",
"1023.83 -34 OFFCURVE",
"1033.83 41.993 OFFCURVE",
"1042.83 116.981 CURVE SMOOTH",
"1047.83 152.975 LINE SMOOTH"
);
}
);
width = 1295;
}
);
unicode = 0067;
},
{
glyphname = h;
layers = (
{
layerId = "101ED48A-DA64-4145-AD97-87CDC2521746";
name = "Bold Italic";
paths = (
{
closed = 1;
nodes = (
"1161.81 696.884 OFFCURVE",
"1162.81 722.88 OFFCURVE",
"1162.81 749.875 CURVE SMOOTH",
"1162.81 825.863 OFFCURVE",
"1152.81 905.849 OFFCURVE",
"1112.81 984.836 CURVE SMOOTH",
"1088.82 1032.83 OFFCURVE",
"1049.83 1066.82 OFFCURVE",
"1002.83 1088.82 CURVE SMOOTH",
"954.841 1110.82 OFFCURVE",
"901.85 1119.81 OFFCURVE",
"849.859 1119.81 CURVE SMOOTH",
"823.863 1119.81 LINE SMOOTH",
"698.884 1119.81 OFFCURVE",
"587.902 1056.82 OFFCURVE",
"503.916 960.84 CURVE",
"515.914 1060.82 OFFCURVE",
"524.913 1147.81 OFFCURVE",
"532.911 1234.79 CURVE SMOOTH",
"539.91 1321.78 OFFCURVE",
"546.909 1408.77 OFFCURVE",
"554.908 1507.75 CURVE",
"527.912 1508.75 OFFCURVE",
"491.918 1512.75 OFFCURVE",
"455.924 1516.75 CURVE SMOOTH",
"437.927 1518.75 OFFCURVE",
"419.93 1520.75 OFFCURVE",
"402.933 1522.75 CURVE",
"385.936 1523.75 OFFCURVE",
"369.938 1525.75 OFFCURVE",
"356.941 1527.75 CURVE",
"337.944 1019.83 OFFCURVE",
"282.953 516.914 OFFCURVE",
"183.969 5.999 CURVE",
"216.964 9.99834 OFFCURVE",
"260.957 14.9975 OFFCURVE",
"304.949 18.9968 CURVE SMOOTH",
"325.946 20.9965 OFFCURVE",
"347.942 22.9962 OFFCURVE",
"368.939 24.9958 CURVE SMOOTH",
"389.935 26.9955 OFFCURVE",
"407.932 28.9952 OFFCURVE",
"423.929 29.995 CURVE",
"439.927 168.972 OFFCURVE",
"450.925 320.947 OFFCURVE",
"461.923 459.923 CURVE SMOOTH",
"463.923 488.919 OFFCURVE",
"465.922 516.914 OFFCURVE",
"467.922 544.909 CURVE SMOOTH",
"469.922 572.905 OFFCURVE",
"471.921 600.9 OFFCURVE",
"473.921 629.895 CURVE SMOOTH",
"480.92 717.88 OFFCURVE",
"512.915 808.865 OFFCURVE",
"571.905 876.854 CURVE SMOOTH",
"624.896 936.844 OFFCURVE",
"706.882 969.839 OFFCURVE",
"782.87 969.839 CURVE SMOOTH",
"846.859 969.839 OFFCURVE",
"910.848 940.843 OFFCURVE",
"947.842 880.853 CURVE",
"967.839 836.861 OFFCURVE",
"974.838 783.87 OFFCURVE",
"974.838 730.878 CURVE SMOOTH",
"974.838 710.882 OFFCURVE",
"974.838 688.885 OFFCURVE",
"971.838 669.888 CURVE",
"950.842 461.923 OFFCURVE",
"929.845 237.96 OFFCURVE",
"916.847 30.9948 CURVE",
"933.845 29.995 OFFCURVE",
"951.842 27.9953 OFFCURVE",
"972.838 25.9957 CURVE SMOOTH",
"992.835 23.996 OFFCURVE",
"1013.83 21.9963 OFFCURVE",
"1034.83 19.9967 CURVE SMOOTH",
"1077.82 15.9973 OFFCURVE",
"1120.81 10.9982 OFFCURVE",
"1152.81 6.99884 CURVE",
"1151.81 43.9927 OFFCURVE",
"1149.81 87.9854 OFFCURVE",
"1149.81 131.978 CURVE",
"1148.81 153.974 OFFCURVE",
"1148.81 175.971 OFFCURVE",
"1148.81 196.967 CURVE",
"1147.81 217.964 OFFCURVE",
"1147.81 238.96 OFFCURVE",
"1147.81 257.957 CURVE SMOOTH",
"1147.81 393.934 OFFCURVE",
"1151.81 531.911 OFFCURVE",
"1159.81 670.888 CURVE SMOOTH"
);
}
);
width = 1418;
}
);
unicode = 0068;
},
{
glyphname = i;
layers = (
{
layerId = "101ED48A-DA64-4145-AD97-87CDC2521746";
name = "Bold Italic";
paths = (
{
closed = 1;
nodes = (
"302.95 910.848 OFFCURVE",
"284.953 723.88 OFFCURVE",
"265.956 536.911 CURVE SMOOTH",
"246.959 349.942 OFFCURVE",
"227.962 161.973 OFFCURVE",
"207.965 -14 CURVE",
"253.958 20.9965 OFFCURVE",
"289.952 37.9937 OFFCURVE",
"315.947 37.9937 CURVE SMOOTH",
"339.943 37.9937 OFFCURVE",
"370.938 19.9967 OFFCURVE",
"406.932 -12 CURVE",
"418.93 163.973 OFFCURVE",
"432.928 357.94 OFFCURVE",
"446.926 550.908 CURVE SMOOTH",
"460.923 742.876 OFFCURVE",
"475.921 935.844 OFFCURVE",
"490.918 1111.81 CURVE",
"453.924 1100.82 OFFCURVE",
"422.93 1093.82 OFFCURVE",
"399.933 1093.82 CURVE SMOOTH",
"381.936 1093.82 OFFCURVE",
"363.939 1096.82 OFFCURVE",
"344.943 1102.82 CURVE",
"318.947 1086.82 LINE"
);
},
{
closed = 1;
nodes = (
"326.946 1294.78 LINE",
"357.94 1271.79 OFFCURVE",
"387.935 1261.79 OFFCURVE",
"418.93 1261.79 CURVE SMOOTH",
"450.925 1261.79 OFFCURVE",
"484.919 1272.79 OFFCURVE",
"517.914 1289.79 CURVE",
"518.914 1310.78 OFFCURVE",
"520.913 1332.78 OFFCURVE",
"521.913 1356.77 CURVE SMOOTH",
"522.913 1380.77 OFFCURVE",
"524.913 1402.77 OFFCURVE",
"525.912 1423.76 CURVE",
"525.912 1430.76 OFFCURVE",
"525.912 1438.76 OFFCURVE",
"526.912 1449.76 CURVE SMOOTH",
"527.912 1460.76 OFFCURVE",
"527.912 1471.76 OFFCURVE",
"528.912 1483.75 CURVE",
"529.912 1506.75 OFFCURVE",
"531.911 1529.75 OFFCURVE",
"532.911 1542.74 CURVE",
"491.918 1514.75 OFFCURVE",
"459.923 1500.75 OFFCURVE",
"436.927 1500.75 CURVE SMOOTH",
"415.931 1500.75 OFFCURVE",
"398.934 1506.75 OFFCURVE",
"383.936 1517.75 CURVE",
"351.941 1505.75 LINE",
"339.943 1404.77 LINE"
);
}
);
width = 676;
}
);
unicode = 0069;
},
{
glyphname = j;
layers = (
{
layerId = "101ED48A-DA64-4145-AD97-87CDC2521746";
name = "Bold Italic";
paths = (
{
closed = 1;
nodes = (
"385.936 971.838 OFFCURVE",
"372.938 878.854 OFFCURVE",
"360.94 787.869 CURVE SMOOTH",
"348.942 695.884 OFFCURVE",
"336.944 602.9 OFFCURVE",
"323.946 509.915 CURVE SMOOTH",
"314.948 445.926 OFFCURVE",
"306.949 382.936 OFFCURVE",
"298.95 319.947 CURVE SMOOTH",
"289.952 256.957 OFFCURVE",
"281.953 193.968 OFFCURVE",
"272.955 130.978 CURVE",
"272.955 129.978 OFFCURVE",
"272.955 127.979 OFFCURVE",
"271.955 125.979 CURVE",
"270.955 122.98 OFFCURVE",
"270.955 120.98 OFFCURVE",
"270.955 118.98 CURVE",
"266.956 90.9849 OFFCURVE",
"262.956 59.99 OFFCURVE",
"254.958 30.9948 CURVE SMOOTH",
"246.959 1.99967 OFFCURVE",
"235.961 -27 OFFCURVE",
"218.964 -48 CURVE",
"179.97 -84 OFFCURVE",
"120.98 -96 OFFCURVE",
"65.989 -105 CURVE",
"6.99884 -117 LINE",
"0 -172 OFFCURVE",
"-10 -241 OFFCURVE",
"-18 -296 CURVE SMOOTH",
"-34 -411 LINE",
"-17 -405 OFFCURVE",
"-1 -400 OFFCURVE",
"11.998 -396 CURVE SMOOTH",
"38.9935 -388 OFFCURVE",
"59.99 -384 OFFCURVE",
"78.9869 -380 CURVE",
"87.9854 -379 OFFCURVE",
"97.9837 -377 OFFCURVE",
"106.982 -375 CURVE SMOOTH",
"146.976 -367 OFFCURVE",
"189.968 -359 OFFCURVE",
"230.962 -344 CURVE SMOOTH",
"270.955 -329 OFFCURVE",
"309.948 -309 OFFCURVE",
"344.943 -278 CURVE",
"384.936 -239 OFFCURVE",
"407.932 -193 OFFCURVE",
"423.929 -144 CURVE SMOOTH",
"438.927 -95 OFFCURVE",
"444.926 -44 OFFCURVE",
"449.925 3.99933 CURVE SMOOTH",
"488.919 362.94 OFFCURVE",
"535.911 736.877 OFFCURVE",
"583.903 1095.82 CURVE",
"523.913 1087.82 OFFCURVE",
"464.923 1081.82 OFFCURVE",
"417.93 1080.82 CURVE",
"398.934 1064.82 LINE"
);
},
{
closed = 1;
nodes = (
"474.921 1451.76 OFFCURVE",
"470.922 1421.76 OFFCURVE",
"466.922 1392.77 CURVE SMOOTH",
"462.923 1362.77 OFFCURVE",
"457.924 1332.78 OFFCURVE",
"452.925 1302.78 CURVE SMOOTH",
"445.926 1255.79 LINE",
"513.914 1262.79 OFFCURVE",
"579.904 1271.79 OFFCURVE",
"643.893 1288.79 CURVE",
"644.893 1299.78 OFFCURVE",
"645.893 1313.78 OFFCURVE",
"646.892 1329.78 CURVE SMOOTH",
"647.892 1345.78 OFFCURVE",
"648.892 1359.77 OFFCURVE",
"649.892 1370.77 CURVE",
"650.892 1393.77 OFFCURVE",
"652.891 1423.76 OFFCURVE",
"655.891 1453.76 CURVE SMOOTH",
"656.891 1468.76 OFFCURVE",
"658.89 1482.75 OFFCURVE",
"659.89 1497.75 CURVE SMOOTH",
"660.89 1511.75 OFFCURVE",
"661.89 1524.75 OFFCURVE",
"662.89 1535.74 CURVE",
"598.9 1514.75 OFFCURVE",
"544.909 1504.75 OFFCURVE",
"497.917 1497.75 CURVE",
"479.92 1481.75 LINE"
);
}
);
width = 723;
}
);
unicode = 006A;
},
{
glyphname = k;
layers = (
{
layerId = "101ED48A-DA64-4145-AD97-87CDC2521746";
name = "Bold Italic";
paths = (
{
closed = 1;
nodes = (
"336.944 1014.83 OFFCURVE",
"279.953 513.914 OFFCURVE",
"180.97 6.99884 CURVE",
"216.964 10.9982 OFFCURVE",
"263.956 15.9973 OFFCURVE",
"311.948 19.9967 CURVE SMOOTH",
"334.944 21.9963 OFFCURVE",
"357.94 23.996 OFFCURVE",
"380.937 25.9957 CURVE SMOOTH",
"402.933 27.9953 OFFCURVE",
"422.93 29.995 OFFCURVE",
"440.927 30.9948 CURVE",
"441.926 48.9918 OFFCURVE",
"443.926 70.9882 OFFCURVE",
"445.926 95.984 CURVE",
"446.926 120.98 OFFCURVE",
"448.925 141.976 OFFCURVE",
"449.925 159.973 CURVE SMOOTH",
"453.924 217.964 OFFCURVE",
"457.924 275.954 OFFCURVE",
"461.923 333.944 CURVE SMOOTH",
"465.922 390.935 OFFCURVE",
"468.922 448.925 OFFCURVE",
"471.921 505.916 CURVE",
"501.916 462.923 OFFCURVE",
"530.912 421.93 OFFCURVE",
"558.907 382.936 CURVE SMOOTH",
"613.898 305.949 OFFCURVE",
"668.889 231.961 OFFCURVE",
"725.879 155.974 CURVE SMOOTH",
"754.874 117.98 OFFCURVE",
"784.869 77.987 OFFCURVE",
"815.864 35.994 CURVE",
"935.844 32.9945 OFFCURVE",
"1065.82 21.9963 OFFCURVE",
"1209.8 2.9995 CURVE",
"1130.81 89.985 OFFCURVE",
"1043.83 186.969 OFFCURVE",
"953.841 283.953 CURVE SMOOTH",
"863.856 379.937 OFFCURVE",
"772.871 475.921 OFFCURVE",
"691.885 562.906 CURVE SMOOTH",
"655.891 599.9 LINE",
"785.869 746.876 LINE SMOOTH",
"808.865 773.871 OFFCURVE",
"833.861 801.867 OFFCURVE",
"860.857 832.861 CURVE SMOOTH",
"886.852 862.856 OFFCURVE",
"913.848 892.851 OFFCURVE",
"940.843 923.846 CURVE SMOOTH",
"995.834 984.836 OFFCURVE",
"1049.83 1046.83 OFFCURVE",
"1096.82 1099.82 CURVE",
"1080.82 1098.82 OFFCURVE",
"1061.82 1098.82 OFFCURVE",
"1040.83 1098.82 CURVE",
"1019.83 1097.82 OFFCURVE",
"997.834 1097.82 OFFCURVE",
"974.838 1096.82 CURVE SMOOTH",
"929.845 1095.82 OFFCURVE",
"884.853 1094.82 OFFCURVE",
"852.858 1094.82 CURVE",
"791.868 1030.83 OFFCURVE",
"731.878 965.839 OFFCURVE",
"670.888 900.85 CURVE SMOOTH",
"609.898 834.861 OFFCURVE",
"549.908 769.872 OFFCURVE",
"489.918 704.883 CURVE",
"504.916 844.859 OFFCURVE",
"516.914 974.838 OFFCURVE",
"526.912 1106.82 CURVE SMOOTH",
"536.911 1237.79 OFFCURVE",
"543.909 1368.77 OFFCURVE",
"550.908 1508.75 CURVE",
"497.917 1511.75 OFFCURVE",
"427.929 1517.75 OFFCURVE",
"374.938 1524.75 CURVE",
"352.941 1506.75 LINE"
);
}
);
width = 1476;
}
);
unicode = 006B;
},
{
glyphname = l;
layers = (
{
layerId = "101ED48A-DA64-4145-AD97-87CDC2521746";
name = "Bold Italic";
paths = (
{
closed = 1;
nodes = (
"312.948 1009.83 OFFCURVE",
"262.956 493.918 OFFCURVE",
"199.967 -1 CURVE",
"267.955 23.996 OFFCURVE",
"324.946 37.9937 OFFCURVE",
"371.938 37.9937 CURVE SMOOTH",
"418.93 37.9937 OFFCURVE",
"471.921 24.9958 OFFCURVE",
"528.912 0 CURVE",
"529.912 16.9972 OFFCURVE",
"530.912 35.994 OFFCURVE",
"531.911 56.9905 CURVE SMOOTH",
"532.911 77.987 OFFCURVE",
"534.911 99.9834 OFFCURVE",
"535.911 121.98 CURVE SMOOTH",
"538.91 165.972 OFFCURVE",
"541.91 209.965 OFFCURVE",
"544.909 242.96 CURVE",
"505.916 255.957 OFFCURVE",
"466.922 264.956 OFFCURVE",
"430.928 267.955 CURVE",
"465.922 682.886 OFFCURVE",
"500.917 1090.82 OFFCURVE",
"539.91 1503.75 CURVE",
"523.913 1502.75 OFFCURVE",
"512.915 1501.75 OFFCURVE",
"505.916 1501.75 CURVE",
"498.917 1500.75 OFFCURVE",
"491.918 1500.75 OFFCURVE",
"486.919 1500.75 CURVE SMOOTH",
"447.925 1500.75 OFFCURVE",
"411.931 1504.75 OFFCURVE",
"378.937 1519.75 CURVE",
"351.941 1504.75 LINE"
);
}
);
width = 796;
}
);
unicode = 006C;
},
{
glyphname = m;
layers = (
{
layerId = "101ED48A-DA64-4145-AD97-87CDC2521746";
name = "Bold Italic";
paths = (
{
closed = 1;
nodes = (
"435.927 939.844 LINE",
"436.927 939.844 LINE",
"436.927 938.844 LINE"
);
},
{
closed = 1;
nodes = (
"638.894 1117.81 OFFCURVE",
"524.913 1061.82 OFFCURVE",
"453.924 964.839 CURVE",
"457.924 1011.83 OFFCURVE",
"461.923 1060.82 OFFCURVE",
"464.923 1099.82 CURVE",
"366.939 1103.82 LINE",
"267.955 1108.82 LINE",
"270.955 1059.82 OFFCURVE",
"271.955 990.835 OFFCURVE",
"271.955 941.843 CURVE SMOOTH",
"271.955 636.894 OFFCURVE",
"224.963 323.946 OFFCURVE",
"125.979 7.99867 CURVE",
"143.976 8.9985 OFFCURVE",
"163.973 9.99834 OFFCURVE",
"186.969 10.9982 CURVE SMOOTH",
"231.961 13.9977 OFFCURVE",
"279.953 15.9973 OFFCURVE",
"324.946 16.9972 CURVE SMOOTH",
"346.942 17.997 OFFCURVE",
"366.939 17.997 OFFCURVE",
"384.936 18.9968 CURVE",
"428.929 226.962 OFFCURVE",
"446.926 427.929 OFFCURVE",
"457.924 627.896 CURVE SMOOTH",
"461.923 708.882 OFFCURVE",
"488.919 798.867 OFFCURVE",
"536.911 867.856 CURVE SMOOTH",
"584.903 935.844 OFFCURVE",
"653.891 984.836 OFFCURVE",
"742.876 984.836 CURVE SMOOTH",
"774.871 984.836 OFFCURVE",
"807.866 980.837 OFFCURVE",
"837.861 969.839 CURVE SMOOTH",
"867.856 957.841 OFFCURVE",
"894.851 937.844 OFFCURVE",
"914.848 905.849 CURVE",
"913.848 907.849 LINE",
"937.844 863.856 OFFCURVE",
"944.843 812.865 OFFCURVE",
"944.843 760.873 CURVE SMOOTH",
"944.843 739.877 OFFCURVE",
"943.843 719.88 OFFCURVE",
"941.843 699.883 CURVE",
"941.843 701.883 LINE",
"902.85 484.919 OFFCURVE",
"856.857 246.959 OFFCURVE",
"811.865 29.995 CURVE",
"1080.82 29.995 LINE",
"1093.82 224.963 OFFCURVE",
"1111.81 429.928 OFFCURVE",
"1134.81 624.896 CURVE",
"1141.81 713.881 OFFCURVE",
"1167.81 802.866 OFFCURVE",
"1227.8 873.855 CURVE",
"1284.79 946.842 OFFCURVE",
"1371.77 977.837 OFFCURVE",
"1458.76 977.837 CURVE SMOOTH",
"1542.74 977.837 OFFCURVE",
"1580.74 930.845 OFFCURVE",
"1580.74 823.863 CURVE SMOOTH",
"1580.74 808.865 OFFCURVE",
"1579.74 792.868 OFFCURVE",
"1578.74 775.871 CURVE SMOOTH",
"1577.74 758.874 OFFCURVE",
"1575.74 742.876 OFFCURVE",
"1574.74 725.879 CURVE",
"1571.74 694.884 LINE",
"1536.74 487.919 OFFCURVE",
"1507.75 276.954 OFFCURVE",
"1507.75 68.9885 CURVE SMOOTH",
"1507.75 20.9965 LINE",
"1526.75 19.9967 OFFCURVE",
"1547.74 19.9967 OFFCURVE",
"1570.74 18.9968 CURVE SMOOTH",
"1593.73 17.997 OFFCURVE",
"1616.73 16.9972 OFFCURVE",
"1640.73 15.9973 CURVE SMOOTH",
"1664.72 14.9975 OFFCURVE",
"1688.72 12.9978 OFFCURVE",
"1711.72 11.998 CURVE SMOOTH",
"1734.71 10.9982 OFFCURVE",
"1754.71 9.99834 OFFCURVE",
"1773.7 8.9985 CURVE",
"1750.71 139.977 OFFCURVE",
"1742.71 259.957 OFFCURVE",
"1742.71 375.937 CURVE SMOOTH",
"1742.71 472.921 OFFCURVE",
"1747.71 570.905 OFFCURVE",
"1757.71 669.888 CURVE SMOOTH",
"1761.71 712.881 OFFCURVE",
"1765.71 755.874 OFFCURVE",
"1765.71 800.867 CURVE SMOOTH",
"1765.71 853.858 OFFCURVE",
"1760.71 908.849 OFFCURVE",
"1744.71 964.839 CURVE",
"1744.71 963.84 LINE",
"1729.71 1015.83 OFFCURVE",
"1695.72 1055.82 OFFCURVE",
"1652.72 1082.82 CURVE SMOOTH",
"1609.73 1109.82 OFFCURVE",
"1557.74 1122.81 OFFCURVE",
"1505.75 1122.81 CURVE SMOOTH",
"1425.76 1122.81 OFFCURVE",
"1332.78 1106.82 OFFCURVE",
"1260.79 1059.82 CURVE SMOOTH",
"1197.8 1019.83 OFFCURVE",
"1145.81 964.839 OFFCURVE",
"1105.82 904.849 CURVE",
"1082.82 979.837 OFFCURVE",
"1033.83 1032.83 OFFCURVE",
"970.838 1067.82 CURVE SMOOTH",
"907.849 1102.82 OFFCURVE",
"830.862 1117.81 OFFCURVE",
"753.875 1117.81 CURVE SMOOTH"
);
}
);
width = 2039;
}
);
unicode = 006D;
},
{
glyphname = n;
layers = (
{
layerId = "101ED48A-DA64-4145-AD97-87CDC2521746";
name = "Bold Italic";
paths = (
{
closed = 1;
nodes = (
"1138.81 693.885 OFFCURVE",
"1139.81 718.88 OFFCURVE",
"1139.81 742.876 CURVE SMOOTH",
"1139.81 821.863 OFFCURVE",
"1130.81 901.85 OFFCURVE",
"1094.82 981.837 CURVE",
"1069.82 1029.83 OFFCURVE",
"1029.83 1063.82 OFFCURVE",
"982.836 1084.82 CURVE SMOOTH",
"934.844 1105.82 OFFCURVE",
"881.853 1115.81 OFFCURVE",
"828.862 1115.81 CURVE SMOOTH",
"691.885 1115.81 OFFCURVE",
"575.904 1066.82 OFFCURVE",
"460.923 986.836 CURVE",
"460.923 992.835 OFFCURVE",
"460.923 996.834 OFFCURVE",
"460.923 997.834 CURVE SMOOTH",
"460.923 998.834 OFFCURVE",
"460.923 1000.83 OFFCURVE",
"461.923 1001.83 CURVE",
"461.923 1002.83 OFFCURVE",
"461.923 1003.83 OFFCURVE",
"462.923 1004.83 CURVE",
"462.923 1005.83 OFFCURVE",
"462.923 1009.83 OFFCURVE",
"462.923 1015.83 CURVE SMOOTH",
"464.923 1103.82 LINE",
"451.925 1104.82 OFFCURVE",
"436.927 1105.82 OFFCURVE",
"419.93 1106.82 CURVE SMOOTH",
"402.933 1107.82 OFFCURVE",
"384.936 1109.82 OFFCURVE",
"367.939 1110.82 CURVE SMOOTH",
"331.945 1113.81 OFFCURVE",
"294.951 1116.81 OFFCURVE",
"269.955 1119.81 CURVE",
"264.956 746.876 OFFCURVE",
"224.963 377.937 OFFCURVE",
"140.977 6.99884 CURVE",
"159.973 8.9985 OFFCURVE",
"180.97 10.9982 OFFCURVE",
"203.966 12.9978 CURVE SMOOTH",
"250.958 15.9973 OFFCURVE",
"299.95 18.9968 OFFCURVE",
"345.942 21.9963 CURVE SMOOTH",
"368.939 22.9962 OFFCURVE",
"389.935 24.9958 OFFCURVE",
"408.932 25.9957 CURVE",
"429.928 224.963 OFFCURVE",
"444.926 436.927 OFFCURVE",
"451.925 635.894 CURVE",
"451.925 634.894 LINE",
"458.924 718.88 OFFCURVE",
"480.92 806.866 OFFCURVE",
"540.91 871.855 CURVE SMOOTH",
"571.905 904.849 OFFCURVE",
"611.898 925.846 OFFCURVE",
"653.891 938.844 CURVE SMOOTH",
"695.884 950.842 OFFCURVE",
"740.877 954.841 OFFCURVE",
"781.87 954.841 CURVE SMOOTH",
"809.865 954.841 OFFCURVE",
"837.861 950.842 OFFCURVE",
"862.856 939.844 CURVE SMOOTH",
"887.852 927.846 OFFCURVE",
"909.849 910.848 OFFCURVE",
"924.846 882.853 CURVE",
"924.846 883.853 LINE",
"941.843 844.859 OFFCURVE",
"946.842 804.866 OFFCURVE",
"946.842 761.873 CURVE SMOOTH",
"946.842 738.877 OFFCURVE",
"945.843 716.881 OFFCURVE",
"942.843 693.885 CURVE",
"942.843 694.884 LINE",
"941.843 691.885 OFFCURVE",
"941.843 687.885 OFFCURVE",
"941.843 684.886 CURVE SMOOTH",
"941.843 681.886 OFFCURVE",
"941.843 677.887 OFFCURVE",
"941.843 674.888 CURVE",
"909.849 463.923 OFFCURVE",
"880.853 236.961 OFFCURVE",
"865.856 25.9957 CURVE",
"904.849 24.9958 OFFCURVE",
"954.841 21.9963 OFFCURVE",
"1003.83 18.9968 CURVE SMOOTH",
"1051.82 14.9975 OFFCURVE",
"1100.82 11.998 OFFCURVE",
"1139.81 7.99867 CURVE",
"1129.81 119.98 OFFCURVE",
"1124.81 223.963 OFFCURVE",
"1124.81 320.947 CURVE SMOOTH",
"1124.81 437.927 OFFCURVE",
"1129.81 552.908 OFFCURVE",
"1137.81 669.888 CURVE SMOOTH"
);
}
);
width = 1405;
}
);
unicode = 006E;
},
{
glyphname = o;
layers = (
{
layerId = "101ED48A-DA64-4145-AD97-87CDC2521746";
name = "Bold Italic";
paths = (
{
closed = 1;
nodes = (
"752.875 965.839 OFFCURVE",
"830.862 933.845 OFFCURVE",
"869.855 868.855 CURVE SMOOTH",
"906.849 805.866 OFFCURVE",
"918.847 729.879 OFFCURVE",
"918.847 653.891 CURVE SMOOTH",
"918.847 616.897 OFFCURVE",
"917.847 558.907 OFFCURVE",
"905.849 503.916 CURVE SMOOTH",
"892.851 447.925 OFFCURVE",
"868.855 394.934 OFFCURVE",
"823.863 363.939 CURVE",
"824.863 363.939 LINE",
"760.873 326.946 OFFCURVE",
"684.886 317.947 OFFCURVE",
"612.898 317.947 CURVE SMOOTH",
"540.91 317.947 OFFCURVE",
"467.922 323.946 OFFCURVE",
"407.932 362.94 CURVE",
"408.932 361.94 LINE",
"363.939 396.934 OFFCURVE",
"355.941 453.924 OFFCURVE",
"355.941 512.915 CURVE SMOOTH",
"355.941 569.905 OFFCURVE",
"359.94 634.894 OFFCURVE",
"375.937 695.884 CURVE SMOOTH",
"390.935 756.874 OFFCURVE",
"414.931 816.864 OFFCURVE",
"454.924 867.856 CURVE SMOOTH",
"507.915 935.844 OFFCURVE",
"591.901 966.839 OFFCURVE",
"672.888 966.839 CURVE SMOOTH"
);
},
{
closed = 1;
nodes = (
"619.897 1113.81 OFFCURVE",
"550.908 1102.82 OFFCURVE",
"485.919 1079.82 CURVE SMOOTH",
"420.93 1056.82 OFFCURVE",
"358.94 1020.83 OFFCURVE",
"309.948 972.838 CURVE",
"246.959 901.85 OFFCURVE",
"208.965 811.865 OFFCURVE",
"185.969 719.88 CURVE SMOOTH",
"162.973 627.896 OFFCURVE",
"155.974 533.911 OFFCURVE",
"155.974 454.924 CURVE SMOOTH",
"155.974 343.943 OFFCURVE",
"173.971 233.961 OFFCURVE",
"238.96 144.976 CURVE",
"238.96 145.976 LINE",
"275.954 90.9849 OFFCURVE",
"330.945 55.9907 OFFCURVE",
"391.935 33.9943 CURVE SMOOTH",
"451.925 11.998 OFFCURVE",
"519.913 2.9995 OFFCURVE",
"583.903 2.9995 CURVE SMOOTH",
"648.892 2.9995 OFFCURVE",
"718.88 12.9978 OFFCURVE",
"784.869 34.9942 CURVE SMOOTH",
"850.858 56.9905 OFFCURVE",
"911.848 92.9845 OFFCURVE",
"959.84 144.976 CURVE",
"1020.83 216.964 OFFCURVE",
"1060.82 306.949 OFFCURVE",
"1083.82 398.934 CURVE SMOOTH",
"1106.82 490.918 OFFCURVE",
"1114.81 584.903 OFFCURVE",
"1114.81 664.889 CURVE SMOOTH",
"1114.81 773.871 OFFCURVE",
"1095.82 881.853 OFFCURVE",
"1031.83 970.838 CURVE SMOOTH",
"991.835 1025.83 OFFCURVE",
"937.844 1061.82 OFFCURVE",
"877.854 1083.82 CURVE SMOOTH",
"816.864 1105.82 OFFCURVE",
"748.875 1113.81 OFFCURVE",
"683.886 1113.81 CURVE SMOOTH"
);
}
);
width = 1267;
}
);
unicode = 006F;
},
{
glyphname = p;
layers = (
{
layerId = "101ED48A-DA64-4145-AD97-87CDC2521746";
name = "Bold Italic";
paths = (
{
closed = 1;
nodes = (
"750.875 -4 OFFCURVE",
"810.865 9.99834 OFFCURVE",
"863.856 35.994 CURVE SMOOTH",
"916.847 61.9897 OFFCURVE",
"964.839 97.9837 OFFCURVE",
"1003.83 145.976 CURVE",
"1002.83 145.976 LINE",
"1065.82 218.964 OFFCURVE",
"1105.82 307.949 OFFCURVE",
"1129.81 399.933 CURVE SMOOTH",
"1153.81 491.918 OFFCURVE",
"1162.81 586.902 OFFCURVE",
"1162.81 671.888 CURVE SMOOTH",
"1162.81 772.871 OFFCURVE",
"1141.81 878.854 OFFCURVE",
"1086.82 962.84 CURVE",
"1054.82 1005.83 OFFCURVE",
"1009.83 1041.83 OFFCURVE",
"958.84 1066.82 CURVE SMOOTH",
"907.849 1091.82 OFFCURVE",
"850.858 1106.82 OFFCURVE",
"795.868 1106.82 CURVE SMOOTH",
"766.872 1106.82 LINE SMOOTH",
"707.882 1106.82 OFFCURVE",
"646.892 1094.82 OFFCURVE",
"590.902 1070.82 CURVE SMOOTH",
"533.911 1046.83 OFFCURVE",
"482.92 1010.83 OFFCURVE",
"443.926 961.84 CURVE",
"448.925 990.835 LINE",
"463.923 1089.82 LINE",
"436.927 1090.82 OFFCURVE",
"401.933 1093.82 OFFCURVE",
"365.939 1097.82 CURVE SMOOTH",
"329.945 1100.82 OFFCURVE",
"294.951 1103.82 OFFCURVE",
"267.955 1106.82 CURVE",
"247.959 602.9 OFFCURVE",
"192.968 103.983 OFFCURVE",
"93.9844 -404 CURVE",
"106.982 -403 OFFCURVE",
"122.98 -401 OFFCURVE",
"140.977 -399 CURVE SMOOTH",
"157.974 -397 OFFCURVE",
"175.971 -395 OFFCURVE",
"194.968 -393 CURVE",
"212.965 -392 OFFCURVE",
"230.962 -390 OFFCURVE",
"247.959 -388 CURVE",
"264.956 -387 OFFCURVE",
"280.953 -385 OFFCURVE",
"294.951 -384 CURVE",
"323.946 -209 OFFCURVE",
"354.941 -26 OFFCURVE",
"377.937 148.975 CURVE",
"405.932 97.9837 OFFCURVE",
"448.925 58.9902 OFFCURVE",
"499.917 33.9943 CURVE SMOOTH",
"550.908 8.9985 OFFCURVE",
"608.899 -4 OFFCURVE",
"667.889 -4 CURVE SMOOTH",
"693.885 -4 LINE SMOOTH"
);
},
{
closed = 1;
nodes = (
"1032.83 582.903 OFFCURVE",
"1032.83 580.903 OFFCURVE",
"1031.83 578.904 CURVE",
"1030.83 575.904 OFFCURVE",
"1030.83 573.904 OFFCURVE",
"1030.83 570.905 CURVE",
"1025.83 531.911 OFFCURVE",
"1018.83 489.918 OFFCURVE",
"1005.83 449.925 CURVE SMOOTH",
"992.835 409.932 OFFCURVE",
"971.838 373.938 OFFCURVE",
"939.844 346.942 CURVE",
"941.843 347.942 LINE",
"881.853 307.949 OFFCURVE",
"809.865 295.951 OFFCURVE",
"738.877 295.951 CURVE SMOOTH",
"666.889 295.951 OFFCURVE",
"597.901 308.949 OFFCURVE",
"538.91 347.942 CURVE",
"539.91 346.942 LINE",
"490.918 385.936 OFFCURVE",
"480.92 449.925 OFFCURVE",
"480.92 513.914 CURVE SMOOTH",
"480.92 570.905 OFFCURVE",
"485.919 635.894 OFFCURVE",
"499.917 697.884 CURVE SMOOTH",
"513.914 759.874 OFFCURVE",
"538.91 819.864 OFFCURVE",
"578.904 868.855 CURVE SMOOTH",
"634.894 941.843 OFFCURVE",
"720.88 973.838 OFFCURVE",
"808.865 973.838 CURVE SMOOTH",
"888.852 973.838 OFFCURVE",
"946.842 938.844 OFFCURVE",
"983.836 883.853 CURVE SMOOTH",
"1020.83 828.862 OFFCURVE",
"1037.83 754.874 OFFCURVE",
"1037.83 677.887 CURVE SMOOTH",
"1037.83 646.892 OFFCURVE",
"1035.83 618.897 OFFCURVE",
"1032.83 587.902 CURVE",
"1032.83 585.902 LINE SMOOTH"
);
}
);
width = 1313;
}
);
unicode = 0070;
},
